<?xml version="1.0" encoding="UTF-8" standalone="no"?>
<!-- Created with Inkscape (http://www.inkscape.org/) -->

<svg
   xmlns:dc="http://purl.org/dc/elements/1.1/"
   xmlns:cc="http://creativecommons.org/ns#"
   xmlns:rdf="http://www.w3.org/1999/02/22-rdf-syntax-ns#"
   xmlns:svg="http://www.w3.org/2000/svg"
   xmlns="http://www.w3.org/2000/svg"
   xmlns:sodipodi="http://sodipodi.sourceforge.net/DTD/sodipodi-0.dtd"
   xmlns:inkscape="http://www.inkscape.org/namespaces/inkscape"
   width="61.44112mm"
   height="34.11628mm"
   viewBox="0 0 61.44112 34.11628"
   version="1.1"
   id="svg140"
   inkscape:version="0.92.4 (5da689c313, 2019-01-14)"
   sodipodi:docname="logo_xs_small_h.svg">
  <defs
     id="defs134" />
  <sodipodi:namedview
     id="base"
     pagecolor="#ffffff"
     bordercolor="#666666"
     borderopacity="1.0"
     inkscape:pageopacity="0.0"
     inkscape:pageshadow="2"
     inkscape:zoom="0.98994949"
     inkscape:cx="453.26088"
     inkscape:cy="165.46518"
     inkscape:document-units="mm"
     inkscape:current-layer="layer1"
     showgrid="false"
     inkscape:window-width="1920"
     inkscape:window-height="1001"
     inkscape:window-x="-9"
     inkscape:window-y="-9"
     inkscape:window-maximized="1" />
  <metadata
     id="metadata137">
    <rdf:RDF>
      <cc:Work
         rdf:about="">
        <dc:format>image/svg+xml</dc:format>
        <dc:type
           rdf:resource="http://purl.org/dc/dcmitype/StillImage" />
        <dc:title></dc:title>
      </cc:Work>
    </rdf:RDF>
  </metadata>
  <g
     inkscape:label="Layer 1"
     inkscape:groupmode="layer"
     id="layer1"
     transform="translate(-14.432895,-14.99375)">
    <g
       aria-label="Belas Artes  Conservatório de Dança"
       style="font-style:normal;font-weight:normal;font-size:10.58333302px;line-height:0.89999998;font-family:sans-serif;letter-spacing:0px;word-spacing:0px;fill:#000000;fill-opacity:1;stroke:none;stroke-width:0.26458332"
       id="text4081">
      <path
         d="m 35.742097,39.914897 q 0.81132,0 1.384929,-0.573608 0.573608,-0.578776 0.573608,-1.395264 0,-0.816488 -0.573608,-1.395264 -0.573609,-0.578776 -1.384929,-0.578776 h -1.689819 v 3.942912 z m -1.689819,-6.485392 v 2.129069 h 1.860352 q 0.449585,-0.04651 0.671793,-0.268718 0.315227,-0.315226 0.315227,-0.769978 0,-0.449585 -0.320394,-0.769979 -0.315227,-0.320394 -0.764812,-0.320394 z m 2.640666,2.315104 q 0.403076,0.170532 0.738973,0.511597 0.697632,0.697632 0.697632,1.689819 0,0.98702 -0.697632,1.684652 -0.583944,0.583943 -1.421102,0.697631 h -2.371948 v -7.307047 h 2.180745 q 0.625285,0 1.059367,0.43925 0.43925,0.43925 0.43925,1.059367 0,0.620117 -0.43925,1.059367 -0.09302,0.09818 -0.186035,0.165364 z"
         style="font-style:normal;font-variant:normal;font-weight:normal;font-stretch:normal;line-height:0.89999998;font-family:'Champagne &amp; Limousines';-inkscape-font-specification:'Champagne &amp; Limousines';fill:#000000;stroke-width:0.26458332"
         id="path4394"
         inkscape:connector-curvature="0" />
      <path
         d="M 39.188916,37.30007 H 43.12666 Q 42.981966,36.829814 42.635734,36.483582 42.025952,35.8738 41.168123,35.8738 q -0.857829,0 -1.467611,0.609782 -0.361735,0.366903 -0.511596,0.816488 z m -0.07751,0.418579 q -0.0155,0.10852 -0.0155,0.232544 0,0.857828 0.604614,1.462443 0.609782,0.604614 1.467611,0.604614 0.857829,0 1.467611,-0.609782 0.103352,-0.103353 0.19637,-0.217041 l 0.43925,0.155029 q -0.07752,0.129191 -0.325562,0.372071 -0.733805,0.738973 -1.777669,0.738973 -1.033529,0 -1.772502,-0.733806 -0.733805,-0.738973 -0.733805,-1.772501 0,-1.043864 0.733805,-1.77767 0.738973,-0.733805 1.772502,-0.733805 1.043864,0 1.777669,0.733805 0.645955,0.651123 0.645955,1.545126 z"
         style="font-style:normal;font-variant:normal;font-weight:normal;font-stretch:normal;line-height:0.89999998;font-family:'Champagne &amp; Limousines';-inkscape-font-specification:'Champagne &amp; Limousines';fill:#000000;stroke-width:0.26458332"
         id="path4396"
         inkscape:connector-curvature="0" />
      <path
         d="m 44.76997,33.021261 v 7.307047 h -0.413411 v -7.307047 z"
         style="font-style:normal;font-variant:normal;font-weight:normal;font-stretch:normal;line-height:0.89999998;font-family:'Champagne &amp; Limousines';-inkscape-font-specification:'Champagne &amp; Limousines';fill:#000000;stroke-width:0.26458332"
         id="path4398"
         inkscape:connector-curvature="0" />
      <path
         d="m 50.676586,40.328308 h -0.413411 v -0.914672 q -0.118856,0.160197 -0.258382,0.304891 -0.733806,0.738973 -1.777669,0.738973 -1.033529,0 -1.772502,-0.733806 -0.733805,-0.738973 -0.733805,-1.772501 0,-1.043864 0.733805,-1.77767 0.738973,-0.733805 1.772502,-0.733805 1.043863,0 1.777669,0.733805 0.139526,0.144694 0.258382,0.304891 v -0.63562 h 0.413411 z m -0.413411,-1.974039 v -0.81132 Q 50.149487,36.938335 49.694734,36.483582 49.084952,35.8738 48.227124,35.8738 q -0.857829,0 -1.467611,0.609782 -0.604614,0.609782 -0.604614,1.467611 0,0.857828 0.604614,1.462443 0.609782,0.604614 1.467611,0.604614 0.857828,0 1.46761,-0.609782 0.454753,-0.454753 0.568441,-1.054199 z"
         style="font-style:normal;font-variant:normal;font-weight:normal;font-stretch:normal;line-height:0.89999998;font-family:'Champagne &amp; Limousines';-inkscape-font-specification:'Champagne &amp; Limousines';fill:#000000;stroke-width:0.26458332"
         id="path4400"
         inkscape:connector-curvature="0" />
      <path
         d="m 52.821157,37.920187 q -0.521932,-0.284221 -0.72347,-0.485759 -0.315226,-0.315226 -0.315226,-0.759643 0,-0.444417 0.315226,-0.759644 0.315226,-0.320394 0.759644,-0.320394 0.444417,0 0.738973,0.294556 0.28422,0.28422 0.28422,0.651123 v 0.02067 l -0.356567,0.144694 q -0.04651,-0.346232 -0.217041,-0.521932 -0.170533,-0.1757 -0.449585,-0.1757 -0.273885,0 -0.470256,0.19637 -0.19637,0.196371 -0.19637,0.470256 0,0.273885 0.19637,0.470255 0.113688,0.118856 0.480591,0.3514 0.583944,0.315226 0.83199,0.563273 0.387574,0.392741 0.387574,0.935344 0,0.558105 -0.387574,0.950846 -0.387573,0.387573 -0.940511,0.387573 -0.552937,0 -0.940511,-0.387573 -0.387573,-0.392741 -0.387573,-0.857829 l 0.408244,-0.103353 q 0,0.397909 0.268717,0.671794 0.273885,0.268717 0.651123,0.268717 0.377238,0 0.651123,-0.268717 0.273886,-0.273885 0.273886,-0.661458 0,-0.377238 -0.273886,-0.645956 -0.144694,-0.144694 -0.589111,-0.428913 z"
         style="font-style:normal;font-variant:normal;font-weight:normal;font-stretch:normal;line-height:0.89999998;font-family:'Champagne &amp; Limousines';-inkscape-font-specification:'Champagne &amp; Limousines';fill:#000000;stroke-width:0.26458332"
         id="path4402"
         inkscape:connector-curvature="0" />
      <path
         d="m 61.099722,36.705791 -1.111044,-3.064413 -1.116211,3.064413 z m -0.89917,-3.68453 2.651001,7.307047 H 62.41747 l -1.167887,-3.214274 h -2.526977 l -1.188558,3.214274 h -0.43925 l 2.682007,-7.307047 z"
         style="font-style:normal;font-variant:normal;font-weight:normal;font-stretch:normal;line-height:0.89999998;font-family:'Champagne &amp; Limousines';-inkscape-font-specification:'Champagne &amp; Limousines';fill:#000000;stroke-width:0.26458332"
         id="path4404"
         inkscape:connector-curvature="0" />
      <path
         d="m 64.965119,36.204529 q -0.43925,0.06718 -0.862997,0.558106 -0.423746,0.490926 -0.423746,0.992187 v 2.573486 h -0.413412 v -4.485514 h 0.413412 v 0.971517 q 0.258382,-0.676961 1.059366,-1.00769 z"
         style="font-style:normal;font-variant:normal;font-weight:normal;font-stretch:normal;line-height:0.89999998;font-family:'Champagne &amp; Limousines';-inkscape-font-specification:'Champagne &amp; Limousines';fill:#000000;stroke-width:0.26458332"
         id="path4406"
         inkscape:connector-curvature="0" />
      <path
         d="m 66.055491,35.842794 v -1.90686 h 0.408244 v 1.90686 h 0.914673 v 0.413412 h -0.914673 v 4.072102 h -0.408244 v -4.072102 h -0.914672 v -0.413412 z"
         style="font-style:normal;font-variant:normal;font-weight:normal;font-stretch:normal;line-height:0.89999998;font-family:'Champagne &amp; Limousines';-inkscape-font-specification:'Champagne &amp; Limousines';fill:#000000;stroke-width:0.26458332"
         id="path4408"
         inkscape:connector-curvature="0" />
      <path
         d="m 68.334423,37.30007 h 3.937744 Q 72.127473,36.829814 71.781241,36.483582 71.171459,35.8738 70.313631,35.8738 q -0.857829,0 -1.467611,0.609782 -0.361735,0.366903 -0.511597,0.816488 z m -0.07751,0.418579 q -0.0155,0.10852 -0.0155,0.232544 0,0.857828 0.604614,1.462443 0.609782,0.604614 1.467611,0.604614 0.857828,0 1.46761,-0.609782 0.103353,-0.103353 0.196371,-0.217041 l 0.439249,0.155029 q -0.07751,0.129191 -0.325561,0.372071 -0.733805,0.738973 -1.777669,0.738973 -1.033529,0 -1.772502,-0.733806 -0.733805,-0.738973 -0.733805,-1.772501 0,-1.043864 0.733805,-1.77767 0.738973,-0.733805 1.772502,-0.733805 1.043864,0 1.777669,0.733805 0.645955,0.651123 0.645955,1.545126 z"
         style="font-style:normal;font-variant:normal;font-weight:normal;font-stretch:normal;line-height:0.89999998;font-family:'Champagne &amp; Limousines';-inkscape-font-specification:'Champagne &amp; Limousines';fill:#000000;stroke-width:0.26458332"
         id="path4410"
         inkscape:connector-curvature="0" />
      <path
         d="m 74.607942,37.920187 q -0.521932,-0.284221 -0.72347,-0.485759 -0.315226,-0.315226 -0.315226,-0.759643 0,-0.444417 0.315226,-0.759644 0.315226,-0.320394 0.759644,-0.320394 0.444417,0 0.738973,0.294556 0.28422,0.28422 0.28422,0.651123 v 0.02067 l -0.356567,0.144694 q -0.04651,-0.346232 -0.217041,-0.521932 -0.170533,-0.1757 -0.449585,-0.1757 -0.273885,0 -0.470256,0.19637 -0.19637,0.196371 -0.19637,0.470256 0,0.273885 0.19637,0.470255 0.113688,0.118856 0.480591,0.3514 0.583944,0.315226 0.831991,0.563273 0.387573,0.392741 0.387573,0.935344 0,0.558105 -0.387573,0.950846 -0.387574,0.387573 -0.940511,0.387573 -0.552938,0 -0.940512,-0.387573 -0.387573,-0.392741 -0.387573,-0.857829 L 73.62609,38.98472 q 0,0.397909 0.268718,0.671794 0.273885,0.268717 0.651123,0.268717 0.377237,0 0.651123,-0.268717 0.273885,-0.273885 0.273885,-0.661458 0,-0.377238 -0.273885,-0.645956 -0.144694,-0.144694 -0.589112,-0.428913 z"
         style="font-style:normal;font-variant:normal;font-weight:normal;font-stretch:normal;line-height:0.89999998;font-family:'Champagne &amp; Limousines';-inkscape-font-specification:'Champagne &amp; Limousines';fill:#000000;stroke-width:0.26458332"
         id="path4412"
         inkscape:connector-curvature="0" />
    </g>
    <path
       style="fill:#000000;stroke:none;stroke-width:0.00903468"
       inkscape:connector-curvature="0"
       id="path441"
       d="m 22.929891,48.089103 c -0.487873,-1.3281 -0.533047,-1.653349 -0.334283,-2.27674 0.171658,-0.569187 0.153589,-1.300995 -0.07228,-2.466471 -0.08131,-0.415594 -0.180694,-1.264853 -0.207798,-1.897283 -0.04517,-0.912503 -0.108416,-1.264854 -0.280075,-1.707554 -0.225867,-0.560152 -0.388491,-0.731811 -0.388491,-0.406562 -0.009,0.117451 -0.05421,0.09035 -0.243937,-0.117449 l -0.234901,-0.262008 -0.135521,0.198765 c -0.144555,0.216833 -0.451734,0.271041 -0.524011,0.08131 -0.04517,-0.126484 -0.343318,-0.144554 -0.451735,-0.03614 -0.153589,0.153589 -0.234901,0.03614 -0.189728,-0.25297 0.06324,-0.397527 -0.06324,-0.406563 -0.451734,-0.02711 -0.252971,0.243935 -0.298145,0.262006 -0.298145,0.117448 0,-0.135518 -0.0271,-0.144553 -0.108416,-0.06324 -0.153589,0.15359 -0.343318,0.135519 -0.343318,-0.02711 0,-0.08131 -0.05421,-0.108416 -0.13552,-0.08131 -0.09938,0.04517 -0.13552,-0.009 -0.13552,-0.189727 0,-0.243938 -0.009,-0.243938 -0.162625,-0.108416 -0.09035,0.09035 -0.216832,0.153589 -0.27104,0.153589 -0.15359,0 -0.28911,-0.316213 -0.28911,-0.677602 0,-0.316214 -0.01807,-0.334284 -0.234902,-0.280076 -0.126485,0.03614 -0.316214,0.03614 -0.415595,0 -0.171659,-0.05419 -0.180694,-0.09936 -0.126486,-0.67758 l 0.06324,-0.623393 h -0.379457 c -0.361387,0 -0.370422,-0.009 -0.334283,-0.243937 0.0271,-0.144555 0.06324,-0.316214 0.08131,-0.388491 0.0271,-0.108416 -0.04517,-0.126486 -0.361387,-0.108416 -0.415596,0.03614 -0.433665,0.01807 -0.234902,-0.451735 0.05421,-0.126485 0.01807,-0.162624 -0.13552,-0.162624 -0.117451,0 -0.216833,-0.07228 -0.243937,-0.180694 -0.03614,-0.126485 -0.126485,-0.180693 -0.298144,-0.180693 -0.361388,0 -0.460769,-0.171659 -0.397526,-0.668567 0.05421,-0.361387 0.03614,-0.415595 -0.09938,-0.415595 -0.126485,0 -0.144555,-0.05421 -0.09938,-0.28911 0.0271,-0.15359 0.11745,-0.352353 0.189728,-0.433665 0.09938,-0.108416 0.108416,-0.171659 0.03614,-0.243937 -0.07228,-0.07228 -0.07228,-0.153589 -0.009,-0.27104 0.07228,-0.126486 0.05421,-0.207798 -0.08131,-0.352353 -0.216832,-0.234901 -0.144555,-0.451734 0.162624,-0.533046 l 0.234902,-0.05421 -0.198763,-0.207798 c -0.243936,-0.252971 -0.243936,-0.487873 0,-0.740844 0.180694,-0.189729 0.180694,-0.234902 0.08131,-0.487873 -0.06324,-0.15359 -0.09938,-0.28911 -0.08131,-0.298145 0.01807,-0.009 0.216833,-0.08131 0.433665,-0.15359 0.533046,-0.180693 0.641463,-0.370422 0.4427,-0.731809 -0.198763,-0.334283 -0.207798,-0.442699 -0.0271,-0.442699 0.09035,0 0.13552,-0.09035 0.13552,-0.298145 0,-0.379457 0.08131,-0.460769 0.262006,-0.298144 0.08131,0.06324 0.234901,0.153589 0.352352,0.180693 0.189729,0.06324 0.198763,0.03614 0.198763,-0.343318 0,-0.352352 0.0271,-0.415595 0.180694,-0.415595 0.09938,0 0.180694,-0.06324 0.180694,-0.135521 0,-0.06324 0.05421,-0.162624 0.126485,-0.198763 0.162625,-0.09938 0.505943,-0.749878 0.505943,-0.975745 0,-0.298145 0.11745,-0.379457 0.524011,-0.379457 0.307179,0 0.451735,-0.05421 0.632428,-0.243937 l 0.243936,-0.234902 0.06324,-2.601988 c 0.04517,-2.222533 0.08131,-2.71944 0.252971,-3.45125 0.108417,-0.469804 0.234902,-1.201613 0.271041,-1.626243 0.09035,-1.057058 0.180694,-1.373272 0.370422,-1.418445 0.09938,-0.0271 0.189728,-0.162624 0.216832,-0.334284 0.08131,-0.397526 0.334284,-0.71374 0.524012,-0.641462 0.343318,0.13552 0.307179,1.481688 -0.05421,2.367087 -0.180694,0.415595 -0.262006,0.912503 -0.406561,2.466469 -0.198763,1.996665 -0.189728,2.394191 0.08131,4.0114 0.108416,0.641462 0.262006,0.677601 0.262006,0.05421 0,-0.460769 0.433665,-0.993816 1.192578,-1.481689 0.343318,-0.216832 1.228717,-0.433664 1.300995,-0.316213 0.0271,0.05421 0.108416,0.04517 0.198763,-0.0271 0.117451,-0.09938 0.13552,-0.09035 0.08131,0.09035 -0.03614,0.171659 -0.01807,0.198763 0.09035,0.162624 0.189728,-0.07228 0.496907,0.0271 0.433665,0.135521 -0.03614,0.04517 0.009,0.108416 0.08131,0.13552 0.189728,0.07228 0.180694,0.198763 0,0.234902 -0.09938,0.01807 -0.162624,0.13552 -0.180694,0.343318 -0.01807,0.171659 -0.05421,0.505942 -0.08131,0.740844 l -0.05421,0.433665 0.280075,-0.05421 c 0.262006,-0.05421 0.271041,-0.04517 0.271041,0.262005 0,0.252972 0.02711,0.316214 0.13552,0.280076 0.07228,-0.03614 0.243937,-0.0271 0.370422,0 0.180694,0.04517 0.225867,0.108416 0.216832,0.307179 -0.04517,0.632427 -0.0271,0.650497 0.415596,0.650497 0.460769,0 0.795052,0.13552 0.731809,0.307179 -0.08131,0.198763 0.876365,-0.325249 1.391342,-0.767948 0.280075,-0.243936 0.605323,-0.632428 0.722774,-0.86733 0.180694,-0.361387 0.30718,-0.478838 0.740844,-0.686635 l 0.524012,-0.252972 0.307179,0.189729 c 0.433665,0.27104 0.406561,0.514977 -0.13552,1.310029 -0.569185,0.813122 -0.641463,0.876364 -1.463619,1.328098 -0.361387,0.198763 -0.596289,0.343318 -0.524012,0.316214 0.07228,-0.01807 0.469804,-0.108416 0.8854,-0.198763 0.930572,-0.198763 1.174508,-0.144555 2.339983,0.569185 0.767948,0.469804 1.029954,0.740844 0.71374,0.740844 -0.08131,0 -0.108416,0.07228 -0.07228,0.225868 0.05421,0.307179 -0.06324,0.280075 -0.623393,-0.135521 -0.56015,-0.42463 -0.659532,-0.442699 -0.587254,-0.13552 0.03614,0.15359 0.01807,0.243937 -0.07228,0.280075 -0.216832,0.08131 -0.469804,-0.117451 -0.722775,-0.551115 -0.13552,-0.225868 -0.252971,-0.406561 -0.27104,-0.406561 -0.01807,0 -0.252971,0.09938 -0.514977,0.216832 -0.271041,0.126486 -0.758913,0.28911 -1.093197,0.379457 -0.343318,0.08131 -0.614358,0.180693 -0.614358,0.225867 0,0.04517 0.04517,0.08131 0.09938,0.08131 0.05421,0 0.08131,0.06324 0.04517,0.13552 -0.0271,0.07228 -0.009,0.234902 0.04517,0.352353 0.08131,0.162624 0.06324,0.280075 -0.05421,0.505942 -0.15359,0.298145 -0.126486,0.370422 0.171659,0.478838 0.05421,0.01807 0.01807,0.126486 -0.06324,0.243937 -0.189728,0.27104 -0.189728,0.361388 -0.009,0.361388 0.108416,0 0.13552,0.05421 0.09035,0.207797 -0.171659,0.587255 -0.162625,0.677601 0.0271,0.776983 0.180694,0.09938 0.252971,0.370422 0.126486,0.487873 -0.09938,0.108416 -0.09035,0.551115 0.009,0.632428 0.06324,0.04517 0.0271,0.126485 -0.108416,0.234902 l -0.198763,0.180693 0.198763,0.144555 0.207798,0.144555 -0.207798,0.15359 c -0.15359,0.11745 -0.180694,0.180693 -0.09938,0.262006 0.08131,0.08131 0.04517,0.162624 -0.162624,0.334283 -0.207798,0.171659 -0.262006,0.28911 -0.225867,0.460769 0.01807,0.13552 0,0.225867 -0.07228,0.225867 -0.07228,0 -0.08131,0.09035 -0.04517,0.27104 0.05421,0.252972 0.04517,0.271041 -0.225867,0.271041 -0.343318,0 -0.4427,0.207798 -0.216833,0.460769 0.15359,0.171659 0.15359,0.180693 -0.0271,0.225867 -0.117451,0.03614 -0.180694,0.09938 -0.144555,0.180693 0.03614,0.09035 -0.0271,0.108417 -0.280075,0.06324 l -0.325249,-0.05421 v 0.361388 c 0,0.478838 -0.243936,0.776982 -0.867329,1.075127 -0.397526,0.189728 -0.487873,0.271041 -0.4427,0.397526 0.04517,0.144555 0,0.171659 -0.28911,0.198763 -0.343318,0.0271 -0.343318,0.0271 -0.316214,0.388491 0.01807,0.198762 0.15359,0.749879 0.316214,1.219684 0.262006,0.786016 0.28911,0.948641 0.271041,1.897284 -0.009,0.668564 -0.09938,1.490721 -0.243937,2.294807 -0.126485,0.695671 -0.234901,1.355203 -0.234901,1.472655 0,0.126486 0.126485,0.533045 0.27104,0.903467 0.225867,0.560151 0.28911,0.8854 0.352353,1.779835 0.03614,0.605321 0.05421,1.13837 0.03614,1.20161 -0.04517,0.126487 -0.334283,0.207801 -0.758913,0.207801 h -0.325277 z" />
  </g>
</svg>
