<!DOCTYPE svg PUBLIC "-//W3C//DTD SVG 20010904//EN" "http://www.w3.org/TR/2001/REC-SVG-20010904/DTD/svg10.dtd">
<svg version="1.0" xmlns="http://www.w3.org/2000/svg" width="1200px" height="575px" viewBox="0 0 12000 5750" preserveAspectRatio="xMidYMid meet">
<g id="layer101" fill="#949399" stroke="none">
 <path d="M6651 5029 c-747 -84 -1403 -537 -1735 -1199 -34 -69 -70 -144 -79 -167 l-17 -43 -35 25 c-53 35 -100 48 -162 43 -57 -5 -92 -25 -127 -72 -17 -22 -21 -42 -21 -99 1 -88 24 -138 97 -214 l51 -51 -38 -52 -37 -51 -42 68 c-113 184 -248 338 -333 382 -23 11 -66 24 -96 27 -50 6 -56 4 -86 -22 -28 -25 -33 -38 -41 -97 -4 -37 -6 -86 -2 -110 l5 -42 -73 78 c-177 189 -377 276 -460 200 -38 -36 -65 -134 -56 -205 l7 -49 -78 78 c-125 126 -224 183 -317 183 -59 0 -85 -11 -124 -51 -42 -43 -70 -133 -85 -273 l-12 -108 -41 63 c-122 191 -275 336 -400 379 -108 37 -190 23 -252 -44 -45 -49 -60 -90 -68 -186 -6 -57 11 -190 32 -266 5 -20 1 -22 -66 -28 -40 -4 -78 -10 -84 -12 -8 -3 -17 15 -25 53 -19 86 -81 210 -139 280 -114 136 -304 235 -545 285 -86 17 -126 19 -272 15 -193 -5 -248 -16 -371 -77 -292 -143 -280 -434 25 -638 48 -33 117 -70 153 -83 l65 -23 32 -135 c63 -269 106 -542 118 -742 8 -139 3 -159 -41 -159 -77 0 -224 128 -366 319 -67 90 -75 98 -78 73 -4 -41 44 -219 78 -288 63 -128 163 -219 281 -255 86 -26 141 -20 197 21 57 41 101 134 109 228 l6 72 42 -98 c63 -146 97 -209 174 -324 119 -179 247 -291 411 -363 92 -39 202 -45 283 -15 142 53 209 149 224 316 16 176 -167 496 -424 745 -93 90 -155 141 -245 201 l-68 45 75 37 c138 68 261 229 280 365 6 48 9 51 43 60 21 5 57 12 82 16 25 4 52 9 61 11 13 4 26 -14 53 -68 69 -140 166 -221 282 -234 40 -5 54 -2 75 14 45 36 63 137 34 205 -29 69 -108 137 -198 168 -48 17 -52 32 -52 179 0 98 3 120 20 150 18 30 27 35 64 38 34 3 52 -3 92 -28 64 -42 162 -148 236 -258 103 -151 120 -187 127 -277 32 -381 211 -1150 331 -1419 63 -142 101 -201 180 -282 61 -62 79 -74 139 -94 52 -17 83 -21 127 -17 144 13 198 107 186 322 -9 162 -67 338 -188 576 -102 200 -320 514 -466 670 -40 43 -43 49 -54 140 -17 127 -17 409 -1 481 19 81 49 122 93 126 29 2 45 -5 87 -39 77 -61 185 -197 238 -300 52 -101 120 -182 192 -228 103 -66 235 -89 309 -54 19 9 49 35 66 59 33 45 47 54 47 31 0 -43 109 -77 175 -55 53 17 55 37 11 181 -37 120 -76 297 -76 339 0 12 5 30 10 38 9 13 16 9 41 -20 36 -41 161 -230 208 -313 l33 -58 -26 -60 c-73 -169 20 -314 190 -296 30 3 54 4 54 2 0 -30 36 -260 50 -327 192 -861 898 -1535 1770 -1688 157 -28 450 -38 610 -21 130 14 268 41 395 77 50 14 101 27 114 29 13 1 26 7 30 12 3 5 33 20 66 33 234 92 495 262 689 449 197 191 339 385 458 626 60 124 158 388 158 429 0 8 4 18 10 21 15 9 364 34 371 26 3 -3 16 -53 29 -111 26 -120 98 -371 109 -382 4 -4 28 -12 54 -17 57 -10 118 3 143 31 16 17 16 24 6 61 -25 85 -90 343 -97 385 l-7 42 100 0 c433 0 1213 -162 1685 -349 105 -42 177 -66 262 -87 34 -9 -76 57 -160 96 -95 44 -468 185 -608 229 -414 132 -757 196 -1122 209 l-180 7 -28 145 c-73 382 -108 761 -74 805 15 19 17 19 58 -25 57 -61 184 -256 254 -390 94 -180 168 -247 287 -258 52 -4 62 -2 83 18 90 84 20 261 -138 350 -49 28 -54 34 -65 81 -19 80 -25 153 -18 203 7 46 7 46 48 46 76 0 259 -124 365 -247 63 -73 137 -199 130 -221 -3 -10 -13 -35 -21 -57 -8 -22 -15 -67 -16 -100 0 -84 22 -117 97 -145 51 -20 64 -21 113 -11 45 8 62 18 93 52 34 39 37 46 37 104 0 46 -6 74 -25 111 l-25 49 46 68 46 67 102 -54 c144 -77 304 -128 294 -93 -5 14 -257 188 -310 212 l-36 17 16 37 c11 25 16 68 16 142 1 100 0 108 -29 154 -45 72 -110 110 -191 110 -48 0 -69 -5 -91 -21 -109 -81 -108 -228 3 -342 l54 -56 -27 -38 c-14 -22 -30 -41 -34 -43 -4 -3 -51 45 -106 106 -119 135 -317 309 -397 349 -49 25 -71 30 -130 30 -140 0 -210 -80 -231 -262 l-6 -57 -60 78 c-108 144 -218 223 -284 207 -63 -16 -111 -114 -121 -244 -3 -43 -8 -83 -10 -91 -2 -7 -35 33 -73 90 -87 130 -157 209 -214 239 -32 17 -48 33 -57 59 -25 71 -128 278 -180 361 -344 551 -881 910 -1525 1021 -139 24 -448 33 -584 18z m-5611 -1469 c251 -33 469 -139 570 -276 39 -54 78 -204 53 -204 -5 0 -84 -12 -178 -27 -141 -22 -204 -27 -370 -27 -132 0 -209 4 -227 11 -15 7 -52 46 -84 87 -31 42 -60 73 -65 70 -5 -3 -9 -32 -9 -65 l0 -59 -67 34 c-127 64 -203 145 -203 215 1 179 252 283 580 241z m3592 -51 c30 -37 46 -103 34 -134 -5 -14 -10 -12 -30 12 -27 32 -55 85 -66 124 -15 53 19 51 62 -2z m6055 -36 c31 -45 43 -81 43 -125 l0 -42 -30 29 c-36 34 -60 83 -60 122 0 51 19 57 47 16z m-6991 -9 c87 -58 238 -223 283 -310 20 -39 20 -42 5 -94 -20 -69 -69 -120 -114 -120 -26 0 -44 11 -94 63 -81 82 -142 199 -166 316 -32 156 -3 204 86 145z m5452 -207 c33 -56 80 -145 105 -197 40 -83 48 -110 62 -220 9 -69 27 -183 40 -255 13 -71 22 -131 20 -133 -2 -2 -76 -9 -165 -15 -160 -12 -161 -12 -156 8 18 76 30 227 30 390 0 230 -18 363 -80 600 -10 39 84 -77 144 -178z m-6815 -238 c43 -35 62 -68 72 -123 7 -35 6 -37 -12 -28 -50 27 -112 117 -113 165 0 24 10 22 53 -14z m7772 -50 c45 -41 69 -91 63 -131 -3 -21 -4 -21 -41 12 -39 34 -69 83 -81 133 -9 38 6 34 59 -14z m-8455 -17 c0 -35 -61 -140 -104 -180 -83 -77 -141 -96 -331 -112 -71 -5 -133 -14 -138 -19 -5 -5 25 -27 74 -52 46 -24 144 -83 217 -132 107 -71 164 -118 277 -231 151 -149 232 -250 322 -404 65 -111 93 -185 94 -252 2 -88 -51 -134 -153 -134 -122 1 -284 117 -423 302 -101 135 -176 291 -393 817 -96 233 -133 327 -130 330 2 1 64 7 138 14 74 7 221 26 325 41 237 34 225 34 225 12z m3000 -137 c0 -15 -38 -40 -47 -32 -2 3 3 17 12 31 17 26 35 27 35 1z m6030 -30 c0 -8 -9 -19 -19 -25 -30 -15 -33 -12 -15 15 18 28 34 33 34 10z m-7510 -326 c177 -244 367 -592 428 -785 74 -230 60 -344 -42 -344 -36 0 -46 6 -101 63 -73 75 -155 232 -210 402 -51 160 -120 440 -150 611 -14 82 -28 160 -30 174 l-6 25 21 -25 c11 -14 52 -68 90 -121z"/>
 </g>
<g id="layer102" fill="#e7d3d2" stroke="none">
 <path d="M6651 5029 c-141 -16 -329 -57 -471 -105 -596 -198 -1090 -658 -1334 -1242 l-27 -63 21 -28 c46 -66 63 -122 63 -211 -1 -50 -7 -102 -16 -126 l-15 -42 132 -71 c73 -39 136 -71 139 -71 3 0 81 -35 173 -79 93 -43 211 -97 261 -119 l93 -41 -14 32 c-7 18 -26 61 -41 97 -54 128 -108 226 -160 290 -118 146 -184 281 -206 422 -35 222 64 729 150 772 65 33 170 24 216 -17 13 -12 36 -56 52 -97 26 -71 28 -83 26 -224 -3 -172 0 -182 82 -258 73 -67 96 -117 96 -206 0 -39 -4 -80 -10 -91 -9 -17 -4 -32 31 -90 23 -39 71 -110 107 -158 76 -103 183 -255 259 -368 29 -44 93 -159 142 -257 l90 -176 47 -16 c149 -49 541 -126 656 -129 l58 -2 53 125 c29 69 74 175 100 235 48 110 209 568 247 700 11 39 24 119 29 178 6 60 17 136 25 170 27 107 107 252 227 412 140 186 228 280 275 296 43 14 108 8 154 -14 l34 -17 -40 36 c-319 283 -693 461 -1120 535 -139 24 -448 33 -584 18z"/>
 <path d="M8233 4413 c-12 -2 -41 -23 -64 -46 -42 -43 -129 -151 -129 -161 0 -3 12 -6 26 -6 62 0 124 -71 145 -167 17 -76 1 -185 -54 -358 -24 -77 -47 -157 -50 -179 -6 -37 -6 -38 13 -21 34 31 58 97 75 210 23 153 29 174 91 307 81 173 111 310 83 372 -16 34 -85 59 -136 49z"/>
 <path d="M8424 4395 c35 -68 15 -213 -50 -360 -85 -191 -93 -213 -113 -336 -12 -70 -28 -146 -37 -170 -15 -44 -15 -44 12 -64 235 -172 331 -275 459 -490 10 -17 13 -17 43 -1 39 20 39 26 6 169 -21 93 -25 130 -22 217 3 89 8 113 30 156 34 65 79 89 150 81 26 -3 48 -2 48 3 0 16 -78 189 -124 275 -89 168 -257 396 -376 510 -39 38 -40 38 -26 10z"/>
 <path d="M5426 4384 c-20 -19 -70 -183 -91 -293 -14 -80 -14 -88 5 -157 45 -164 113 -271 246 -388 110 -96 125 -98 182 -20 37 50 42 63 42 110 0 75 -12 98 -94 184 -92 96 -103 128 -87 257 12 99 6 153 -29 246 -16 42 -29 61 -47 68 -39 14 -110 11 -127 -7z"/>
 <path d="M7990 4133 c-19 -8 -26 -17 -98 -124 -74 -108 -117 -212 -138 -330 -14 -81 -15 -113 -5 -229 20 -240 -10 -428 -115 -730 -26 -74 -73 -192 -104 -262 l-58 -128 96 -1 c134 -2 396 2 400 6 18 17 26 184 26 565 1 389 3 439 18 470 9 19 24 73 32 120 8 47 32 141 54 210 48 149 64 248 51 315 -10 53 -41 110 -65 119 -19 7 -74 7 -94 -1z"/>
 <path d="M5305 3748 c15 -168 70 -296 190 -448 91 -114 171 -276 286 -578 120 -315 161 -526 194 -997 8 -121 20 -249 25 -285 25 -155 103 -401 184 -574 38 -82 39 -116 5 -116 -23 0 -56 63 -123 234 -97 243 -137 436 -156 746 -25 408 -70 653 -167 915 l-18 49 -230 98 c-257 110 -496 224 -599 286 -37 23 -71 42 -75 41 -3 0 -30 -34 -60 -76 -52 -73 -54 -77 -42 -107 48 -116 45 -186 -10 -229 l-30 -24 16 -123 c114 -881 712 -1585 1565 -1843 178 -54 337 -78 552 -84 264 -8 453 15 696 84 77 22 92 29 87 43 -24 76 -32 332 -14 487 23 207 58 301 259 683 54 104 110 248 110 286 0 12 -41 14 -267 14 l-268 0 -22 -53 c-100 -244 -126 -304 -166 -387 -58 -122 -130 -293 -218 -523 -39 -100 -78 -190 -86 -199 -24 -26 -84 -24 -110 5 -26 28 -84 143 -163 326 -87 201 -130 327 -199 578 -66 241 -107 364 -175 527 -101 240 -295 574 -443 764 -42 53 -80 106 -85 118 -8 17 -19 21 -50 21 -44 0 -66 14 -171 107 -82 72 -149 159 -189 244 -17 34 -32 62 -35 62 -3 0 -2 -33 2 -72z"/>
 <path d="M8927 3462 c-12 -13 -17 -36 -17 -73 0 -57 1 -60 56 -262 20 -71 33 -139 30 -151 -9 -37 -53 -73 -145 -119 -82 -42 -86 -45 -81 -73 19 -121 -32 -180 -131 -154 -59 16 -81 56 -77 141 3 62 8 74 53 135 11 15 -72 143 -157 240 -106 121 -298 271 -327 254 -79 -46 -87 -90 -71 -410 11 -223 6 -408 -16 -594 l-7 -56 49 0 c72 0 954 79 962 86 2 1 11 44 19 96 9 59 15 169 16 298 1 222 -12 349 -59 535 -30 120 -58 151 -97 107z"/>
 <path d="M8661 2751 c-16 -12 -22 -24 -18 -35 13 -34 57 -10 57 31 0 28 -7 28 -39 4z"/>
 <path d="M6556 2360 c28 -70 109 -329 134 -430 17 -69 63 -209 102 -312 l72 -188 21 68 c31 95 73 194 155 372 40 85 95 205 121 265 l49 110 -38 7 c-20 4 -111 19 -201 33 -90 14 -222 41 -293 59 -105 26 -127 29 -122 16z"/>
 <path d="M8680 2290 c-157 -16 -369 -34 -471 -41 l-186 -12 -26 -92 c-28 -101 -70 -192 -181 -400 -125 -231 -155 -328 -177 -563 -8 -89 -8 -160 0 -264 7 -78 14 -144 16 -146 6 -6 104 34 197 79 350 174 655 443 871 769 120 181 240 450 296 663 l9 37 -31 -1 c-18 -1 -160 -14 -317 -29z"/>
 </g>

</svg>