<!DOCTYPE svg PUBLIC "-//W3C//DTD SVG 20010904//EN" "http://www.w3.org/TR/2001/REC-SVG-20010904/DTD/svg10.dtd">
<svg version="1.0" xmlns="http://www.w3.org/2000/svg" width="1200px" height="575px" viewBox="0 0 12000 5750" preserveAspectRatio="xMidYMid meet">
<g id="layer101" fill="#ceb1b3" stroke="none">
 <path d="M6651 5029 c-750 -84 -1406 -540 -1739 -1208 -32 -64 -66 -135 -75 -158 l-17 -43 -35 25 c-53 35 -100 48 -162 43 -57 -5 -92 -25 -127 -72 -17 -22 -21 -42 -21 -99 1 -88 24 -138 97 -214 l51 -51 -38 -52 -37 -51 -42 68 c-113 184 -248 338 -333 382 -23 11 -66 24 -96 27 -50 6 -56 4 -86 -22 -28 -25 -33 -38 -41 -97 -4 -37 -6 -86 -2 -110 l5 -42 -73 78 c-177 189 -377 276 -460 200 -38 -36 -65 -134 -56 -205 l7 -49 -78 78 c-125 126 -224 183 -317 183 -59 0 -85 -11 -124 -51 -42 -43 -70 -133 -85 -273 l-12 -108 -41 63 c-122 191 -275 336 -400 379 -108 37 -190 23 -252 -44 -45 -49 -60 -90 -68 -186 -6 -57 11 -190 32 -266 5 -20 1 -22 -66 -28 -40 -4 -78 -10 -84 -12 -8 -3 -17 15 -25 53 -19 86 -81 210 -139 280 -114 136 -304 235 -545 285 -86 17 -126 19 -272 15 -193 -5 -248 -16 -371 -77 -292 -143 -280 -434 25 -638 48 -33 117 -70 153 -83 l65 -23 32 -135 c63 -269 106 -542 118 -742 8 -139 3 -159 -41 -159 -77 0 -224 128 -366 319 -67 90 -75 98 -78 73 -4 -41 44 -219 78 -288 63 -128 163 -219 281 -255 86 -26 141 -20 197 21 57 41 101 134 109 228 l6 72 42 -98 c63 -146 97 -209 174 -324 119 -179 247 -291 411 -363 92 -39 202 -45 283 -15 142 53 209 149 224 316 16 176 -167 496 -424 745 -93 90 -155 141 -245 201 l-68 45 75 37 c138 68 261 229 280 365 6 48 9 51 43 60 21 5 57 12 82 16 25 4 52 9 61 11 13 4 26 -14 53 -68 69 -140 166 -221 282 -234 40 -5 54 -2 75 14 45 36 63 137 34 205 -29 69 -108 137 -198 168 -48 17 -52 32 -52 179 0 98 3 120 20 150 18 30 27 35 64 38 34 3 52 -3 92 -28 64 -42 162 -148 236 -258 103 -151 120 -187 127 -277 32 -381 211 -1150 331 -1419 63 -142 101 -201 180 -282 61 -62 79 -74 139 -94 52 -17 83 -21 127 -17 144 13 198 107 186 322 -9 162 -67 338 -188 576 -102 200 -320 514 -466 670 -40 43 -43 49 -54 140 -17 127 -17 409 -1 481 19 81 49 122 93 126 29 2 45 -5 87 -39 77 -61 185 -197 238 -300 52 -101 120 -182 192 -228 103 -66 235 -89 309 -54 19 9 49 35 66 59 33 45 47 54 47 31 0 -43 109 -77 175 -55 53 17 55 37 11 181 -37 120 -76 297 -76 339 0 12 5 30 10 38 9 13 16 9 41 -20 36 -41 161 -230 208 -313 l33 -58 -26 -60 c-73 -169 20 -314 190 -296 30 3 54 4 54 2 0 -30 36 -260 50 -327 192 -861 898 -1535 1770 -1688 157 -28 450 -38 610 -21 130 14 268 41 395 77 50 14 101 27 114 29 13 1 26 7 30 12 3 5 33 20 66 33 310 122 631 358 863 635 169 202 316 469 397 718 25 77 45 145 45 152 0 8 4 17 10 20 15 9 364 34 371 26 3 -3 16 -53 29 -111 26 -120 98 -371 109 -382 4 -4 28 -12 54 -17 57 -10 118 3 143 31 16 17 16 24 6 61 -25 85 -90 343 -97 385 l-7 42 100 0 c433 0 1213 -162 1685 -349 105 -42 177 -66 262 -87 34 -9 -76 57 -160 96 -95 44 -468 185 -608 229 -414 132 -757 196 -1122 209 l-180 7 -28 145 c-73 382 -108 761 -74 805 15 19 17 19 58 -25 57 -61 184 -256 254 -390 94 -180 168 -247 287 -258 52 -4 62 -2 83 18 90 84 20 261 -138 350 -49 28 -54 34 -65 81 -19 80 -25 153 -18 203 7 46 7 46 48 46 76 0 259 -124 365 -247 63 -73 137 -199 130 -221 -3 -10 -13 -35 -21 -57 -8 -22 -15 -67 -16 -100 0 -84 22 -117 97 -145 51 -20 64 -21 113 -11 45 8 62 18 93 52 34 39 37 46 37 104 0 46 -6 74 -25 111 l-25 49 46 68 46 67 102 -54 c144 -77 304 -128 294 -93 -5 14 -257 188 -310 212 l-36 17 16 37 c11 25 16 68 16 142 1 100 0 108 -29 154 -45 72 -110 110 -191 110 -48 0 -69 -5 -91 -21 -109 -81 -108 -228 3 -342 l54 -56 -27 -38 c-14 -22 -30 -41 -34 -43 -4 -3 -51 45 -106 106 -119 135 -317 309 -397 349 -49 25 -71 30 -130 30 -140 0 -210 -80 -231 -262 l-6 -57 -60 78 c-108 144 -218 223 -284 207 -63 -16 -111 -114 -121 -244 -3 -43 -8 -83 -10 -91 -2 -7 -35 33 -73 90 -87 130 -157 209 -214 239 -32 17 -48 33 -57 59 -25 71 -128 278 -180 361 -344 550 -882 911 -1525 1021 -139 24 -449 33 -584 18z m-5611 -1469 c251 -33 469 -139 570 -276 39 -54 78 -204 53 -204 -5 0 -84 -12 -178 -27 -141 -22 -204 -27 -370 -27 -132 0 -209 4 -227 11 -15 7 -52 46 -84 87 -31 42 -60 73 -65 70 -5 -3 -9 -32 -9 -65 l0 -59 -67 34 c-127 64 -203 145 -203 215 1 179 252 283 580 241z m3592 -51 c30 -37 46 -103 34 -134 -5 -14 -10 -12 -30 12 -27 32 -55 85 -66 124 -15 53 19 51 62 -2z m6055 -36 c31 -45 43 -81 43 -125 l0 -42 -30 29 c-36 34 -60 83 -60 122 0 51 19 57 47 16z m-6991 -9 c87 -58 238 -223 283 -310 20 -39 20 -42 5 -94 -20 -69 -69 -120 -114 -120 -26 0 -44 11 -94 63 -81 82 -142 199 -166 316 -32 156 -3 204 86 145z m5452 -207 c33 -56 80 -145 105 -197 40 -83 48 -110 62 -220 9 -69 27 -183 40 -255 13 -71 22 -131 20 -133 -2 -2 -76 -9 -165 -15 -160 -12 -161 -12 -156 8 34 141 41 509 12 695 -14 97 -33 185 -62 295 -10 39 84 -77 144 -178z m-6815 -238 c43 -35 62 -68 72 -123 7 -35 6 -37 -12 -28 -50 27 -112 117 -113 165 0 24 10 22 53 -14z m7772 -50 c45 -41 69 -91 63 -131 -3 -21 -4 -21 -41 12 -39 34 -69 83 -81 133 -9 38 6 34 59 -14z m-8455 -17 c0 -35 -61 -140 -104 -180 -83 -77 -141 -96 -331 -112 -71 -5 -133 -14 -138 -19 -5 -5 25 -27 74 -52 46 -24 144 -83 217 -132 107 -71 164 -118 277 -231 151 -149 232 -250 322 -404 65 -111 93 -185 94 -252 2 -88 -51 -134 -153 -134 -122 1 -284 117 -423 302 -101 135 -176 291 -393 817 -96 233 -133 327 -130 330 2 1 64 7 138 14 74 7 221 26 325 41 237 34 225 34 225 12z m3000 -137 c0 -15 -38 -40 -47 -32 -2 3 3 17 12 31 17 26 35 27 35 1z m6030 -30 c0 -8 -9 -19 -19 -25 -30 -15 -33 -12 -15 15 18 28 34 33 34 10z m-7510 -326 c177 -244 367 -592 428 -785 74 -230 60 -344 -42 -344 -36 0 -46 6 -101 63 -73 75 -155 232 -210 402 -51 160 -120 440 -150 611 -14 82 -28 160 -30 174 l-6 25 21 -25 c11 -14 52 -68 90 -121z"/>
 </g>
<g id="layer102" fill="#ffffff" stroke="none">
 <path d="M8204 4470 c-70 -22 -347 -370 -434 -545 -59 -119 -77 -187 -90 -332 -5 -59 -18 -139 -29 -178 -38 -132 -199 -590 -247 -700 -26 -60 -71 -166 -100 -235 l-53 -125 -58 2 c-115 3 -507 80 -656 129 l-47 16 -89 176 c-50 98 -114 213 -144 257 -87 129 -188 274 -258 368 -36 48 -84 119 -107 158 -35 58 -40 73 -31 90 6 11 10 52 10 91 0 89 -23 139 -96 206 -82 76 -85 86 -82 258 2 142 0 153 -27 224 -15 41 -35 83 -43 92 -36 40 -162 54 -219 25 -37 -19 -63 -75 -99 -209 -54 -207 -77 -437 -55 -568 24 -145 87 -275 205 -420 52 -64 106 -162 160 -290 15 -36 34 -79 41 -97 l14 -32 -93 41 c-50 22 -168 76 -261 119 -92 44 -170 79 -173 79 -3 0 -66 32 -139 71 l-132 71 15 42 c9 24 15 76 16 126 0 96 -24 167 -82 232 -66 75 -211 102 -278 52 -55 -41 -68 -70 -68 -147 1 -88 24 -138 97 -214 l51 -51 -38 -52 -37 -51 -42 68 c-113 184 -248 338 -333 382 -23 11 -66 24 -96 27 -50 6 -56 4 -86 -22 -28 -25 -33 -38 -41 -97 -4 -37 -6 -86 -2 -110 l5 -42 -73 78 c-177 189 -377 276 -460 200 -38 -36 -65 -134 -56 -205 l7 -49 -78 78 c-125 126 -224 183 -317 183 -59 0 -85 -11 -124 -51 -42 -43 -70 -133 -85 -273 l-12 -108 -41 63 c-122 191 -275 336 -400 379 -108 37 -190 23 -252 -44 -45 -49 -60 -90 -68 -186 -6 -57 11 -190 32 -266 5 -20 1 -22 -66 -28 -40 -4 -78 -10 -84 -12 -8 -3 -17 15 -25 53 -19 86 -81 210 -139 280 -114 136 -304 235 -545 285 -86 17 -126 19 -272 15 -193 -5 -248 -16 -371 -77 -292 -143 -280 -434 25 -638 48 -33 117 -70 153 -83 l65 -23 32 -135 c63 -269 106 -542 118 -742 8 -139 3 -159 -41 -159 -77 0 -224 128 -366 319 -67 90 -75 98 -78 73 -4 -41 44 -219 78 -288 63 -128 163 -219 281 -255 86 -26 141 -20 197 21 57 41 101 134 109 228 l6 72 42 -98 c63 -146 97 -209 174 -324 119 -179 247 -291 411 -363 92 -39 202 -45 283 -15 142 53 209 149 224 316 16 176 -167 496 -424 745 -93 90 -155 141 -245 201 l-68 45 75 37 c138 68 261 229 280 365 6 48 9 51 43 60 21 5 57 12 82 16 25 4 52 9 61 11 13 4 26 -14 53 -68 69 -140 166 -221 282 -234 40 -5 54 -2 75 14 45 36 63 137 34 205 -29 69 -108 137 -198 168 -48 17 -52 32 -52 179 0 98 3 120 20 150 18 30 27 35 64 38 34 3 52 -3 92 -28 64 -42 162 -148 236 -258 103 -151 120 -187 127 -277 32 -381 211 -1150 331 -1419 63 -142 101 -201 180 -282 61 -62 79 -74 139 -94 52 -17 83 -21 127 -17 144 13 198 107 186 322 -9 162 -67 338 -188 576 -102 200 -320 514 -466 670 -40 43 -43 49 -54 140 -17 127 -17 409 -1 481 19 81 49 122 93 126 29 2 45 -5 87 -39 77 -61 185 -197 238 -300 52 -101 120 -182 192 -228 103 -66 235 -89 309 -54 19 9 49 35 66 59 33 45 47 54 47 31 0 -43 109 -77 175 -55 53 17 55 37 11 181 -37 120 -76 297 -76 339 0 12 5 30 10 38 9 13 16 9 41 -20 36 -41 161 -230 208 -313 l33 -58 -26 -60 c-42 -97 -30 -196 31 -251 51 -46 147 -61 208 -32 87 41 100 116 44 250 -12 30 -10 34 42 107 30 42 57 76 60 76 4 1 38 -18 75 -41 104 -63 344 -178 600 -286 l229 -98 18 -49 c97 -261 142 -505 167 -910 23 -370 77 -590 221 -902 38 -83 55 -97 79 -68 10 12 4 34 -33 117 -63 141 -102 250 -137 382 -40 150 -47 205 -65 461 -33 471 -74 682 -194 997 -113 297 -195 464 -280 571 -123 155 -174 265 -192 422 -6 53 -9 98 -6 101 2 3 18 -23 34 -58 41 -85 108 -171 190 -244 106 -94 126 -106 171 -106 31 1 41 -4 49 -21 6 -13 46 -67 89 -122 151 -194 348 -537 450 -786 67 -162 97 -255 165 -502 69 -251 112 -378 199 -578 79 -183 137 -298 163 -327 26 -28 86 -30 110 -4 8 9 51 109 95 222 88 227 174 431 223 530 18 36 53 117 79 180 26 63 58 141 71 172 l24 58 268 0 c226 0 267 -2 267 -14 0 -38 -56 -182 -110 -286 -147 -280 -200 -397 -224 -491 -44 -173 -57 -393 -36 -584 11 -94 24 -120 54 -109 16 6 16 17 9 113 -18 243 1 474 53 630 14 42 62 146 107 231 134 254 166 324 194 423 l26 94 116 7 c64 4 289 22 501 41 504 46 754 64 761 56 3 -3 16 -53 29 -111 26 -120 98 -371 109 -382 4 -4 28 -12 54 -17 57 -10 118 3 143 31 16 17 16 24 6 61 -25 85 -90 343 -97 385 l-7 42 100 0 c433 0 1213 -162 1685 -349 105 -42 177 -66 262 -87 34 -9 -76 57 -160 96 -95 44 -468 185 -608 229 -414 132 -757 196 -1122 209 l-180 7 -28 145 c-73 382 -108 761 -74 805 15 19 17 19 58 -25 57 -61 184 -256 254 -390 94 -180 168 -247 287 -258 52 -4 62 -2 83 18 90 84 20 261 -138 350 -49 28 -54 34 -65 81 -19 80 -25 153 -18 203 7 46 7 46 48 46 76 0 259 -124 365 -247 63 -73 137 -199 130 -221 -3 -10 -13 -35 -21 -57 -8 -22 -15 -67 -16 -100 0 -84 22 -117 97 -145 51 -20 64 -21 113 -11 45 8 62 18 93 52 34 39 37 46 37 104 0 46 -6 74 -25 111 l-25 49 46 68 46 67 102 -54 c144 -77 304 -128 294 -93 -5 14 -257 188 -310 212 l-36 17 16 37 c11 25 16 68 16 142 1 100 0 108 -29 154 -45 72 -110 110 -191 110 -48 0 -69 -5 -91 -21 -109 -81 -108 -228 3 -342 l54 -56 -27 -38 c-14 -22 -30 -41 -34 -43 -4 -3 -51 45 -106 106 -119 135 -317 309 -397 349 -49 25 -71 30 -130 30 -140 0 -210 -80 -231 -262 l-6 -57 -60 78 c-108 144 -218 223 -284 207 -63 -16 -111 -114 -121 -244 -3 -43 -8 -83 -10 -91 -2 -7 -35 33 -73 90 -127 191 -198 253 -302 265 -79 9 -122 -13 -157 -80 -22 -43 -27 -67 -30 -156 -3 -87 1 -124 22 -217 33 -143 33 -149 -6 -169 -30 -16 -33 -16 -43 1 -128 215 -224 318 -459 490 l-27 20 16 45 c8 24 25 100 36 169 12 78 30 149 48 190 16 36 45 102 65 146 67 152 86 293 48 365 -33 60 -138 94 -218 70z m127 -71 c77 -30 60 -182 -45 -407 -59 -125 -66 -149 -91 -312 -17 -108 -41 -174 -75 -205 -19 -17 -19 -16 -13 21 3 22 26 102 50 179 55 173 71 282 54 358 -21 96 -83 167 -145 167 -14 0 -26 3 -26 6 0 10 87 118 129 161 54 54 89 61 162 32z m-2778 -8 c18 -7 31 -26 47 -68 35 -93 41 -147 29 -246 -16 -129 -5 -161 87 -257 82 -86 94 -109 94 -184 0 -47 -5 -60 -42 -110 -57 -78 -72 -76 -182 20 -133 117 -201 224 -246 388 -19 69 -19 77 -5 157 21 110 71 274 91 293 17 18 88 21 127 7z m2531 -257 c23 -9 53 -63 66 -117 14 -64 -2 -159 -52 -317 -22 -69 -46 -163 -54 -210 -8 -47 -23 -101 -32 -120 -15 -31 -17 -81 -18 -470 0 -381 -8 -548 -26 -565 -4 -4 -266 -8 -400 -6 l-96 1 58 128 c31 70 78 188 104 262 105 302 135 490 115 730 -10 116 -9 148 5 229 21 118 64 222 138 330 72 107 79 116 98 124 20 8 75 8 94 1z m-7044 -574 c251 -33 469 -139 570 -276 39 -54 78 -204 53 -204 -5 0 -84 -12 -178 -27 -141 -22 -204 -27 -370 -27 -132 0 -209 4 -227 11 -15 7 -52 46 -84 87 -31 42 -60 73 -65 70 -5 -3 -9 -32 -9 -65 l0 -59 -67 34 c-127 64 -203 145 -203 215 1 179 252 283 580 241z m3592 -51 c30 -37 46 -103 34 -134 -5 -14 -10 -12 -30 12 -27 32 -55 85 -66 124 -15 53 19 51 62 -2z m6055 -36 c31 -45 43 -81 43 -125 l0 -42 -30 29 c-36 34 -60 83 -60 122 0 51 19 57 47 16z m-6991 -9 c87 -58 238 -223 283 -310 20 -39 20 -42 5 -94 -20 -69 -69 -120 -114 -120 -26 0 -44 11 -94 63 -81 82 -142 199 -166 316 -32 156 -3 204 86 145z m5315 -21 c56 -51 144 -187 222 -345 64 -128 67 -138 82 -258 9 -69 27 -183 40 -255 13 -71 23 -131 21 -133 -2 -2 -84 -9 -182 -17 -99 -8 -296 -25 -439 -39 -344 -33 -615 -56 -672 -56 l-46 0 7 58 c21 180 26 378 15 592 -16 315 -7 364 72 410 29 17 221 -133 327 -254 85 -97 168 -225 157 -240 -45 -61 -50 -73 -53 -135 -4 -85 18 -125 77 -141 99 -26 150 33 131 154 -5 28 -1 31 81 73 92 46 136 82 145 119 3 13 -8 73 -26 136 -66 228 -76 314 -43 350 23 26 38 23 84 -19z m-6678 -424 c43 -35 62 -68 72 -123 7 -35 6 -37 -12 -28 -50 27 -112 117 -113 165 0 24 10 22 53 -14z m7772 -50 c45 -41 69 -91 63 -131 -3 -21 -4 -21 -41 12 -39 34 -69 83 -81 133 -9 38 6 34 59 -14z m-8455 -17 c0 -35 -61 -140 -104 -180 -83 -77 -141 -96 -331 -112 -71 -5 -133 -14 -138 -19 -5 -5 25 -27 74 -52 46 -24 144 -83 217 -132 107 -71 164 -118 277 -231 151 -149 232 -250 322 -404 65 -111 93 -185 94 -252 2 -88 -51 -134 -153 -134 -122 1 -284 117 -423 302 -101 135 -176 291 -393 817 -96 233 -133 327 -130 330 2 1 64 7 138 14 74 7 221 26 325 41 237 34 225 34 225 12z m3000 -137 c0 -15 -38 -40 -47 -32 -2 3 3 17 12 31 17 26 35 27 35 1z m6030 -30 c0 -8 -9 -19 -19 -25 -30 -15 -33 -12 -15 15 18 28 34 33 34 10z m-1980 -38 c0 -41 -44 -65 -57 -31 -4 11 2 23 18 35 32 24 39 24 39 -4z m-5530 -288 c177 -244 367 -592 428 -785 74 -230 60 -344 -42 -344 -36 0 -46 6 -101 63 -73 75 -155 232 -210 402 -51 160 -120 440 -150 611 -14 82 -28 160 -30 174 l-6 25 21 -25 c11 -14 52 -68 90 -121z m3790 -173 c85 -13 176 -27 202 -31 l47 -6 -20 -52 c-11 -29 -52 -119 -91 -202 -102 -217 -176 -388 -207 -482 l-28 -81 -71 186 c-39 103 -85 243 -102 312 -25 101 -106 360 -134 430 -5 13 17 10 122 -16 70 -18 197 -44 282 -58z"/>
 </g>

</svg>