<?xml version="1.0" encoding="UTF-8" standalone="no"?>
<svg
   xmlns:dc="http://purl.org/dc/elements/1.1/"
   xmlns:cc="http://creativecommons.org/ns#"
   xmlns:rdf="http://www.w3.org/1999/02/22-rdf-syntax-ns#"
   xmlns:svg="http://www.w3.org/2000/svg"
   xmlns="http://www.w3.org/2000/svg"
   xmlns:sodipodi="http://sodipodi.sourceforge.net/DTD/sodipodi-0.dtd"
   xmlns:inkscape="http://www.inkscape.org/namespaces/inkscape"
   version="1.0"
   width="707px"
   height="608px"
   viewBox="0 0 7070 6080"
   preserveAspectRatio="xMidYMid meet"
   id="svg4071"
   sodipodi:docname="Logo01-1.svg"
   inkscape:version="0.92.4 (5da689c313, 2019-01-14)">
  <metadata
     id="metadata4077">
    <rdf:RDF>
      <cc:Work
         rdf:about="">
        <dc:format>image/svg+xml</dc:format>
        <dc:type
           rdf:resource="http://purl.org/dc/dcmitype/StillImage" />
        <dc:title></dc:title>
      </cc:Work>
    </rdf:RDF>
  </metadata>
  <defs
     id="defs4075" />
  <sodipodi:namedview
     pagecolor="#ffffff"
     bordercolor="#666666"
     borderopacity="1"
     objecttolerance="10"
     gridtolerance="10"
     guidetolerance="10"
     inkscape:pageopacity="0"
     inkscape:pageshadow="2"
     inkscape:window-width="1920"
     inkscape:window-height="1001"
     id="namedview4073"
     showgrid="false"
     inkscape:zoom="1.3289474"
     inkscape:cx="220.087"
     inkscape:cy="413.25625"
     inkscape:window-x="-9"
     inkscape:window-y="-9"
     inkscape:window-maximized="1"
     inkscape:current-layer="svg4071" />
  <path
     style="fill:#211915;stroke:none"
     inkscape:connector-curvature="0"
     id="path3896"
     d="m 6315,5850 c -13,-20 7,-31 44,-25 27,4 41,2 50,-9 15,-18 -1,-30 -32,-22 -31,7 -56,-9 -39,-26 16,-16 15,-28 -2,-28 -21,0 -74,-48 -93,-83 -23,-46 -20,-145 6,-201 30,-62 72,-86 148,-86 70,0 106,22 129,76 19,45 18,54 -6,54 -11,0 -20,-6 -20,-14 0,-26 -50,-75 -84,-81 -104,-20 -185,106 -141,220 22,58 56,85 109,85 55,0 103,-30 114,-72 10,-40 42,-52 42,-15 0,36 -40,90 -83,111 -34,16 -36,19 -21,30 19,15 22,60 4,81 -14,17 -115,21 -125,5 z" />
  <path
     style="fill:#211915;stroke:none"
     inkscape:connector-curvature="0"
     id="path3898"
     d="m 292,5729 c -80,-40 -122,-123 -122,-243 0,-55 6,-83 26,-126 31,-67 48,-86 99,-113 51,-26 165,-29 210,-5 76,41 139,158 85,158 -12,0 -20,-7 -20,-16 0,-57 -90,-124 -167,-124 -123,0 -222,141 -194,279 12,61 48,122 86,147 66,43 164,37 218,-14 34,-31 67,-92 67,-122 0,-13 7,-20 20,-20 62,0 -27,173 -107,206 -50,22 -150,18 -201,-7 z" />
  <path
     style="fill:#211915;stroke:none"
     inkscape:connector-curvature="0"
     id="path3900"
     d="m 745,5737 c -111,-52 -129,-246 -31,-337 39,-35 140,-41 190,-11 99,62 102,263 4,335 -34,25 -122,31 -163,13 z m 150,-60 c 78,-78 60,-225 -32,-264 -89,-37 -173,33 -173,145 0,94 49,152 127,152 38,0 51,-6 78,-33 z" />
  <path
     style="fill:#211915;stroke:none"
     inkscape:connector-curvature="0"
     id="path3902"
     d="m 1403,5734 c -54,-27 -88,-134 -43,-134 15,0 20,7 20,26 0,15 12,38 29,55 25,24 37,29 81,29 41,0 56,-5 75,-25 52,-51 24,-87 -92,-116 -111,-27 -144,-71 -111,-144 17,-37 58,-55 125,-55 68,0 99,17 119,66 19,46 18,64 -6,64 -13,0 -20,-7 -20,-19 0,-35 -41,-72 -85,-77 -50,-6 -86,12 -100,50 -13,38 13,58 105,81 38,9 81,26 94,36 53,42 37,137 -28,164 -46,19 -123,19 -163,-1 z" />
  <path
     style="fill:#211915;stroke:none"
     inkscape:connector-curvature="0"
     id="path3904"
     d="m 1740,5732 c -52,-26 -80,-82 -80,-165 0,-82 15,-122 64,-165 32,-28 44,-32 94,-32 40,0 67,6 90,20 39,24 71,89 72,143 v 37 h -146 c -134,0 -145,1 -140,18 3,9 8,29 12,45 10,45 58,77 113,77 58,0 94,-24 112,-75 9,-23 19,-35 32,-35 41,0 -8,102 -63,131 -44,24 -114,24 -160,1 z m 197,-228 c -12,-75 -91,-119 -159,-91 -39,17 -63,46 -78,96 l -9,31 h 126 126 z" />
  <path
     style="fill:#211915;stroke:none"
     inkscape:connector-curvature="0"
     id="path3906"
     d="m 2593,5735 c -17,-9 -37,-30 -43,-46 -14,-33 -8,-93 12,-116 19,-24 72,-43 116,-43 97,0 126,-20 110,-77 -10,-37 -59,-59 -108,-48 -31,7 -80,56 -80,81 0,8 -9,14 -20,14 -24,0 -25,-9 -6,-54 23,-55 59,-76 133,-76 58,0 68,3 94,29 l 29,29 v 136 c 0,129 1,136 20,136 23,0 26,10 8,28 -19,19 -49,14 -55,-8 -5,-19 -6,-19 -36,2 -40,29 -129,35 -174,13 z m 151,-46 c 33,-26 42,-43 50,-95 l 7,-40 -90,11 c -101,12 -131,30 -131,77 0,15 9,37 20,48 28,28 108,28 144,-1 z" />
  <path
     style="fill:#211915;stroke:none"
     inkscape:connector-curvature="0"
     id="path3908"
     d="m 3131,5728 c -61,-41 -76,-71 -79,-158 -4,-68 -1,-84 19,-120 32,-56 73,-80 141,-80 105,0 163,66 163,185 0,123 -50,186 -154,193 -46,3 -62,0 -90,-20 z m 158,-43 c 38,-32 55,-83 49,-147 -6,-59 -31,-96 -82,-122 -133,-66 -237,145 -126,256 32,33 44,38 83,38 34,0 53,-6 76,-25 z" />
  <path
     style="fill:#211915;stroke:none"
     inkscape:connector-curvature="0"
     id="path3910"
     d="m 3773,5735 c -105,-45 -124,-242 -33,-330 26,-25 41,-30 95,-33 81,-5 123,18 155,84 18,37 21,58 18,118 -3,62 -8,79 -32,110 -47,62 -130,83 -203,51 z m 150,-55 c 83,-72 66,-227 -29,-266 -114,-48 -214,90 -160,220 33,79 126,102 189,46 z" />
  <path
     style="fill:#211915;stroke:none"
     inkscape:connector-curvature="0"
     id="path3912"
     d="m 4310,5733 c -97,-50 -116,-233 -35,-322 33,-35 35,-36 108,-36 66,0 79,3 101,24 l 26,24 v -91 c 0,-87 1,-92 21,-92 21,0 21,2 17,193 -3,179 -5,195 -26,232 -13,22 -35,49 -49,59 -37,28 -119,32 -163,9 z m 139,-39 c 30,-22 61,-89 61,-136 0,-111 -87,-184 -172,-144 -90,43 -102,212 -21,276 32,25 99,27 132,4 z" />
  <path
     style="fill:#211915;stroke:none"
     inkscape:connector-curvature="0"
     id="path3914"
     d="m 4660,5727 c -54,-35 -74,-80 -75,-162 0,-125 58,-195 162,-195 93,0 145,50 160,155 l 6,45 h -147 c -163,0 -159,-2 -130,70 39,98 178,94 220,-7 8,-18 22,-33 30,-33 24,0 11,66 -18,98 -51,55 -150,69 -208,29 z m 206,-219 c -9,-48 -38,-81 -83,-97 -36,-13 -43,-12 -78,5 -43,21 -71,55 -81,97 l -6,27 h 127 128 z" />
  <path
     style="fill:#211915;stroke:none"
     inkscape:connector-curvature="0"
     id="path3916"
     d="m 5618,5735 c -15,-8 -32,-24 -38,-35 -13,-25 -13,-96 1,-122 15,-28 69,-48 131,-49 83,-2 103,-10 106,-45 5,-48 -27,-79 -80,-79 -55,0 -97,26 -105,65 -4,21 -11,30 -24,30 -41,0 -10,-89 41,-115 33,-17 116,-20 155,-5 42,16 55,63 55,200 0,102 2,120 16,120 28,0 11,35 -19,38 -22,3 -30,-1 -34,-17 -5,-20 -5,-20 -34,1 -38,28 -132,35 -171,13 z m 140,-39 c 34,-18 62,-66 62,-106 v -36 l -91,12 c -57,7 -96,17 -106,27 -24,24 -21,77 6,99 27,21 94,24 129,4 z" />
  <path
     style="fill:#211915;stroke:none"
     inkscape:connector-curvature="0"
     id="path3918"
     d="m 6610,5728 c -31,-21 -35,-29 -38,-76 -2,-28 2,-61 8,-73 16,-29 69,-49 132,-49 92,0 130,-39 94,-95 -36,-55 -144,-36 -171,30 -17,39 -45,47 -45,13 0,-33 36,-87 66,-98 38,-15 121,-12 154,5 39,20 50,64 50,203 0,93 3,112 15,112 18,0 19,12 3,28 -18,18 -49,14 -55,-8 -5,-19 -6,-19 -34,2 -19,15 -48,23 -86,26 -49,3 -64,0 -93,-20 z m 166,-51 c 28,-26 37,-42 41,-78 l 5,-45 -93,12 c -76,9 -96,15 -111,34 -23,29 -23,51 3,84 17,22 28,26 70,26 42,0 55,-5 85,-33 z" />
  <path
     style="fill:#211915;stroke:none"
     inkscape:connector-curvature="0"
     id="path3920"
     d="m 1020,5555 c 0,-178 1,-185 20,-185 14,0 20,7 20,21 v 20 l 26,-20 c 20,-16 41,-21 86,-21 55,0 63,3 94,34 l 34,34 v 151 c 0,128 -2,151 -15,151 -13,0 -15,-21 -15,-130 0,-155 -10,-183 -69,-201 -32,-9 -44,-9 -74,6 -55,26 -67,62 -67,204 0,114 -1,121 -20,121 -19,0 -20,-7 -20,-185 z" />
  <path
     style="fill:#211915;stroke:none"
     inkscape:connector-curvature="0"
     id="path3922"
     d="m 2020,5555 c 0,-158 2,-185 15,-185 9,0 15,10 15,26 v 26 l 31,-26 c 21,-18 42,-26 70,-26 54,0 50,21 -8,40 -72,23 -86,55 -91,207 -4,96 -7,123 -18,123 -11,0 -14,-34 -14,-185 z" />
  <path
     style="fill:#211915;stroke:none"
     inkscape:connector-curvature="0"
     id="path3924"
     d="m 2341,5718 c -5,-13 -39,-94 -75,-182 -36,-87 -66,-160 -66,-163 0,-2 10,-3 22,-1 18,2 32,29 84,157 l 61,154 30,-79 c 17,-43 43,-114 59,-156 21,-57 33,-78 46,-78 10,0 18,4 18,10 0,5 -30,88 -66,185 -54,141 -70,175 -86,175 -10,0 -22,-10 -27,-22 z" />
  <path
     style="fill:#211915;stroke:none"
     inkscape:connector-curvature="0"
     id="path3926"
     d="m 2944,5726 c -17,-13 -19,-30 -22,-165 l -4,-151 h -29 c -22,0 -29,-5 -29,-20 0,-16 7,-20 30,-20 29,0 30,-1 30,-49 0,-45 10,-61 36,-61 2,0 4,25 4,55 v 55 h 40 c 33,0 40,3 40,20 0,17 -7,20 -40,20 h -40 v 140 c 0,125 2,140 18,149 10,6 28,7 40,4 18,-4 22,-1 22,16 0,18 -6,21 -38,21 -21,0 -47,-6 -58,-14 z" />
  <path
     style="fill:#211915;stroke:none"
     inkscape:connector-curvature="0"
     id="path3928"
     d="m 3410,5555 c 0,-178 1,-185 20,-185 14,0 20,7 20,22 0,20 1,21 20,3 27,-24 120,-34 120,-12 0,9 -14,17 -37,22 -82,15 -103,58 -103,215 0,113 -1,120 -20,120 -19,0 -20,-7 -20,-185 z" />
  <path
     style="fill:#211915;stroke:none"
     inkscape:connector-curvature="0"
     id="path3930"
     d="m 3600,5555 c 0,-178 1,-185 20,-185 19,0 20,7 20,185 0,178 -1,185 -20,185 -19,0 -20,-7 -20,-185 z" />
  <path
     style="fill:#211915;stroke:none"
     inkscape:connector-curvature="0"
     id="path3932"
     d="m 5140,5491 v -251 l 26,-6 c 15,-4 71,-4 125,-1 150,9 203,44 235,155 37,127 -1,262 -91,317 -46,28 -55,30 -172,33 l -123,4 z m 259,190 c 63,-32 93,-86 99,-175 10,-166 -57,-235 -230,-236 h -88 v 221 222 l 89,-6 c 61,-4 102,-12 130,-26 z" />
  <path
     style="fill:#211915;stroke:none"
     inkscape:connector-curvature="0"
     id="path3934"
     d="m 5910,5555 c 0,-178 1,-185 20,-185 14,0 20,7 20,21 v 20 l 26,-20 c 20,-16 41,-21 85,-21 50,0 63,4 89,28 40,35 49,78 50,225 0,110 -1,117 -20,117 -19,0 -20,-7 -20,-130 0,-155 -10,-183 -69,-201 -32,-9 -44,-9 -74,6 -55,26 -67,62 -67,204 0,114 -1,121 -20,121 -19,0 -20,-7 -20,-185 z" />
  <path
     style="fill:#211915;stroke:none"
     inkscape:connector-curvature="0"
     id="path3936"
     d="m 3171,5343 c 40,-54 95,-103 116,-103 13,0 23,4 23,9 0,17 -113,111 -133,111 -17,0 -18,-2 -6,-17 z" />
  <path
     style="fill:#211915;stroke:none"
     inkscape:connector-curvature="0"
     id="path3938"
     d="m 3600,5285 c 0,-38 3,-45 20,-45 17,0 20,7 20,45 0,38 -3,45 -20,45 -17,0 -20,-7 -20,-45 z" />
  <path
     style="fill:#211915;stroke:none"
     inkscape:connector-curvature="0"
     id="path3940"
     d="m 1952,4659 3,-254 h 142 c 128,0 144,2 170,21 58,43 67,140 19,189 l -22,22 33,36 c 29,32 33,44 33,91 0,39 -6,60 -21,80 -39,50 -73,60 -222,64 l -137,4 z m 257,205 c 37,-8 77,-45 83,-78 3,-13 0,-39 -6,-57 -17,-54 -60,-69 -188,-69 h -108 v 105 105 h 94 c 51,0 107,-3 125,-6 z m 42,-273 c 38,-39 39,-83 1,-120 -25,-26 -35,-28 -136,-34 -59,-4 -112,-4 -117,-1 -5,3 -9,45 -9,95 v 89 h 116 c 114,0 116,0 145,-29 z" />
  <path
     style="fill:#211915;stroke:none"
     inkscape:connector-curvature="0"
     id="path3942"
     d="m 2438,4894 c -75,-40 -100,-203 -44,-286 38,-57 83,-80 144,-76 87,7 137,60 149,157 l 6,51 h -148 -147 l 6,31 c 25,127 196,145 236,24 14,-41 40,-47 40,-10 0,39 -27,83 -63,105 -39,24 -139,26 -179,4 z m 212,-210 c 0,-31 -33,-85 -61,-99 -78,-41 -154,-2 -183,93 l -7,22 h 125 c 109,0 126,-2 126,-16 z" />
  <path
     style="fill:#211915;stroke:none"
     inkscape:connector-curvature="0"
     id="path3944"
     d="m 2730,4655 c 0,-220 2,-255 15,-255 13,0 15,35 15,255 0,220 -2,255 -15,255 -13,0 -15,-35 -15,-255 z" />
  <path
     style="fill:#211915;stroke:none"
     inkscape:connector-curvature="0"
     id="path3946"
     d="m 2850,4897 c -50,-25 -65,-98 -31,-154 16,-25 30,-33 71,-42 28,-6 70,-11 93,-11 55,0 70,-11 69,-50 -1,-48 -27,-70 -82,-70 -56,0 -95,26 -105,70 -5,21 -13,30 -27,30 -17,0 -19,-4 -13,-32 10,-48 32,-78 70,-94 73,-30 166,-9 185,42 6,14 10,84 10,155 0,127 0,129 22,129 h 22 l -20,20 c -24,24 -54,18 -54,-11 0,-17 -3,-16 -36,6 -29,19 -50,25 -93,25 -31,0 -67,-6 -81,-13 z m 149,-39 c 25,-16 48,-56 56,-100 l 7,-37 -79,6 c -43,3 -88,10 -101,14 -52,19 -53,100 -2,127 27,14 89,9 119,-10 z" />
  <path
     style="fill:#211915;stroke:none"
     inkscape:connector-curvature="0"
     id="path3948"
     d="m 3204,4900 c -34,-13 -64,-59 -64,-96 0,-42 27,-47 36,-6 15,61 78,93 145,73 37,-11 69,-43 69,-68 0,-26 -44,-51 -125,-73 -95,-25 -115,-42 -115,-101 0,-70 67,-109 163,-96 52,7 97,52 97,97 0,37 -25,41 -34,5 -11,-44 -41,-65 -94,-65 -60,0 -92,21 -92,60 0,35 15,44 114,72 89,24 116,48 116,100 0,50 -13,74 -50,93 -31,16 -131,19 -166,5 z" />
  <path
     style="fill:#211915;stroke:none"
     inkscape:connector-curvature="0"
     id="path3950"
     d="m 3640,4897 c 0,-7 44,-120 98,-252 78,-192 101,-241 117,-243 18,-2 33,29 118,245 53,136 97,251 97,256 0,4 -8,7 -18,7 -14,0 -27,-20 -49,-77 l -30,-78 h -118 -117 l -32,77 c -22,55 -36,78 -48,78 -10,0 -18,-6 -18,-13 z m 308,-199 c -3,-7 -25,-64 -48,-126 l -43,-113 -44,107 c -23,59 -45,116 -49,126 -5,17 2,18 91,18 74,0 96,-3 93,-12 z" />
  <path
     style="fill:#211915;stroke:none"
     inkscape:connector-curvature="0"
     id="path3952"
     d="m 4100,4725 c 0,-178 1,-185 20,-185 11,0 20,6 20,14 0,11 8,10 38,-6 30,-15 48,-18 94,-13 l 57,7 3,-53 c 4,-75 28,-79 28,-5 v 56 h 40 c 29,0 40,4 40,15 0,11 -11,15 -40,15 h -40 l 1,123 c 1,156 5,171 47,175 19,2 32,9 32,17 0,32 -82,28 -100,-5 -6,-10 -10,-84 -10,-164 v -146 h -60 c -52,0 -64,4 -92,29 l -33,29 -3,141 c -3,131 -5,141 -23,141 -18,0 -19,-9 -19,-185 z" />
  <path
     style="fill:#211915;stroke:none"
     inkscape:connector-curvature="0"
     id="path3954"
     d="m 4545,4901 c -106,-46 -114,-271 -13,-345 39,-28 123,-32 168,-8 44,23 80,91 80,149 v 43 h -141 -142 l 6,37 c 4,22 19,49 37,68 26,25 38,30 80,30 40,0 54,-5 79,-29 16,-16 33,-42 36,-57 5,-20 13,-29 26,-29 22,0 24,19 5,63 -25,60 -59,81 -134,84 -37,2 -76,-1 -87,-6 z m 195,-230 c -20,-72 -54,-101 -116,-101 -47,0 -86,25 -109,70 -30,58 -27,60 109,60 h 125 z" />
  <path
     style="fill:#211915;stroke:none"
     inkscape:connector-curvature="0"
     id="path3956"
     d="m 4864,4891 c -48,-29 -74,-121 -34,-121 11,0 20,7 20,15 0,9 7,29 15,45 39,75 195,56 195,-25 0,-32 -33,-53 -114,-72 -75,-17 -112,-42 -121,-81 -14,-67 43,-122 128,-122 62,0 105,23 123,65 19,47 18,65 -6,65 -13,0 -20,-7 -20,-20 0,-12 -11,-32 -25,-45 -34,-35 -112,-35 -143,-2 -44,47 -21,76 84,105 40,11 81,25 93,31 59,32 54,127 -9,164 -40,24 -145,23 -186,-2 z" />
  <path
     style="fill:#211915;stroke:none;stroke-width:0.62159622"
     inkscape:connector-curvature="0"
     id="path3958"
     d="m 718.19585,2309.6639 c -33.5662,-91.3746 -36.67418,-113.7521 -22.99906,-156.6422 11.81033,-39.1606 10.56714,-89.5099 -4.97277,-169.6958 -5.59437,-28.5934 -12.43193,-87.0235 -14.29671,-130.5352 -3.10799,-62.7812 -7.45915,-87.0235 -19.26948,-117.4817 -15.53991,-38.539 -26.72864,-50.3493 -26.72864,-27.9718 -0.6216,8.0807 -3.72958,6.2159 -16.7831,-8.0808 l -16.1615,-18.0263 -9.32394,13.6752 c -9.94554,14.9183 -31.07982,18.6478 -36.05259,5.5943 -3.10798,-8.7023 -23.62065,-9.9455 -31.07981,-2.4864 -10.56713,10.5672 -16.1615,2.4864 -13.05352,-17.4047 4.35118,-27.3502 -4.35117,-27.9718 -31.07981,-1.8647 -17.40469,16.783 -20.51268,18.0262 -20.51268,8.0807 0,-9.3239 -1.86478,-9.9455 -7.45915,-4.3512 -10.56714,10.5672 -23.62066,9.324 -23.62066,-1.8648 0,-5.5943 -3.72957,-7.4591 -9.32394,-5.5943 -6.83756,3.108 -9.32394,-0.6216 -9.32394,-13.0535 0,-16.7831 -0.6216,-16.7831 -11.18874,-7.4592 -6.21596,6.216 -14.91831,10.5671 -18.64788,10.5671 -10.56714,0 -19.89108,-21.7558 -19.89108,-46.6197 0,-21.7559 -1.2432,-22.999 -16.16151,-19.2695 -8.70234,2.4864 -21.75586,2.4864 -28.59342,0 -11.81033,-3.7295 -12.43193,-6.8375 -8.70235,-46.6197 l 4.35117,-42.8901 H 281.2137 c -24.86385,0 -25.48544,-0.6216 -22.99906,-16.7831 1.86479,-9.9456 4.35118,-21.7559 5.59437,-26.7287 1.86479,-7.4591 -3.10798,-8.7023 -24.86385,-7.4591 -28.59343,2.4864 -29.83662,1.2432 -16.1615,-31.0798 3.72957,-8.7024 1.24319,-11.1888 -9.32395,-11.1888 -8.08075,0 -14.91831,-4.9727 -16.7831,-12.4319 -2.48638,-8.7023 -8.70234,-12.4319 -20.51267,-12.4319 -24.86385,0 -31.70141,-11.8103 -27.35024,-45.9981 3.72958,-24.8639 2.48639,-28.5935 -6.83755,-28.5935 -8.70235,0 -9.94554,-3.7295 -6.83756,-19.891 1.86479,-10.5672 8.08075,-24.2423 13.05352,-29.8367 6.83756,-7.4591 7.45915,-11.8103 2.48638,-16.7831 -4.97277,-4.9727 -4.97277,-10.5671 -0.62159,-18.6478 4.97277,-8.7024 3.72957,-14.2968 -5.59437,-24.2423 -14.91831,-16.1615 -9.94554,-31.0798 11.18873,-36.6742 l 16.1615,-3.7296 -13.67511,-14.2967 c -16.7831,-17.4047 -16.7831,-33.5662 0,-50.9709 12.43192,-13.0535 12.43192,-16.1615 5.59436,-33.5662 -4.35117,-10.5671 -6.83755,-19.891 -5.59436,-20.5126 1.24319,-0.6216 14.91831,-5.5944 29.83662,-10.5672 36.67417,-12.4319 44.13333,-25.4854 30.45821,-50.34926 -13.67511,-22.99906 -14.29671,-30.45822 -1.86479,-30.45822 6.21597,0 9.32395,-6.21596 9.32395,-20.51267 0,-26.10704 5.59436,-31.70141 18.02629,-20.51268 5.59436,4.35118 16.1615,10.56714 24.24225,12.43193 13.05352,4.35117 13.67512,2.48638 13.67512,-23.62066 0,-24.24225 1.86479,-28.59343 12.43192,-28.59343 6.83756,0 12.43193,-4.35117 12.43193,-9.32394 0,-4.35117 3.72958,-11.18873 8.70235,-13.67512 11.18873,-6.83756 34.80938,-51.59248 34.80938,-67.13239 0,-20.51268 8.08076,-26.10704 36.05259,-26.10704 21.13427,0 31.07981,-3.72958 43.51173,-16.7831 l 16.7831,-16.1615 4.35117,-179.01973 c 3.10799,-152.91267 5.59437,-187.10047 17.4047,-237.44976 7.45915,-32.32301 16.1615,-82.6723 18.64789,-111.88733 6.21596,-72.72675 12.43192,-94.48262 25.48544,-97.5906 6.83756,-1.864793 13.05352,-11.188736 14.91831,-22.999065 5.59437,-27.350234 22.99906,-49.106102 36.05258,-44.133332 23.62066,9.323944 21.13428,101.941787 -3.72957,162.858217 -12.43193,28.59342 -18.02629,62.78122 -27.97183,169.69577 -13.67512,137.37277 -13.05353,164.723 5.59436,275.98874 7.45916,44.13333 18.02629,46.61972 18.02629,3.72958 0,-31.70142 29.83662,-68.3756 82.05071,-101.9418 23.62065,-14.91831 84.53708,-29.83662 89.50985,-21.75587 1.86479,3.72958 7.45915,3.10798 13.67511,-1.86478 8.08076,-6.83756 9.32395,-6.21597 5.59437,6.21596 -2.48638,11.81033 -1.24319,13.67511 6.21596,11.18873 13.05352,-4.97277 34.1878,1.86479 29.83662,9.32394 -2.48638,3.10798 0.6216,7.45916 5.59437,9.32395 13.05352,4.97277 12.43192,13.67511 0,16.1615 -6.83756,1.24319 -11.18873,9.32394 -12.43193,23.62066 -1.24319,11.81032 -3.72957,34.80938 -5.59436,50.9709 l -3.72958,29.83662 19.26948,-3.72958 c 18.02629,-3.72958 18.64789,-3.10798 18.64789,18.02629 0,17.4047 1.86479,21.75587 9.32394,19.26949 4.97277,-2.48639 16.7831,-1.86479 25.48545,0 12.43192,3.10798 15.53991,7.45915 14.91831,21.13427 -3.10798,43.51173 -1.86479,44.75493 28.59343,44.75493 31.7014,0 54.70046,9.32394 50.34929,21.13427 -5.59436,13.67512 60.29484,-22.37747 95.72585,-52.83568 19.2695,-16.7831 41.6469,-43.51174 49.7277,-59.67324 12.4319,-24.86385 21.1342,-32.9446 50.9709,-47.24131 l 36.0525,-17.40471 21.1343,13.05352 c 29.8366,18.6479 27.9718,35.431 -9.3239,90.13147 -39.1606,55.94366 -44.1334,60.29483 -100.6986,91.37464 -24.8639,13.67512 -41.0254,23.62066 -36.0526,21.75587 4.9728,-1.24319 32.323,-7.45915 60.9164,-13.67512 64.0244,-13.67511 80.8075,-9.94554 160.9935,39.16057 52.8356,32.323 70.8619,50.97089 49.1061,50.97089 -5.5944,0 -7.4592,4.97277 -4.9728,15.5399 3.7296,21.13428 -4.3512,19.26949 -42.8902,-9.32394 -38.5389,-29.21502 -45.3765,-30.45821 -40.4037,-9.32394 2.4864,10.56713 1.2432,16.7831 -4.9728,19.26948 -14.9183,5.59437 -32.323,-8.08075 -49.7277,-37.91737 -9.3239,-15.53991 -17.4047,-27.97183 -18.6479,-27.97183 -1.2432,0 -17.4047,6.83756 -35.4309,14.91831 -18.6479,8.70235 -52.2141,19.89108 -75.2132,26.10704 -23.6206,5.59437 -42.26854,12.43193 -42.26854,15.53991 0,3.10798 3.10798,5.59436 6.83754,5.59436 3.7296,0 5.5944,4.35118 3.108,9.32395 -1.8648,4.97277 -0.6216,16.1615 3.108,24.24225 5.5944,11.18873 4.3512,19.26948 -3.7296,34.80939 -10.56713,20.5127 -8.70234,25.4854 11.8103,32.9446 3.7296,1.2432 1.2432,8.7023 -4.3511,16.7831 -13.0536,18.6479 -13.0536,24.8638 -0.6216,24.8638 7.4591,0 9.3239,3.7296 6.2159,14.2968 -11.8103,40.4037 -11.1887,46.6197 1.8648,53.4572 12.4319,6.8376 17.4047,25.4855 8.7024,33.5662 -6.8376,7.4592 -6.216,37.9174 0.6216,43.5118 4.3511,3.108 1.8647,8.7023 -7.4592,16.1615 l -13.6751,12.4319 13.6751,9.9455 14.2967,9.9456 -14.2967,10.5671 c -10.5671,8.0808 -12.4319,12.4319 -6.8376,18.0263 5.5944,5.5944 3.108,11.1887 -11.1887,22.9991 -14.2967,11.8103 -18.02628,19.891 -15.53989,31.7014 1.24319,9.3239 0,15.5399 -4.97277,15.5399 -4.97277,0 -5.59437,6.2159 -3.10798,18.6479 3.72957,17.4047 3.10798,18.6479 -15.53991,18.6479 -23.62066,0 -30.45821,14.2967 -14.91831,31.7014 10.56714,11.8103 10.56714,12.4319 -1.86479,15.5399 -8.08075,2.4864 -12.43192,6.8375 -9.94554,12.4319 2.48639,6.216 -1.86479,7.4591 -19.26948,4.3512 l -22.37746,-3.7296 v 24.8638 c 0,32.9446 -16.7831,53.4573 -59.67324,73.97 -27.35024,13.0535 -33.5662,18.6479 -30.45822,27.3502 3.10798,9.9456 0,11.8104 -19.89108,13.6751 -23.62065,1.8648 -23.62065,1.8648 -21.75587,26.7287 1.2432,13.6751 10.56714,51.5925 21.75587,83.9155 18.02629,54.0788 19.89108,65.2676 18.64789,130.5352 -0.6216,45.9981 -6.83756,102.5634 -16.7831,157.8854 -8.70235,47.8629 -16.1615,93.2395 -16.1615,101.3202 0,8.7024 8.70235,36.6742 18.64789,62.1596 15.5399,38.539 19.89108,60.9165 24.24225,122.4545 2.48638,41.6469 3.72958,78.3211 2.48638,82.6723 -3.10798,8.7023 -22.99906,14.2967 -52.21408,14.2967 H 743.6813 Z" />
  <path
     style="fill:#434141;stroke:none"
     inkscape:connector-curvature="0"
     id="path3961"
     d="m 6315,5850 c -13,-20 7,-31 44,-25 27,4 41,2 50,-9 15,-18 -1,-30 -32,-22 -31,7 -56,-9 -39,-26 16,-16 15,-28 -2,-28 -21,0 -74,-48 -93,-83 -23,-46 -20,-145 6,-201 30,-62 72,-86 148,-86 70,0 106,22 129,76 19,45 18,54 -6,54 -11,0 -20,-6 -20,-14 0,-26 -50,-75 -84,-81 -104,-20 -185,106 -141,220 22,58 56,85 109,85 55,0 103,-30 114,-72 10,-40 42,-52 42,-15 0,36 -40,90 -83,111 -34,16 -36,19 -21,30 19,15 22,60 4,81 -14,17 -115,21 -125,5 z" />
  <path
     style="fill:#434141;stroke:none"
     inkscape:connector-curvature="0"
     id="path3963"
     d="m 292,5729 c -80,-40 -122,-123 -122,-243 0,-55 6,-83 26,-126 31,-67 48,-86 99,-113 51,-26 165,-29 210,-5 76,41 139,158 85,158 -12,0 -20,-7 -20,-16 0,-57 -90,-124 -167,-124 -123,0 -222,141 -194,279 12,61 48,122 86,147 66,43 164,37 218,-14 34,-31 67,-92 67,-122 0,-13 7,-20 20,-20 62,0 -27,173 -107,206 -50,22 -150,18 -201,-7 z" />
  <path
     style="fill:#434141;stroke:none"
     inkscape:connector-curvature="0"
     id="path3965"
     d="m 745,5737 c -111,-52 -129,-246 -31,-337 39,-35 140,-41 190,-11 99,62 102,263 4,335 -34,25 -122,31 -163,13 z m 150,-60 c 78,-78 60,-225 -32,-264 -89,-37 -173,33 -173,145 0,94 49,152 127,152 38,0 51,-6 78,-33 z" />
  <path
     style="fill:#434141;stroke:none"
     inkscape:connector-curvature="0"
     id="path3967"
     d="m 1403,5734 c -54,-27 -88,-134 -43,-134 15,0 20,7 20,26 0,15 12,38 29,55 25,24 37,29 81,29 41,0 56,-5 75,-25 52,-51 24,-87 -92,-116 -111,-27 -144,-71 -111,-144 17,-37 58,-55 125,-55 68,0 99,17 119,66 19,46 18,64 -6,64 -13,0 -20,-7 -20,-19 0,-35 -41,-72 -85,-77 -50,-6 -86,12 -100,50 -13,38 13,58 105,81 38,9 81,26 94,36 53,42 37,137 -28,164 -46,19 -123,19 -163,-1 z" />
  <path
     style="fill:#434141;stroke:none"
     inkscape:connector-curvature="0"
     id="path3969"
     d="m 1740,5732 c -52,-26 -80,-82 -80,-165 0,-82 15,-122 64,-165 32,-28 44,-32 94,-32 40,0 67,6 90,20 39,24 71,89 72,143 v 37 h -146 c -134,0 -145,1 -140,18 3,9 8,29 12,45 10,45 58,77 113,77 58,0 94,-24 112,-75 9,-23 19,-35 32,-35 41,0 -8,102 -63,131 -44,24 -114,24 -160,1 z m 197,-228 c -12,-75 -91,-119 -159,-91 -39,17 -63,46 -78,96 l -9,31 h 126 126 z" />
  <path
     style="fill:#434141;stroke:none"
     inkscape:connector-curvature="0"
     id="path3971"
     d="m 2593,5735 c -17,-9 -37,-30 -43,-46 -14,-33 -8,-93 12,-116 19,-24 72,-43 116,-43 97,0 126,-20 110,-77 -10,-37 -59,-59 -108,-48 -31,7 -80,56 -80,81 0,8 -9,14 -20,14 -24,0 -25,-9 -6,-54 23,-55 59,-76 133,-76 58,0 68,3 94,29 l 29,29 v 136 c 0,129 1,136 20,136 23,0 26,10 8,28 -19,19 -49,14 -55,-8 -5,-19 -6,-19 -36,2 -40,29 -129,35 -174,13 z m 151,-46 c 33,-26 42,-43 50,-95 l 7,-40 -90,11 c -101,12 -131,30 -131,77 0,15 9,37 20,48 28,28 108,28 144,-1 z" />
  <path
     style="fill:#434141;stroke:none"
     inkscape:connector-curvature="0"
     id="path3973"
     d="m 3131,5728 c -61,-41 -76,-71 -79,-158 -4,-68 -1,-84 19,-120 32,-56 73,-80 141,-80 105,0 163,66 163,185 0,123 -50,186 -154,193 -46,3 -62,0 -90,-20 z m 158,-43 c 38,-32 55,-83 49,-147 -6,-59 -31,-96 -82,-122 -133,-66 -237,145 -126,256 32,33 44,38 83,38 34,0 53,-6 76,-25 z" />
  <path
     style="fill:#434141;stroke:none"
     inkscape:connector-curvature="0"
     id="path3975"
     d="m 3773,5735 c -105,-45 -124,-242 -33,-330 26,-25 41,-30 95,-33 81,-5 123,18 155,84 18,37 21,58 18,118 -3,62 -8,79 -32,110 -47,62 -130,83 -203,51 z m 150,-55 c 83,-72 66,-227 -29,-266 -114,-48 -214,90 -160,220 33,79 126,102 189,46 z" />
  <path
     style="fill:#434141;stroke:none"
     inkscape:connector-curvature="0"
     id="path3977"
     d="m 4310,5733 c -97,-50 -116,-233 -35,-322 33,-35 35,-36 108,-36 66,0 79,3 101,24 l 26,24 v -91 c 0,-87 1,-92 21,-92 21,0 21,2 17,193 -3,179 -5,195 -26,232 -13,22 -35,49 -49,59 -37,28 -119,32 -163,9 z m 139,-39 c 30,-22 61,-89 61,-136 0,-111 -87,-184 -172,-144 -90,43 -102,212 -21,276 32,25 99,27 132,4 z" />
  <path
     style="fill:#434141;stroke:none"
     inkscape:connector-curvature="0"
     id="path3979"
     d="m 4660,5727 c -54,-35 -74,-80 -75,-162 0,-125 58,-195 162,-195 93,0 145,50 160,155 l 6,45 h -147 c -163,0 -159,-2 -130,70 39,98 178,94 220,-7 8,-18 22,-33 30,-33 24,0 11,66 -18,98 -51,55 -150,69 -208,29 z m 206,-219 c -9,-48 -38,-81 -83,-97 -36,-13 -43,-12 -78,5 -43,21 -71,55 -81,97 l -6,27 h 127 128 z" />
  <path
     style="fill:#434141;stroke:none"
     inkscape:connector-curvature="0"
     id="path3981"
     d="m 5618,5735 c -15,-8 -32,-24 -38,-35 -13,-25 -13,-96 1,-122 15,-28 69,-48 131,-49 83,-2 103,-10 106,-45 5,-48 -27,-79 -80,-79 -55,0 -97,26 -105,65 -4,21 -11,30 -24,30 -41,0 -10,-89 41,-115 33,-17 116,-20 155,-5 42,16 55,63 55,200 0,102 2,120 16,120 28,0 11,35 -19,38 -22,3 -30,-1 -34,-17 -5,-20 -5,-20 -34,1 -38,28 -132,35 -171,13 z m 140,-39 c 34,-18 62,-66 62,-106 v -36 l -91,12 c -57,7 -96,17 -106,27 -24,24 -21,77 6,99 27,21 94,24 129,4 z" />
  <path
     style="fill:#434141;stroke:none"
     inkscape:connector-curvature="0"
     id="path3983"
     d="m 6610,5728 c -31,-21 -35,-29 -38,-76 -2,-28 2,-61 8,-73 16,-29 69,-49 132,-49 92,0 130,-39 94,-95 -36,-55 -144,-36 -171,30 -17,39 -45,47 -45,13 0,-33 36,-87 66,-98 38,-15 121,-12 154,5 39,20 50,64 50,203 0,93 3,112 15,112 18,0 19,12 3,28 -18,18 -49,14 -55,-8 -5,-19 -6,-19 -34,2 -19,15 -48,23 -86,26 -49,3 -64,0 -93,-20 z m 166,-51 c 28,-26 37,-42 41,-78 l 5,-45 -93,12 c -76,9 -96,15 -111,34 -23,29 -23,51 3,84 17,22 28,26 70,26 42,0 55,-5 85,-33 z" />
  <path
     style="fill:#434141;stroke:none"
     inkscape:connector-curvature="0"
     id="path3985"
     d="m 1020,5555 c 0,-178 1,-185 20,-185 14,0 20,7 20,21 v 20 l 26,-20 c 20,-16 41,-21 86,-21 55,0 63,3 94,34 l 34,34 v 151 c 0,128 -2,151 -15,151 -13,0 -15,-21 -15,-130 0,-155 -10,-183 -69,-201 -32,-9 -44,-9 -74,6 -55,26 -67,62 -67,204 0,114 -1,121 -20,121 -19,0 -20,-7 -20,-185 z" />
  <path
     style="fill:#434141;stroke:none"
     inkscape:connector-curvature="0"
     id="path3987"
     d="m 2020,5555 c 0,-158 2,-185 15,-185 9,0 15,10 15,26 v 26 l 31,-26 c 21,-18 42,-26 70,-26 54,0 50,21 -8,40 -72,23 -86,55 -91,207 -4,96 -7,123 -18,123 -11,0 -14,-34 -14,-185 z" />
  <path
     style="fill:#434141;stroke:none"
     inkscape:connector-curvature="0"
     id="path3989"
     d="m 2341,5718 c -5,-13 -39,-94 -75,-182 -36,-87 -66,-160 -66,-163 0,-2 10,-3 22,-1 18,2 32,29 84,157 l 61,154 30,-79 c 17,-43 43,-114 59,-156 21,-57 33,-78 46,-78 10,0 18,4 18,10 0,5 -30,88 -66,185 -54,141 -70,175 -86,175 -10,0 -22,-10 -27,-22 z" />
  <path
     style="fill:#434141;stroke:none"
     inkscape:connector-curvature="0"
     id="path3991"
     d="m 2944,5726 c -17,-13 -19,-30 -22,-165 l -4,-151 h -29 c -22,0 -29,-5 -29,-20 0,-16 7,-20 30,-20 29,0 30,-1 30,-49 0,-45 10,-61 36,-61 2,0 4,25 4,55 v 55 h 40 c 33,0 40,3 40,20 0,17 -7,20 -40,20 h -40 v 140 c 0,125 2,140 18,149 10,6 28,7 40,4 18,-4 22,-1 22,16 0,18 -6,21 -38,21 -21,0 -47,-6 -58,-14 z" />
  <path
     style="fill:#434141;stroke:none"
     inkscape:connector-curvature="0"
     id="path3993"
     d="m 3410,5555 c 0,-178 1,-185 20,-185 14,0 20,7 20,22 0,20 1,21 20,3 27,-24 120,-34 120,-12 0,9 -14,17 -37,22 -82,15 -103,58 -103,215 0,113 -1,120 -20,120 -19,0 -20,-7 -20,-185 z" />
  <path
     style="fill:#434141;stroke:none"
     inkscape:connector-curvature="0"
     id="path3995"
     d="m 3600,5555 c 0,-178 1,-185 20,-185 19,0 20,7 20,185 0,178 -1,185 -20,185 -19,0 -20,-7 -20,-185 z" />
  <path
     style="fill:#434141;stroke:none"
     inkscape:connector-curvature="0"
     id="path3997"
     d="m 5140,5491 v -251 l 26,-6 c 15,-4 71,-4 125,-1 150,9 203,44 235,155 37,127 -1,262 -91,317 -46,28 -55,30 -172,33 l -123,4 z m 259,190 c 63,-32 93,-86 99,-175 10,-166 -57,-235 -230,-236 h -88 v 221 222 l 89,-6 c 61,-4 102,-12 130,-26 z" />
  <path
     style="fill:#434141;stroke:none"
     inkscape:connector-curvature="0"
     id="path3999"
     d="m 5910,5555 c 0,-178 1,-185 20,-185 14,0 20,7 20,21 v 20 l 26,-20 c 20,-16 41,-21 85,-21 50,0 63,4 89,28 40,35 49,78 50,225 0,110 -1,117 -20,117 -19,0 -20,-7 -20,-130 0,-155 -10,-183 -69,-201 -32,-9 -44,-9 -74,6 -55,26 -67,62 -67,204 0,114 -1,121 -20,121 -19,0 -20,-7 -20,-185 z" />
  <path
     style="fill:#434141;stroke:none"
     inkscape:connector-curvature="0"
     id="path4001"
     d="m 3171,5343 c 40,-54 95,-103 116,-103 13,0 23,4 23,9 0,17 -113,111 -133,111 -17,0 -18,-2 -6,-17 z" />
  <path
     style="fill:#434141;stroke:none"
     inkscape:connector-curvature="0"
     id="path4003"
     d="m 3600,5285 c 0,-38 3,-45 20,-45 17,0 20,7 20,45 0,38 -3,45 -20,45 -17,0 -20,-7 -20,-45 z" />
  <path
     style="fill:#434141;stroke:none"
     inkscape:connector-curvature="0"
     id="path4005"
     d="m 1952,4659 3,-254 h 142 c 128,0 144,2 170,21 58,43 67,140 19,189 l -22,22 33,36 c 29,32 33,44 33,91 0,39 -6,60 -21,80 -39,50 -73,60 -222,64 l -137,4 z m 257,205 c 37,-8 77,-45 83,-78 3,-13 0,-39 -6,-57 -17,-54 -60,-69 -188,-69 h -108 v 105 105 h 94 c 51,0 107,-3 125,-6 z m 42,-273 c 38,-39 39,-83 1,-120 -25,-26 -35,-28 -136,-34 -59,-4 -112,-4 -117,-1 -5,3 -9,45 -9,95 v 89 h 116 c 114,0 116,0 145,-29 z" />
  <path
     style="fill:#434141;stroke:none"
     inkscape:connector-curvature="0"
     id="path4007"
     d="m 2438,4894 c -75,-40 -100,-203 -44,-286 38,-57 83,-80 144,-76 87,7 137,60 149,157 l 6,51 h -148 -147 l 6,31 c 25,127 196,145 236,24 14,-41 40,-47 40,-10 0,39 -27,83 -63,105 -39,24 -139,26 -179,4 z m 212,-210 c 0,-31 -33,-85 -61,-99 -78,-41 -154,-2 -183,93 l -7,22 h 125 c 109,0 126,-2 126,-16 z" />
  <path
     style="fill:#434141;stroke:none"
     inkscape:connector-curvature="0"
     id="path4009"
     d="m 2730,4655 c 0,-220 2,-255 15,-255 13,0 15,35 15,255 0,220 -2,255 -15,255 -13,0 -15,-35 -15,-255 z" />
  <path
     style="fill:#434141;stroke:none"
     inkscape:connector-curvature="0"
     id="path4011"
     d="m 2850,4897 c -50,-25 -65,-98 -31,-154 16,-25 30,-33 71,-42 28,-6 70,-11 93,-11 55,0 70,-11 69,-50 -1,-48 -27,-70 -82,-70 -56,0 -95,26 -105,70 -5,21 -13,30 -27,30 -17,0 -19,-4 -13,-32 10,-48 32,-78 70,-94 73,-30 166,-9 185,42 6,14 10,84 10,155 0,127 0,129 22,129 h 22 l -20,20 c -24,24 -54,18 -54,-11 0,-17 -3,-16 -36,6 -29,19 -50,25 -93,25 -31,0 -67,-6 -81,-13 z m 149,-39 c 25,-16 48,-56 56,-100 l 7,-37 -79,6 c -43,3 -88,10 -101,14 -52,19 -53,100 -2,127 27,14 89,9 119,-10 z" />
  <path
     style="fill:#434141;stroke:none"
     inkscape:connector-curvature="0"
     id="path4013"
     d="m 3204,4900 c -34,-13 -64,-59 -64,-96 0,-42 27,-47 36,-6 15,61 78,93 145,73 37,-11 69,-43 69,-68 0,-26 -44,-51 -125,-73 -95,-25 -115,-42 -115,-101 0,-70 67,-109 163,-96 52,7 97,52 97,97 0,37 -25,41 -34,5 -11,-44 -41,-65 -94,-65 -60,0 -92,21 -92,60 0,35 15,44 114,72 89,24 116,48 116,100 0,50 -13,74 -50,93 -31,16 -131,19 -166,5 z" />
  <path
     style="fill:#434141;stroke:none"
     inkscape:connector-curvature="0"
     id="path4015"
     d="m 3640,4897 c 0,-7 44,-120 98,-252 78,-192 101,-241 117,-243 18,-2 33,29 118,245 53,136 97,251 97,256 0,4 -8,7 -18,7 -14,0 -27,-20 -49,-77 l -30,-78 h -118 -117 l -32,77 c -22,55 -36,78 -48,78 -10,0 -18,-6 -18,-13 z m 308,-199 c -3,-7 -25,-64 -48,-126 l -43,-113 -44,107 c -23,59 -45,116 -49,126 -5,17 2,18 91,18 74,0 96,-3 93,-12 z" />
  <path
     style="fill:#434141;stroke:none"
     inkscape:connector-curvature="0"
     id="path4017"
     d="m 4100,4725 c 0,-178 1,-185 20,-185 11,0 20,6 20,14 0,11 8,10 38,-6 30,-15 48,-18 94,-13 l 57,7 3,-53 c 4,-75 28,-79 28,-5 v 56 h 40 c 29,0 40,4 40,15 0,11 -11,15 -40,15 h -40 l 1,123 c 1,156 5,171 47,175 19,2 32,9 32,17 0,32 -82,28 -100,-5 -6,-10 -10,-84 -10,-164 v -146 h -60 c -52,0 -64,4 -92,29 l -33,29 -3,141 c -3,131 -5,141 -23,141 -18,0 -19,-9 -19,-185 z" />
  <path
     style="fill:#434141;stroke:none"
     inkscape:connector-curvature="0"
     id="path4019"
     d="m 4545,4901 c -106,-46 -114,-271 -13,-345 39,-28 123,-32 168,-8 44,23 80,91 80,149 v 43 h -141 -142 l 6,37 c 4,22 19,49 37,68 26,25 38,30 80,30 40,0 54,-5 79,-29 16,-16 33,-42 36,-57 5,-20 13,-29 26,-29 22,0 24,19 5,63 -25,60 -59,81 -134,84 -37,2 -76,-1 -87,-6 z m 195,-230 c -20,-72 -54,-101 -116,-101 -47,0 -86,25 -109,70 -30,58 -27,60 109,60 h 125 z" />
  <path
     style="fill:#434141;stroke:none"
     inkscape:connector-curvature="0"
     id="path4021"
     d="m 4864,4891 c -48,-29 -74,-121 -34,-121 11,0 20,7 20,15 0,9 7,29 15,45 39,75 195,56 195,-25 0,-32 -33,-53 -114,-72 -75,-17 -112,-42 -121,-81 -14,-67 43,-122 128,-122 62,0 105,23 123,65 19,47 18,65 -6,65 -13,0 -20,-7 -20,-20 0,-12 -11,-32 -25,-45 -34,-35 -112,-35 -143,-2 -44,47 -21,76 84,105 40,11 81,25 93,31 59,32 54,127 -9,164 -40,24 -145,23 -186,-2 z" />
  <path
     style="fill:#434141;stroke:none;stroke-width:0.62159622"
     inkscape:connector-curvature="0"
     id="path4023"
     d="m 741.81651,2361.2564 c -3.72958,-6.8375 -4.97277,-12.4319 -3.10798,-12.4319 1.86478,0 -1.86479,-7.4592 -7.45916,-16.7831 -6.21596,-9.3239 -10.56714,-17.4047 -9.32394,-18.6479 0.62159,-1.2432 1.24319,-2.4864 0.62159,-3.108 0,-1.2432 -1.24319,-8.0807 -3.10798,-16.1615 -1.24319,-8.0807 -7.45915,-24.8638 -13.67511,-37.2957 -13.67512,-28.5935 -17.4047,-76.4564 -6.83756,-95.1043 7.45915,-14.9183 13.05352,-121.8328 6.83756,-133.0216 -11.18874,-18.6479 -24.86385,-122.4544 -28.59343,-220.6666 -1.24319,-29.8367 -6.21596,-56.5653 -14.29671,-74.5916 -19.26948,-42.8901 -22.37746,-52.2141 -21.13427,-59.0516 0.6216,-3.108 -3.10798,-1.2432 -8.08075,4.9727 -4.97277,6.8376 -7.45916,16.1615 -5.59437,21.7559 1.24319,6.216 -3.10798,3.108 -10.56713,-6.2159 -16.7831,-21.7559 -26.72864,-21.7559 -37.29578,-1.8648 l -8.08075,15.5399 -13.67512,-12.432 c -7.45915,-6.8375 -14.29671,-11.8103 -16.1615,-9.9455 -1.24319,1.2432 -9.32394,3.7296 -18.02629,5.5944 -15.53991,3.7295 -16.1615,2.4864 -13.67512,-17.4047 1.86479,-16.7831 0.6216,-21.7559 -7.45915,-21.7559 -11.18873,0 -34.80939,21.1343 -34.80939,31.0798 0,3.7296 -2.48639,6.216 -6.21596,6.216 -3.10798,0 -6.21597,-4.9728 -6.21597,-10.5672 0,-8.0807 -1.86478,-8.7023 -7.45915,-3.1079 -9.94554,9.9455 -17.40469,9.3239 -17.40469,-1.8648 0,-5.5944 -3.72958,-7.4592 -9.32395,-5.5944 -6.83756,3.108 -9.32394,-0.6216 -9.32394,-15.5399 0,-23.6207 -7.45916,-24.8638 -21.75587,-3.108 l -10.56714,16.1615 -11.81032,-19.8911 c -6.83756,-10.5671 -10.56714,-21.7558 -8.70235,-25.4854 2.48638,-3.108 1.86479,-11.1887 0,-18.0263 -3.10798,-9.3239 -7.45916,-11.1887 -22.37747,-8.0807 -23.62065,4.3511 -36.05258,-6.216 -32.323,-27.9719 1.24319,-9.3239 4.35117,-27.3502 6.21596,-40.4037 l 3.10798,-24.2423 -21.75587,3.108 c -31.07981,4.3512 -39.78215,-4.9728 -26.10704,-26.7286 13.67512,-21.7559 9.32395,-26.7287 -19.89108,-22.9991 -29.21502,3.108 -29.83662,1.8648 -17.40469,-27.9718 3.10798,-7.4592 0.62159,-10.5672 -10.56714,-12.432 -14.29671,-1.8647 -16.7831,-10.5671 -8.08075,-32.323 4.97277,-11.1887 4.35118,-11.1887 -11.81033,-0.6216 -14.29671,9.324 -18.64788,9.9456 -31.70141,3.108 -13.67511,-7.4591 -14.9183,-11.1887 -12.43192,-38.5389 2.48639,-22.9991 1.24319,-29.8367 -5.59437,-29.8367 -13.67511,0 -18.64788,-11.8103 -9.94554,-21.7558 4.35118,-4.9728 5.59437,-9.324 2.48639,-9.324 -2.48639,0 1.24319,-6.2159 8.70235,-14.2967 9.94554,-10.5671 11.81033,-16.1615 6.83756,-21.1343 -4.97277,-4.9727 -4.35118,-10.5671 1.24319,-19.891 7.45915,-11.1888 6.83756,-14.2967 -5.59437,-25.4855 -17.40469,-16.1615 -17.40469,-23.6206 0,-26.107 19.26948,-2.4864 22.37747,-22.9991 5.59437,-35.431 l -13.05352,-9.9455 16.7831,-23.6207 c 14.29671,-19.8911 15.5399,-24.8639 9.32394,-38.539 -9.94554,-22.3774 -9.32394,-24.8638 7.45915,-25.4854 8.08075,-0.6216 22.37747,-4.9728 32.32301,-9.324 23.62065,-11.1887 27.35023,-39.78212 8.70235,-60.2948 -11.81033,-12.43192 -9.94554,-16.78309 6.83755,-14.91831 2.48639,0.6216 3.72958,-2.48638 3.72958,-6.83755 0,-4.35118 0.6216,-15.53991 0.6216,-24.86385 l 1.24319,-17.4047 15.53991,11.81033 c 21.13427,16.7831 41.64694,11.18873 40.40375,-10.56714 -2.48638,-34.18779 -0.6216,-39.78215 13.05352,-36.05258 9.32395,2.48639 11.81033,1.2432 9.32395,-5.59436 -1.86479,-4.35118 1.86478,-11.18874 8.08075,-14.29672 11.81032,-6.21596 37.91737,-60.91643 39.78216,-82.0507 0.62159,-9.94554 5.59436,-11.81033 29.21502,-11.81033 28.59343,0 55.32206,-16.1615 62.15962,-37.29577 1.86479,-4.97277 3.72958,-64.64601 3.72958,-131.77842 1.24319,-193.31643 9.32394,-276.61032 29.83662,-325.09483 4.35117,-9.94554 8.70235,-34.18779 9.32394,-52.83568 1.24319,-51.59249 13.67512,-111.88732 23.62066,-111.88732 4.97277,0 8.08075,7.45915 8.08075,18.64789 0,10.56713 2.48639,18.64788 5.59437,18.64788 11.18873,0 13.05352,-11.18873 4.35117,-27.97183 -9.32394,-17.404692 -8.70235,-22.999058 6.83756,-57.808446 10.56713,-24.242253 26.72864,-24.86385 31.70141,-1.243193 8.70234,39.160563 1.24319,93.239439 -16.16151,128.670419 -13.67511,26.10704 -16.1615,39.78216 -29.21502,172.80376 -1.24319,10.56713 -4.35117,38.53896 -6.83756,62.15962 -6.83756,59.67324 -6.21596,90.13145 3.10798,155.39906 4.35118,31.07981 9.32395,72.10517 11.18874,91.37466 4.97277,52.21408 14.29671,47.24131 22.37746,-10.56714 5.59437,-39.16057 13.05352,-49.72771 75.21315,-99.45541 32.9446,-26.10704 39.16056,-28.59343 60.29482,-25.48545 15.53991,2.48639 24.24226,1.2432 26.10705,-4.35117 1.86478,-3.72958 3.72957,-1.86479 4.35117,4.97277 l 0.6216,12.43193 9.94554,-12.43193 c 9.32394,-12.43192 9.32394,-12.43192 6.83755,0.6216 -2.48638,10.56713 -0.62159,12.43192 14.91831,9.94554 10.56714,-1.86479 17.4047,0 16.16151,3.72957 -1.2432,3.72958 3.72957,11.18874 10.56713,16.16151 11.81033,9.32394 11.81033,9.32394 -4.97277,9.94554 -12.43192,0 -16.1615,2.48638 -12.43192,8.08075 6.83756,11.18873 6.83756,48.4845 -0.6216,71.48358 -7.45915,22.99906 0.6216,32.9446 21.75587,27.97183 9.94554,-2.48639 11.81033,0 11.81033,16.1615 0,17.40469 1.86479,19.26948 18.02629,19.26948 28.59343,0 38.53897,5.59437 31.70141,18.02629 -3.10798,6.21597 -3.72958,19.26949 -0.6216,29.21503 4.35117,15.5399 7.45916,18.02629 29.21502,18.64788 36.67418,1.2432 53.45728,8.70235 50.3493,21.75587 -3.72958,13.05352 3.72958,11.18873 51.59249,-15.5399 50.97092,-27.97183 86.40192,-59.67324 100.07702,-88.88827 13.0535,-28.59342 32.323,-49.72769 52.2141,-57.80845 34.8093,-13.05353 38.5389,-13.05353 58.43,5.59437 l 20.5127,18.64789 -32.9446,47.24131 c -36.6742,53.45728 -72.1052,86.40188 -102.5634,96.34742 -11.8103,4.35117 -21.1343,9.94554 -21.1343,13.05352 0,3.10798 -3.7296,5.59437 -7.4591,5.59437 -4.3512,0 -13.6751,4.97277 -20.5127,9.94554 -11.8103,9.32394 -11.1887,9.94553 9.3239,6.21596 11.8104,-1.86479 31.0798,-4.97277 42.8902,-6.83756 11.1887,-1.86479 25.4854,-6.21596 31.7014,-9.32394 6.2159,-3.72958 24.2422,-6.21597 40.4037,-6.21597 23.6207,0 37.9174,5.59437 85.7803,34.80939 31.0798,19.26949 64.0244,39.16057 72.7268,43.51174 15.5399,8.70235 15.5399,8.70235 1.8648,8.70235 -14.9183,0 -19.8911,15.5399 -6.216,20.51267 3.7296,1.24319 5.5944,4.97277 2.4864,7.45916 -2.4864,3.10798 -14.9183,-3.10798 -27.9718,-13.67512 -47.2414,-37.91737 -67.1324,-42.26854 -60.9165,-14.29671 2.4864,14.29671 1.2432,18.64788 -6.2159,18.64788 -12.432,0 -21.7559,-9.94554 -39.7822,-41.64694 -16.7831,-29.83662 -24.8638,-32.32301 -49.7277,-14.29672 -9.3239,6.83756 -18.6479,10.56714 -21.1343,8.08075 -1.8648,-1.86479 -3.7295,-0.62159 -3.7295,2.48639 0,3.72958 -11.8104,8.70235 -26.1071,11.18873 -41.0253,6.21596 -72.72674,16.7831 -80.1859,26.10704 -5.59436,6.21596 -4.97277,8.08075 2.48639,8.08075 6.83756,0 9.32391,5.59437 8.08071,21.75587 -1.24315,11.81033 1.2432,22.37747 4.9728,23.62066 4.3512,1.86479 1.2432,9.94554 -7.45914,21.75587 l -13.67512,19.26949 15.5399,10.5671 c 11.81036,7.4592 14.29676,12.432 9.32396,18.0263 -3.7296,4.3512 -8.0808,14.2967 -9.32396,21.7559 -1.86478,10.5671 -0.62159,12.4319 9.94556,9.3239 12.4319,-4.3511 12.4319,-3.7295 3.108,14.2967 -13.67515,26.1071 -10.5672,48.4845 6.8375,56.5653 15.5399,6.8376 18.6479,16.7831 7.4592,20.5127 -9.9456,3.108 -13.0535,42.2685 -4.3512,52.8357 5.5944,6.8375 4.3512,9.3239 -6.216,12.4319 -17.40465,4.3512 -18.02625,20.5127 -1.2431,24.8638 6.8375,1.8648 12.4319,6.216 12.4319,9.324 0,3.108 -5.5944,7.4591 -12.4319,9.3239 -12.432,3.108 -18.02634,20.5127 -6.216,20.5127 11.1887,0 6.8375,11.1887 -6.216,15.5399 -15.53988,4.9728 -29.83659,29.215 -19.26946,32.9446 11.81033,3.7296 7.45916,19.8911 -5.59436,19.8911 -10.56714,0 -11.81033,1.8648 -6.21597,11.8103 8.08076,15.5399 8.08076,27.3502 -0.62159,22.3775 -3.10798,-2.4864 -13.05352,-2.4864 -21.75587,-0.6216 -10.56714,3.108 -14.91831,8.0807 -14.91831,19.8911 0,8.0807 4.35117,16.7831 9.32394,18.6478 4.97277,2.4864 7.45916,6.216 5.59437,9.9456 -1.86479,3.108 -7.45916,4.3512 -12.43193,2.4864 -4.97277,-1.8648 -8.70234,0.6216 -8.70234,5.5943 0,5.5944 -6.21596,8.0808 -16.7831,7.4592 -16.1615,-1.2432 -17.4047,0.6216 -18.64789,24.8638 -1.24319,31.0798 -18.64789,53.4573 -52.83568,67.1324 -30.45821,11.8104 -43.51173,24.2423 -38.53896,36.0526 2.48638,6.8376 -2.48639,8.7024 -20.51268,8.0808 -21.75587,-0.6216 -23.62066,0.6216 -21.75587,14.9183 0.6216,8.7023 2.48639,24.2422 3.72958,34.1878 0.6216,10.5671 2.48638,20.5126 3.72958,23.6206 0.62159,2.4864 2.48638,7.4592 3.10798,10.5672 0.62159,3.7295 2.48638,7.4591 3.10798,9.3239 0.62159,1.8648 1.86479,4.9728 3.10798,8.0808 0.6216,2.4863 2.48638,8.7023 4.35117,13.6751 21.75587,62.7812 24.24226,80.1859 21.13428,142.9671 -3.10799,64.646 -6.21597,94.4826 -13.67512,124.3193 -1.86479,8.7023 -4.35118,22.999 -6.21596,32.9446 -1.2432,9.3239 -3.72958,24.2422 -6.21597,34.1877 -8.70234,38.539 -4.97277,85.7803 8.08075,110.0226 9.32395,17.4047 22.37747,64.0244 24.86385,90.1314 4.35118,52.2141 6.21597,114.9953 4.35118,121.2113 -1.86479,3.7296 -16.7831,7.4592 -33.5662,8.7023 -24.86385,1.2432 -31.70141,-1.2431 -37.29577,-11.8103 z" />
  <path
     style="fill:#6e5f63;stroke:none;stroke-width:0.62159622"
     inkscape:connector-curvature="0"
     id="path4026"
     d="m 753.62684,2366.2292 c -11.18874,-8.7024 -46.61972,-103.185 -55.94367,-147.9399 -4.35117,-20.5127 -3.10798,-34.8094 3.72958,-55.9437 11.18873,-34.1878 9.32394,-117.4817 -4.97277,-189.5868 -9.32394,-49.1061 -19.26948,-158.5071 -17.40469,-190.2085 0.62159,-15.5399 -31.7014,-101.3202 -42.89014,-113.1305 -2.48638,-3.108 -6.21596,1.8648 -8.70234,11.1887 l -4.35118,16.1615 -11.81033,-14.2967 -12.43192,-14.2967 -14.91831,17.4047 c -11.81033,14.9183 -15.53991,16.1615 -22.99906,9.324 -11.18873,-11.1888 -36.67418,-12.432 -49.1061,-3.108 -8.08076,6.2159 -8.08076,6.2159 -2.48639,-1.8648 10.56714,-13.6751 7.45916,-39.1606 -4.97277,-41.0254 -5.59437,-0.6216 -16.7831,5.5944 -24.24225,13.6751 -16.1615,17.4047 -27.35024,19.8911 -21.75587,4.3512 3.72958,-9.9455 3.72958,-9.9455 -7.45916,0 -14.29671,13.0535 -19.89107,13.0535 -19.89107,0.6216 0,-6.8375 -3.10799,-8.7023 -9.94554,-6.2159 -8.08076,3.1079 -8.70235,0.6216 -5.59437,-14.9184 4.97277,-23.6206 -5.59437,-24.8638 -22.99906,-2.4863 -15.53991,19.2694 -22.37747,13.6751 -28.59343,-22.9991 -4.35117,-26.7286 -4.97277,-27.3502 -31.70141,-29.215 l -27.35023,-1.8648 4.35117,-26.1071 c 1.86479,-14.2967 4.97277,-31.7014 6.21597,-38.5389 3.10798,-19.2695 -6.83756,-26.7287 -31.70141,-23.6207 -21.13427,3.108 -21.75587,2.4864 -18.02629,-11.1887 11.81032,-37.2958 0,-50.9709 -29.21503,-35.431 -10.56713,5.5944 -11.81033,4.3512 -9.32394,-8.0807 1.86479,-8.0808 5.59437,-20.5127 8.08075,-26.7287 4.35117,-9.9455 3.10798,-11.1887 -8.08075,-8.7023 -18.02629,4.9727 -23.62066,-4.9728 -13.05352,-23.6207 10.56713,-20.5127 3.72958,-24.8638 -17.4047,-9.9455 -25.48544,18.0263 -40.40375,8.7023 -39.16056,-25.4855 1.86479,-37.2957 0.6216,-42.8901 -5.59436,-38.5389 -12.43193,7.4591 -12.43193,-9.324 -0.6216,-31.7014 7.45915,-12.432 11.81033,-26.7287 9.94554,-31.7015 -1.86479,-4.9727 -1.24319,-14.2967 2.48638,-19.891 4.35118,-8.7024 2.48639,-14.2967 -6.21596,-22.3775 -16.1615,-14.9183 -15.5399,-20.5127 3.10798,-29.215 18.64789,-8.7024 19.89108,-18.0263 3.10798,-32.9446 -16.1615,-14.2967 -15.5399,-25.4855 0.6216,-34.8094 11.18873,-5.5944 13.05352,-11.1887 9.94554,-34.1878 -2.48639,-26.7286 -2.48639,-27.3502 18.02629,-31.0798 37.91737,-6.8376 45.99812,-26.7287 30.45822,-75.83476 -3.72958,-10.56713 -2.48639,-13.05352 4.35117,-10.56713 7.45915,3.10798 8.70235,-0.6216 6.21596,-16.16151 -2.48638,-17.40469 -1.86479,-19.26948 8.70235,-14.91831 6.83756,2.48639 21.75587,6.83756 34.18779,9.32395 22.37747,4.35117 22.37747,4.35117 16.1615,-12.43193 -8.08075,-21.75587 -1.24319,-50.34929 11.18874,-45.99812 6.21596,2.48639 9.32394,0 9.32394,-6.83756 0,-5.59436 5.59437,-11.81033 12.43193,-13.67511 6.83755,-1.86479 12.43192,-7.45916 12.43192,-12.43193 0,-4.35117 3.72958,-14.91831 8.70235,-22.37746 4.97277,-7.45916 10.56713,-23.62066 12.43192,-36.05258 3.72958,-19.89108 5.59437,-21.75587 21.13427,-19.26949 21.13428,3.10798 63.40282,-13.67512 64.02442,-24.86385 0,-4.35117 2.48638,-2.48638 4.97277,4.35118 3.10798,6.83755 5.59436,-55.94367 6.21596,-139.85917 0.62159,-83.91549 2.48638,-169.07418 3.72958,-189.58685 3.10798,-43.51174 18.02629,-123.07606 27.35023,-147.93991 3.72958,-9.94554 6.83756,-36.05258 7.45915,-59.05164 0,-22.99906 3.72958,-54.07887 7.45916,-68.99718 9.32394,-33.5662 22.99906,-41.64695 22.99906,-13.05352 0,13.05352 2.48639,18.64789 8.08075,16.7831 4.35118,-1.2432 6.83756,-10.56714 5.59437,-20.51268 -3.72958,-45.99812 -3.10798,-55.943659 4.97277,-69.618776 11.18873,-16.783099 24.86385,-18.026291 24.86385,-1.864789 0,6.837559 2.48638,13.675117 5.59436,15.539906 8.08075,4.972769 -8.70234,96.969009 -22.99906,124.940839 -9.32394,19.26949 -15.5399,56.56526 -26.10704,164.10141 -8.08075,79.56432 -11.81033,148.5615 -9.32394,161.61502 2.48638,12.43193 5.59436,37.29578 6.21596,55.32207 1.86479,41.64694 16.7831,131.77841 21.13427,131.77841 6.21596,0 19.26948,-32.323 15.53991,-37.91737 -1.86479,-3.10798 -0.6216,-5.59437 2.48638,-5.59437 3.10798,0 14.29672,-12.43192 25.48545,-27.97183 11.18873,-15.53991 18.64788,-27.97184 16.7831,-27.97184 -1.86479,0 -12.43193,11.81033 -22.99906,26.72865 l -19.89108,26.10704 4.35117,-21.75587 c 2.48638,-15.53991 13.05352,-31.07982 37.91737,-54.07888 31.07981,-29.21502 54.07887,-43.51174 43.51174,-26.72864 -1.86479,3.72958 0.62159,4.35118 6.21596,1.86479 7.45915,-2.48638 8.08075,-4.97277 3.10798,-8.08075 -9.32394,-5.59437 -1.86479,-11.18873 24.24225,-18.64789 11.81033,-3.10798 20.51267,-2.48638 24.86385,1.86479 5.59436,5.59437 8.70234,4.97277 13.05352,-1.86479 4.97277,-7.45915 6.21596,-7.45915 6.21596,-0.62159 0,6.83755 1.86479,6.83755 9.32394,0.62159 11.18874,-9.32394 11.81033,-4.35117 1.86479,14.29672 -6.21596,12.43192 -6.21596,13.05352 3.10798,5.59436 7.45916,-6.83756 12.43193,-6.83756 23.62066,-0.62159 13.05352,6.83755 13.05352,7.45915 3.10798,14.91831 -6.83756,5.59436 -8.08075,9.32394 -3.72958,12.43192 3.10799,1.86479 4.97277,6.21596 3.10799,9.32394 -1.86479,3.10798 -0.6216,13.05352 3.10798,22.99906 l 6.21596,17.4047 -13.05352,-17.4047 c -7.45916,-9.32394 -26.72864,-24.24225 -42.89014,-32.323 -16.7831,-8.70235 -31.70141,-18.02629 -34.1878,-21.75587 -1.86478,-3.10798 -6.83755,-6.21596 -10.56713,-6.21596 -9.32394,0 18.64789,21.13427 49.1061,36.67418 29.21502,14.29671 41.02535,31.07981 35.43099,48.48452 -3.10798,9.32394 -2.48639,9.32394 3.10798,1.86478 8.70234,-11.81034 8.70234,-5.59437 0.62159,16.16151 -7.45915,19.26948 -0.62159,27.35023 24.24226,27.35023 9.94554,0 13.05352,2.48639 11.18873,8.70235 -4.97277,11.81033 9.94554,31.07981 21.13427,27.35023 11.81033,-4.35117 31.70141,6.21597 26.72864,14.29672 -1.86479,3.10798 -1.86479,16.78309 0.6216,30.45821 3.72957,22.99906 4.97277,23.62066 24.86385,20.51268 11.81032,-1.86479 28.59342,-1.24319 37.29577,0.62159 14.91831,3.72958 16.1615,6.21597 12.43192,24.24226 -1.86478,11.18873 -1.86478,16.7831 1.2432,13.05352 2.48638,-3.72958 22.99906,-14.91831 45.37652,-25.48545 45.37655,-21.75587 101.32015,-68.37558 116.23845,-97.59061 23.6207,-47.24131 69.6188,-75.21315 98.8338,-59.67324 24.8639,13.67512 23.6207,27.35024 -4.9727,68.99719 -37.9174,55.94366 -62.1596,77.69953 -114.3737,103.18497 -71.4836,34.80939 -60.2949,41.64695 33.5662,20.51268 68.3756,-14.91831 81.4291,-11.81033 157.8854,35.43098 44.7549,27.97183 54.0789,36.05258 45.3765,40.40376 -8.0807,4.97277 -8.7023,8.08075 -2.4863,14.91831 12.4319,14.91831 -3.7296,9.32394 -18.6479,-6.21596 -14.9183,-15.53991 -49.1061,-34.80939 -62.1597,-34.80939 -4.9727,0 -6.2159,7.45915 -3.1079,22.37746 3.7295,21.13427 3.1079,21.75587 -8.0808,14.91831 -6.8375,-4.35117 -19.8911,-19.89108 -29.215,-34.80939 -9.324,-14.91831 -19.8911,-28.59343 -22.9991,-30.45821 -3.108,-2.48639 -17.4047,3.10798 -31.7014,11.81032 -14.9183,8.08076 -49.1061,21.13428 -76.4563,28.59343 -61.53805,16.1615 -72.72678,22.37747 -57.18687,31.70141 6.21596,3.72958 10.56713,13.67512 10.56713,24.24225 0,10.56714 3.10798,18.64789 6.21594,18.64789 9.324,0 -11.18871,37.29575 -20.51265,37.29575 -3.72958,0.6216 0,6.8376 9.32394,14.2967 12.43191,9.9456 15.53991,16.1615 11.18871,22.9991 -9.32392,14.2967 -7.45913,31.0798 3.108,31.0798 6.8376,0 7.4592,3.108 3.108,16.1615 -9.94555,25.4855 -7.4592,43.5117 8.0807,54.7005 13.0536,9.3239 13.0536,9.9455 2.4864,18.0263 -6.2159,5.5943 -9.3239,13.0535 -6.8375,19.2695 1.8648,5.5943 0.6216,14.2967 -3.108,18.6478 -6.216,6.8376 -4.3512,9.9456 6.8375,13.6752 l 14.2968,4.3511 -14.2968,4.9728 c -17.40465,6.8376 -17.40465,21.1343 0,32.9446 l 13.6752,9.9455 h -13.0536 c -16.1615,0 -24.24221,11.1888 -15.5399,19.8911 4.9728,4.9728 1.2432,12.4319 -11.8103,25.4855 -13.05352,13.0535 -16.78309,20.5126 -12.43192,24.8638 9.32394,9.324 8.70235,16.7831 -2.48638,16.7831 -11.18874,0 -11.81033,8.7024 -3.10799,25.4855 5.59437,10.5671 4.35118,11.8103 -11.18873,11.8103 -23.62066,0 -35.43098,13.6751 -26.72864,30.4582 9.32395,16.1615 8.70235,19.2695 -3.10798,19.2695 -6.21596,0 -8.70234,3.7296 -6.21596,9.3239 3.72958,11.1888 -3.10798,12.432 -13.05352,2.4864 -11.18873,-11.1887 -20.51268,0 -20.51268,24.2423 0,31.0798 -13.05352,47.8629 -51.59248,67.1324 -45.37653,22.999 -49.10611,26.107 -41.02536,40.4037 6.83756,13.6751 3.72958,14.9183 -12.43192,4.3512 -6.21596,-3.7296 -16.1615,-4.9728 -22.37746,-2.4864 -8.70235,3.108 -9.94554,8.0808 -6.21597,27.3502 2.48639,12.432 4.35118,28.5935 3.72958,34.8094 0,13.0536 29.21502,108.1578 36.05258,118.7249 8.70235,12.4319 1.86479,131.7784 -11.81033,202.0188 -24.86385,133.0216 -24.86385,126.8056 -1.86479,192.0732 16.16151,45.9981 21.75587,73.97 25.48545,126.8057 2.48639,36.6741 3.10798,70.2403 0.6216,73.3483 -6.21597,10.5671 -45.37653,13.6751 -55.94366,4.3512 z M 726.8982,1663.8254 c 2.48638,-4.3511 2.48638,-6.2159 0,-3.7295 -3.10798,2.4863 -11.81033,1.8648 -19.89108,-1.2432 -9.32395,-3.7296 -24.24226,-3.7296 -38.53896,0 l -22.99906,6.2159 24.86385,-2.4864 c 13.67511,-1.2431 30.45821,0 37.29576,2.4864 6.83756,3.108 13.05352,5.5944 13.67512,5.5944 0.6216,0.6216 3.10798,-3.108 5.59437,-6.8376 z M 393.72262,1132.3607 c -22.37746,-41.647 -22.37746,-37.2958 0,11.8103 8.70235,19.2695 16.1615,32.9446 17.4047,29.8366 1.24319,-3.108 -6.83756,-21.7559 -17.4047,-41.6469 z m 172.80375,-106.9146 c -8.08075,-9.3239 -15.5399,-16.7831 -16.78309,-15.5399 -2.48639,2.4864 24.24225,33.5662 29.21502,33.5662 1.24319,0 -4.35117,-8.0808 -12.43193,-18.0263 z m 89.50986,-23.6206 c 1.24319,-3.10803 11.18873,-12.43197 22.37746,-21.75592 11.81033,-9.94554 18.64789,-17.40469 15.53991,-17.40469 -8.08075,0.62159 -55.32206,43.51171 -47.24131,43.51171 3.72958,0 8.08075,-1.8648 9.32394,-4.3511 z M 546.63529,934.07146 c -1.86478,-4.97277 -10.56713,-8.08075 -20.51267,-8.08075 l -17.4047,1.24319 17.4047,2.48639 c 13.67512,2.48638 16.7831,6.21596 17.40469,22.37746 0.6216,15.53991 1.86479,16.7831 3.72958,5.59437 1.86479,-8.08075 1.24319,-18.64789 -0.6216,-23.62066 z m 237.44976,18.02629 c -6.21596,-1.24319 -16.1615,-1.24319 -21.75587,0 -6.21596,1.86479 -1.24319,3.10798 10.56714,3.10798 11.81033,0 16.7831,-1.24319 11.18873,-3.10798 z M 434.74797,859.47991 c -2.48638,-8.70235 -8.70234,-14.91831 -14.91831,-14.91831 -9.94554,0.6216 -9.94554,0.6216 0.6216,6.83756 6.83756,3.72958 10.56714,14.29671 11.18873,29.21502 0.6216,15.53991 1.86479,18.02629 3.72958,8.08076 1.86479,-7.45916 1.24319,-21.13428 -0.6216,-29.21503 z m -35.43098,-9.32394 c -9.32395,-5.59437 -19.89108,-1.24319 -14.91831,6.83756 1.86479,3.10798 8.08075,3.72957 13.05352,1.86479 7.45915,-2.48639 8.08075,-4.97277 1.86479,-8.70235 z m 512.19529,2.48638 c -8.08075,-1.24319 -20.51268,-1.24319 -27.97183,0 -8.08075,1.2432 -1.86479,2.48639 13.67512,2.48639 15.5399,0 21.75586,-1.24319 14.29671,-2.48639 z m 63.40282,-6.21596 c -6.83756,-1.86479 -16.7831,-6.83756 -21.75587,-11.18873 -19.26949,-15.53991 -27.35024,-16.7831 -12.43193,-1.86479 8.70235,8.70235 22.37747,16.1615 31.07981,16.1615 12.43193,0 13.05352,-0.62159 3.10799,-3.10798 z M 440.96393,787.37475 c 13.67512,-26.10704 10.56714,-29.21502 -4.35117,-4.97277 -7.45915,11.81033 -20.51267,30.45821 -29.83662,40.40375 l -16.1615,18.64789 20.51268,-18.64789 c 11.81032,-9.94554 24.86385,-26.10704 29.83661,-35.43098 z m 202.64038,32.9446 c -5.59437,-9.94554 -11.18873,-17.4047 -13.05352,-16.1615 -2.48639,3.10798 16.7831,34.18779 21.13427,34.18779 1.24319,0 -2.48639,-8.08075 -8.08075,-18.02629 z m 71.48356,-116.2385 c 21.75587,-21.13427 39.16056,-41.64694 39.16056,-45.99812 0,-3.72958 -9.32394,4.97277 -20.51267,19.26949 -18.0263,24.24225 -37.91737,41.64694 -85.15868,75.83474 -14.91831,10.56713 -14.91831,10.56713 6.21596,0.62159 11.81033,-6.21596 39.16056,-27.97183 60.29483,-49.7277 z m -179.01971,19.26949 c 0,-3.10798 -3.72958,0.62159 -8.70235,9.32394 -4.97277,8.70235 -8.70235,18.64789 -8.70235,21.75587 0,3.72958 3.72958,-0.6216 8.70235,-9.32395 4.97277,-8.70234 8.70235,-18.02629 8.70235,-21.75586 z" />
  <path
     style="fill:#89777e;stroke:none;stroke-width:0.62159622"
     inkscape:connector-curvature="0"
     id="path4029"
     d="m 756.11322,2368.7156 c -3.72958,-2.4864 -18.64789,-35.431 -32.9446,-72.7268 -24.24225,-63.4028 -25.48545,-71.4836 -21.75587,-108.7793 7.45916,-70.862 5.59437,-162.8582 -4.97277,-223.1531 -5.59436,-31.7014 -11.81033,-90.753 -14.29671,-130.5352 -3.72958,-62.1596 -7.45916,-78.9427 -25.48544,-121.8328 -11.18873,-27.3503 -20.51268,-49.7277 -20.51268,-49.7277 0,-2.4864 69.61878,2.4863 79.56431,5.5943 9.32395,3.108 13.67512,0.6216 16.7831,-8.7023 1.86479,-6.8376 8.70235,-12.432 14.29672,-12.432 8.08075,0 15.5399,16.7831 31.07981,67.1324 26.72864,87.6451 27.35023,149.1831 1.24319,287.1775 -19.89108,108.1577 -19.89108,106.293 11.81033,185.2357 9.32394,22.999 14.29671,53.4573 16.7831,103.8066 l 4.35117,70.8619 -16.7831,6.8376 c -19.89108,7.4591 -29.21502,7.4591 -39.16056,1.2432 z" />
  <path
     style="fill:#89777e;stroke:none;stroke-width:0.62159622"
     inkscape:connector-curvature="0"
     id="path4031"
     d="m 557.20243,1688.0677 c -7.45915,-12.4319 -24.24225,-16.7831 -32.323,-8.7024 -4.97277,4.9728 -6.83756,2.4864 -6.83756,-9.9455 0,-22.9991 -15.53991,-27.9718 -37.29578,-11.1887 -20.51267,14.9183 -27.97183,16.7831 -21.13427,5.5943 2.48639,-4.3511 -1.24319,-3.1079 -8.08075,3.108 -12.43192,11.1888 -25.48544,5.5944 -18.02629,-7.4591 2.48639,-3.108 -1.24319,-4.3512 -8.08075,-2.4864 -9.32394,2.4864 -11.18873,0 -8.70235,-13.0535 4.35118,-20.5127 -11.18873,-21.7559 -25.48544,-1.8648 -9.32395,13.6751 -9.94554,13.6751 -19.26949,1.8648 -4.97277,-6.8376 -9.32394,-18.6479 -9.32394,-26.1071 0,-26.7286 -5.59437,-32.9446 -27.97183,-29.215 -26.72864,4.3512 -31.07981,-3.7296 -21.75587,-42.2685 9.32394,-37.9174 1.86479,-50.3493 -27.35023,-47.863 -14.91831,1.2432 -18.64789,-0.6216 -16.7831,-7.4591 1.24319,-4.9728 3.10798,-16.1615 3.10798,-24.8639 0.6216,-14.2967 -1.86479,-15.5399 -22.99906,-14.9183 -25.48545,1.2432 -24.86385,3.108 -13.05352,-35.431 3.10798,-8.0807 0,-9.9455 -12.43193,-7.4591 -18.02629,3.7296 -20.51267,-3.7296 -8.70234,-22.9991 10.56713,-16.7831 2.48638,-21.7558 -16.16151,-9.3239 -9.32394,6.2159 -20.51267,8.7023 -29.21502,6.2159 -11.81033,-3.7295 -13.05352,-7.4591 -9.32394,-34.8093 3.72957,-26.7287 2.48638,-31.0799 -8.08075,-35.431 -11.81033,-4.3512 -11.81033,-4.3512 0,-29.2151 6.83755,-13.6751 10.56713,-27.9718 8.70234,-32.9446 -1.24319,-4.3511 0.6216,-13.6751 4.97277,-20.5126 6.21596,-11.1888 5.59437,-14.2967 -6.21596,-22.3775 -18.64789,-12.4319 -18.02629,-19.2695 1.24319,-26.7286 19.26949,-7.4592 19.89108,-20.5127 1.86479,-37.2958 l -13.67512,-12.4319 14.91831,-15.5399 c 11.18874,-12.432 13.67512,-19.8911 10.56714,-39.7822 -3.10798,-23.6207 -2.48639,-24.2422 18.64789,-28.5934 29.21502,-5.5944 45.37652,-22.9991 41.64694,-44.7549 -1.86478,-9.32399 -5.59436,-19.89113 -9.32394,-23.62071 -8.08075,-8.70234 -6.83756,-15.5399 3.72958,-15.5399 6.83756,0 8.08075,-4.97277 4.97277,-19.89108 -3.10798,-17.4047 -2.48639,-19.26949 8.08075,-14.91831 16.7831,7.45915 54.70047,16.1615 57.18685,13.05352 1.2432,-0.6216 -1.24319,-7.45916 -5.59436,-14.29671 -10.56714,-17.4047 -2.48639,-44.75493 13.67511,-44.75493 9.32395,0 11.81033,-2.48639 9.32395,-9.94554 -2.48639,-6.21597 0,-11.18874 7.45915,-12.43193 10.56714,-3.10798 38.53897,-60.91643 38.53897,-80.18591 0,-6.83756 6.83756,-9.32395 23.62066,-9.32395 12.43192,0 32.323,-5.59436 43.51173,-12.43192 10.56714,-6.83756 19.89108,-10.56714 19.89108,-9.32394 0,12.43192 -21.13427,48.4845 -42.89014,73.96995 -14.29671,16.7831 -24.86385,31.70141 -22.99906,32.9446 1.86479,1.86479 -0.6216,7.45915 -5.59436,12.43192 -10.56714,10.56714 -21.13428,44.75493 -24.86385,82.6723 -2.48639,24.24226 -1.86479,23.62066 5.59436,-9.32394 13.67512,-57.18685 20.51268,-70.24038 41.02535,-80.80751 24.86385,-13.05352 31.07982,-8.08075 32.32301,26.72864 0.62159,24.24225 1.24319,25.48544 3.10798,8.08075 1.86479,-11.81033 1.24319,-27.97183 -1.24319,-36.05258 -3.10798,-13.05353 -6.21597,-14.91831 -22.99906,-11.18874 l -19.26949,4.35118 21.75587,-26.72864 c 41.02535,-50.3493 41.02535,-50.97089 41.64695,-204.50517 1.24319,-192.69484 7.45915,-259.82723 34.18779,-361.14742 4.97277,-19.89108 7.45916,-45.99812 6.21596,-59.05164 -3.10798,-27.97183 11.18874,-87.64507 19.89108,-83.2939 3.10798,1.86479 4.97277,10.56714 4.97277,19.89108 -1.24319,15.53991 0,16.16151 11.18874,10.56714 9.94554,-5.59437 11.81032,-10.56714 8.08075,-26.10704 -8.08075,-35.430988 1.24319,-78.942723 16.78309,-78.942723 21.13428,0 19.89108,87.645073 -2.48638,136.751173 -13.05352,29.21502 -23.62066,96.96901 -36.67418,236.20657 -6.83756,75.21314 -6.21596,93.86103 3.72958,170.93896 15.53991,117.4817 15.53991,127.42724 5.59437,147.31832 -4.97277,9.32395 -8.70235,19.26949 -8.70235,21.75587 0.62159,2.48639 10.56713,-14.29671 22.37746,-37.29577 11.81033,-22.99906 19.89108,-45.37653 17.4047,-49.7277 -2.48639,-4.35118 -2.48639,-5.59437 0.62159,-3.10798 3.10798,3.10798 14.29672,-9.32395 26.10705,-26.10705 33.56619,-50.3493 74.59154,-90.13146 83.91549,-82.05071 16.16149,13.05352 85.78027,50.34929 85.78027,45.37652 0,-2.48638 -11.81033,-10.56713 -26.10704,-16.78309 -14.29671,-6.21597 -34.18779,-18.02629 -42.89014,-26.10705 -23.62065,-19.26948 -39.16056,-11.18873 -83.29389,45.99813 -19.89108,25.48544 -37.29577,44.75494 -38.53897,43.51174 -6.21596,-6.21596 14.91831,-40.40376 39.78216,-64.64602 28.59343,-26.10704 47.86291,-39.16056 80.18591,-50.97089 13.67512,-5.59436 15.53991,-4.97277 13.05352,2.48639 -2.48638,5.59436 -0.62159,11.18873 3.10798,13.67511 4.35118,2.48639 4.97277,1.86479 2.48639,-2.48638 -2.48639,-4.35117 -0.6216,-7.45916 4.97277,-7.45916 4.97277,0 10.56713,-3.72957 11.81033,-7.45915 2.48638,-6.21596 3.72957,-5.59437 3.72957,0.6216 0.6216,6.83755 2.48639,6.83755 11.81033,0 9.32395,-7.45916 9.94554,-7.45916 3.10798,1.24319 -4.35117,5.59436 -5.59436,12.43192 -3.10798,15.5399 2.48639,2.48639 0,1.86479 -6.21596,-2.48638 -5.59437,-4.97277 -11.81033,-5.59437 -13.67512,-2.48639 -4.97277,8.08076 16.7831,13.05353 28.59343,6.83756 4.35117,-2.48638 12.43192,-1.86479 17.40469,1.2432 8.08075,4.97277 7.45916,6.83755 -1.86478,14.29671 -9.94554,7.45915 -9.94554,8.70235 -1.2432,12.43192 5.59437,1.86479 8.70235,6.21597 6.21597,9.94554 -1.86479,3.10798 -4.97277,15.53991 -6.21597,27.35024 -6.21596,47.24132 -31.70141,82.05071 -90.13145,121.83287 -19.89107,13.67512 -37.29577,30.45822 -39.16056,37.91737 -3.10798,11.81033 -1.24319,11.18874 13.05352,-4.97277 9.32395,-10.56713 31.7014,-29.83662 49.7277,-42.89014 18.02629,-13.05352 41.64694,-36.67418 51.59248,-51.59248 19.26949,-29.21503 21.75587,-29.83662 11.81033,-4.35118 -5.59436,16.1615 -5.59436,16.1615 18.02629,12.43193 18.64789,-3.10799 24.24226,-1.86479 24.24226,4.35117 -1.86479,31.07981 0.62159,34.18779 22.99906,31.70141 l 21.75586,-2.48639 v 26.72864 c 0,34.80939 6.83756,45.37653 24.86385,39.78216 7.45916,-2.48638 22.99906,-2.48638 34.80939,-0.6216 18.64789,3.72958 20.51268,6.21597 17.4047,21.13428 -2.48639,13.05352 -0.6216,18.02629 11.18873,22.99906 8.08075,3.72957 13.67512,9.32394 13.05352,13.05352 -0.6216,3.72957 11.81033,6.83756 27.97183,6.83756 22.99906,0.62159 25.48545,0 10.56714,-3.72958 -19.89108,-4.35117 -46.61972,-19.26948 -46.61972,-26.72864 0,-2.48638 15.53991,-12.43192 34.18779,-21.75587 47.24127,-24.24225 99.45537,-68.99718 112.50897,-96.96901 13.0535,-28.59343 37.9173,-50.3493 68.3755,-60.29484 19.8911,-6.83757 23.6207,-6.21597 37.2958,6.83756 8.0808,7.45916 14.9183,16.7831 14.9183,19.26949 0,9.94554 -53.4573,81.4291 -78.9427,105.67136 -13.0535,12.43192 -42.2685,31.07981 -65.2676,42.26854 -65.88921,30.45822 -51.5925,40.40376 30.4582,21.13427 74.5916,-17.40469 92.6178,-13.67511 177.1549,41.02535 47.2414,31.07982 50.3493,34.1878 26.7287,28.59343 -17.4047,-4.35117 -18.0263,-4.35117 -7.4592,7.45916 17.4047,19.26948 11.8103,23.62065 -6.8375,5.59436 -23.6207,-22.99906 -65.2676,-42.26854 -70.862,-33.56619 -2.4864,3.72957 -1.2432,11.81032 2.4864,18.64788 3.108,6.21596 4.3511,13.67512 1.8648,15.53991 -3.7296,3.72958 -18.6479,-11.18873 -49.7277,-51.59249 l -12.432,-16.1615 -37.2957,18.64789 c -20.5127,10.56713 -42.8902,19.26948 -49.7277,19.26948 -6.8376,0 -27.9719,6.21596 -46.6197,13.05352 -34.18784,12.43192 -169.07423,42.26854 -198.91084,43.51174 -14.29672,1.24319 -14.91831,1.24319 -1.86479,3.72957 8.08075,1.2432 42.89014,-3.10798 77.07793,-9.94554 34.80939,-7.45915 70.86197,-13.05352 80.80751,-13.05352 18.64789,0 28.59339,8.70235 18.02629,15.53991 -4.97277,3.10798 -4.35117,6.83756 0.6216,13.05352 3.72957,4.97277 4.97277,8.70235 2.48638,8.70235 -2.48638,0 -1.24319,4.35117 3.10798,9.32394 6.83754,8.08075 5.59434,12.43193 -8.70234,27.35024 l -16.7831,18.02633 18.64788,6.2159 c 18.0263,6.216 18.6479,8.0808 11.8103,22.9991 -5.59433,13.0535 -5.59433,19.2695 0,28.5934 4.3512,6.8376 6.8376,14.2967 4.9728,17.4047 -1.8648,2.4864 -4.3512,12.4319 -6.216,21.1343 -2.48634,13.0535 0.6216,19.2695 12.432,27.3502 l 15.5399,9.9455 -13.0535,13.0536 c -9.9456,11.1887 -10.5672,15.5399 -4.9728,21.1342 6.2159,6.216 6.2159,9.324 -1.2432,14.2968 -8.0808,4.9727 -8.0808,6.8375 1.8648,14.2967 11.1887,8.7023 10.5671,8.7023 -1.2432,13.0535 -15.53992,4.9728 -16.78311,11.1887 -3.7296,21.7559 13.0535,10.5671 11.8103,18.6478 -2.4864,18.6478 -6.83754,0 -14.29669,3.108 -16.78308,7.4592 -2.48638,3.7296 -1.86479,4.9728 2.48639,2.4864 3.72958,-1.8648 8.08075,1.2432 10.56713,8.0807 2.48636,8.0808 -1.86478,17.4047 -12.43192,27.9719 -13.05352,13.0535 -14.91831,18.0263 -9.32394,28.5934 5.59436,10.5671 4.97277,12.4319 -5.59437,12.4319 -6.83756,0 -14.29671,3.108 -16.1615,6.216 -1.86479,3.7296 -1.24319,6.2159 1.24319,6.2159 3.10798,0 8.08075,4.9728 12.43193,11.8104 6.21596,9.9455 5.59436,11.8103 -8.70235,11.8103 -8.08075,0 -19.89108,4.3512 -25.48545,9.9455 -8.70234,8.0808 -8.70234,12.432 -2.48638,22.3775 10.56713,16.7831 9.32394,20.5127 -4.97277,16.7831 -6.83756,-1.8648 -12.43193,-1.2432 -12.43193,1.8648 0,2.4864 -4.97277,6.216 -11.81033,8.0807 -8.08075,1.8648 -11.81032,10.5672 -14.29671,31.7014 -4.35117,35.431 -11.18873,44.1334 -54.70047,65.8892 -19.26948,9.9456 -39.16056,22.3775 -44.13333,28.5935 -5.59437,6.8375 -5.59437,9.3239 -0.6216,6.2159 3.72958,-2.4863 7.45916,-1.8648 7.45916,1.2432 0,3.7296 -9.32395,5.5944 -19.89108,4.9728 -19.89108,-0.6216 -20.51268,0.6216 -21.13427,22.9991 0,23.6206 -3.72958,27.9718 -39.16057,45.3765 -4.35117,2.4864 -14.29671,1.2432 -21.13427,-3.108 -9.32394,-6.216 -13.05352,-6.216 -16.7831,-0.6216 -3.10798,4.9728 -12.43192,6.216 -26.72863,3.7296 -20.51267,-3.7296 -21.75587,-3.108 -25.48544,15.5399 -3.72958,18.6479 -4.35118,19.2695 -14.91831,9.9455 -14.91831,-13.6751 -21.13428,-13.0535 -31.07982,1.8648 -8.70234,14.2967 -17.40469,16.1615 -24.24225,4.3512 z M 410.50572,1231.8161 c 11.81033,-28.5935 7.45915,-49.7277 -19.89108,-110.0226 -12.43192,-25.4854 -26.10704,-62.7812 -30.45822,-82.6723 -4.97277,-19.8911 -9.32394,-30.4582 -9.32394,-22.999 -0.6216,19.2694 17.4047,75.8347 36.67418,114.3737 29.83662,59.6732 29.21502,89.5098 -1.86479,123.6976 l -13.67512,14.9183 14.29672,-7.4591 c 8.08075,-4.3512 18.64788,-18.0263 24.24225,-29.8366 z m 201.39718,-95.7259 c -8.08075,-23.6206 -8.70235,-49.1061 -1.24319,-68.9971 8.70234,-22.9991 7.45915,-26.7287 -9.32395,-24.8639 -9.94554,1.2432 -21.13427,-3.7296 -33.56619,-16.7831 -16.7831,-16.1615 -18.64789,-22.3775 -18.64789,-56.56525 0,-45.99812 -5.59437,-49.7277 -56.56526,-33.5662 -19.89108,6.21597 -34.18779,12.43193 -30.45821,13.67512 3.10798,1.24319 18.64788,-2.48638 34.18779,-8.08075 38.53897,-14.91831 46.61972,-10.56714 46.61972,28.59343 0,46.61975 24.86385,80.18595 59.67324,80.18595 6.83755,0 7.45915,2.4863 2.48638,11.8103 -3.10798,6.8375 -6.21596,22.999 -6.21596,36.6742 0,24.8638 11.18873,66.5108 16.7831,60.9164 1.86479,-1.8648 0,-11.8103 -3.72958,-22.9991 z m 96.96901,-172.18212 c 17.40469,-4.35117 19.89108,-6.21596 8.70234,-6.83756 -19.89108,-0.6216 -52.21407,19.89108 -75.21313,49.10608 -29.83662,37.2958 -21.75587,36.6742 12.43192,-1.2432 21.75586,-24.24222 37.91736,-36.67415 54.07887,-41.02532 z m 75.21314,-11.81033 c -9.94554,-1.24319 -24.86385,-1.24319 -34.18779,0 -9.94554,1.24319 -1.86479,2.48639 16.7831,2.48639 18.64788,0 26.72863,-1.2432 17.40469,-2.48639 z m -344.9859,-16.7831 c -6.21597,-8.08075 -11.81033,-14.29671 -13.05352,-13.05352 -4.35118,3.72958 11.81032,27.97183 18.02629,27.97183 3.10798,0 1.24319,-6.83756 -4.97277,-14.91831 z m 292.15022,-82.6723 c -8.08075,-1.24319 -21.75587,-1.24319 -31.07981,0 -9.94554,1.2432 -3.10798,2.48639 13.67512,2.48639 17.40469,0 24.86385,-1.24319 17.40469,-2.48639 z m 189.58685,0 c -9.94554,-1.24319 -24.86385,-1.24319 -34.18779,0 -9.94554,1.2432 -1.86479,2.48639 16.7831,2.48639 18.64789,0 26.72864,-1.24319 17.40469,-2.48639 z M 661.6306,840.83203 c -8.08075,-5.59437 -18.02629,-19.26949 -22.99906,-29.83662 -4.35118,-10.56714 -8.08075,-15.53991 -8.70235,-10.56714 0,14.29671 25.48545,50.34929 36.05258,50.34929 7.45915,0 6.83755,-2.48638 -4.35117,-9.94553 z" />
  <path
     style="fill:#b597a8;stroke:none;stroke-width:0.62159622"
     inkscape:connector-curvature="0"
     id="path4034"
     d="m 723.16862,2293.5024 c -20.51268,-59.0516 -25.48545,-80.1859 -22.99906,-101.3202 1.86479,-14.9183 6.21596,-51.5924 10.56713,-82.6723 5.59437,-45.9981 4.97277,-61.538 -2.48638,-87.0234 -9.94554,-33.5662 -19.89108,-108.1578 -26.10704,-202.0188 -3.10798,-45.3765 -8.08075,-69.6188 -22.37746,-104.4282 -10.56714,-24.8638 -17.40469,-46.6197 -15.53991,-48.4845 6.21597,-6.2159 67.13239,-4.3512 73.96995,2.4864 5.59437,5.5944 8.70235,3.7296 14.29671,-6.8376 12.43193,-25.4854 23.62066,-15.5399 42.26855,39.1606 16.7831,47.8629 18.64788,60.2948 19.26948,136.7512 0,68.3756 -3.10798,100.6986 -17.40469,172.8037 l -17.4047,88.8883 21.75587,63.4028 c 19.89108,55.3221 22.99906,72.1052 24.24225,131.7784 l 1.86479,68.3756 -28.59343,1.8648 -28.59342,1.8648 z" />
  <path
     style="fill:#b597a8;stroke:none;stroke-width:0.62159622"
     inkscape:connector-curvature="0"
     id="path4036"
     d="m 555.33764,1683.0949 c -6.21596,-10.5671 -8.70235,-11.1887 -16.7831,-4.3511 -14.29671,11.1887 -16.78309,9.9455 -20.51267,-10.5672 -4.35118,-23.6206 -21.13427,-27.3502 -41.02535,-8.7023 -9.94554,9.3239 -14.91831,11.1887 -14.91831,5.5943 0,-6.8375 -1.86479,-6.8375 -7.45916,-1.2432 -10.56713,10.5672 -17.40469,9.324 -17.40469,-2.4863 0,-6.216 -3.72958,-8.7024 -9.32395,-6.216 -6.83755,2.4864 -9.32394,-1.2432 -9.32394,-14.9183 0,-22.9991 -7.45915,-23.6207 -24.24225,-2.4864 -16.7831,21.1343 -24.24226,14.9183 -29.21503,-22.3775 l -4.35117,-31.0798 -25.48545,1.2432 -25.48544,1.8648 2.48638,-21.7559 c 1.2432,-11.8103 3.10799,-31.7014 3.10799,-43.5117 0.62159,-21.1343 0,-21.7559 -24.24226,-21.7559 -18.64788,0 -24.24225,-2.4864 -22.37746,-9.3239 1.24319,-4.9728 3.72958,-17.4047 5.59436,-27.3502 3.10798,-17.4047 2.48639,-17.4047 -22.99906,-14.9184 -21.13427,1.8648 -24.86385,0.6216 -21.75587,-7.4591 2.48639,-4.9728 5.59437,-15.5399 7.45916,-23.6207 2.48638,-13.0535 1.24319,-13.6751 -14.29671,-9.9455 -15.53991,3.7296 -16.7831,3.108 -13.05352,-7.4592 14.9183,-35.4309 11.18873,-41.0253 -13.67512,-23.6206 -8.08075,5.5943 -19.26949,8.0807 -26.72864,5.5943 -11.81033,-3.7295 -13.05352,-7.4591 -9.32394,-34.8093 3.10798,-24.2423 2.48638,-31.7015 -5.59437,-34.1878 -10.56714,-4.3512 -6.21596,-31.0798 7.45916,-44.755 6.21596,-6.2159 6.83755,-11.1887 1.86478,-16.7831 -4.97277,-6.2159 -4.97277,-11.8103 1.2432,-21.7558 6.83755,-11.8104 6.21596,-14.9183 -6.83756,-25.4855 -16.1615,-13.0535 -16.1615,-13.0535 4.35117,-23.6206 16.7831,-9.324 17.4047,-26.1071 1.24319,-41.0254 -12.43192,-11.1887 -12.43192,-11.1887 4.35118,-29.215 14.91831,-15.5399 15.5399,-19.2695 9.94554,-39.1606 -6.21597,-19.8911 -5.59437,-21.7558 4.97277,-21.7558 19.26948,0 47.86291,-17.4047 52.21408,-31.7014 2.48639,-6.8376 0.6216,-21.13432 -3.72958,-31.70146 -5.59436,-14.29671 -5.59436,-19.89108 0,-22.99906 3.72958,-2.48638 5.59437,-9.32394 3.10798,-14.91831 -4.97277,-13.67511 2.48639,-25.48544 12.43193,-17.40469 4.35117,3.72958 19.26948,8.08075 34.18779,10.56714 l 26.72864,4.35117 -10.56714,-16.7831 c -8.70234,-13.67512 -9.94554,-19.89108 -4.35117,-31.70141 4.35117,-8.70234 11.18873,-15.5399 16.7831,-15.5399 4.97277,0 9.32394,-4.35118 9.32394,-9.32395 0,-4.35117 3.72958,-11.18873 8.08075,-13.67511 11.18874,-6.83756 35.43099,-58.43005 35.43099,-74.59155 0,-10.56714 4.97277,-13.05352 31.07981,-15.53991 17.4047,-1.86479 36.67418,-8.08075 43.51174,-14.29671 6.83756,-6.21596 12.43192,-9.32395 12.43192,-6.83756 0,10.56714 -26.72864,55.32206 -49.1061,80.80751 -26.10704,30.45822 -45.37653,79.56432 -52.83568,137.99436 -5.59437,39.78214 8.08075,100.07704 36.05258,160.99344 30.45822,65.2676 31.07981,90.753 5.59437,121.8329 -9.32395,11.1887 -13.05352,18.6478 -8.08075,16.7831 4.97277,-1.2432 16.1615,-12.432 23.62065,-24.2423 19.26949,-27.3502 15.53991,-64.0244 -10.56713,-115.6169 -41.02535,-82.0507 -47.86291,-157.88545 -20.51268,-229.99061 6.83756,-18.02629 10.56714,-34.18779 8.08075,-36.67418 -1.86479,-2.48638 0,-2.48638 3.72958,0 4.35117,2.48639 13.67512,1.24319 21.13427,-3.10798 19.26949,-9.94554 25.48545,3.10798 21.13427,45.37653 -3.10798,32.323 -2.48638,36.05258 11.18874,45.37652 14.29671,8.70235 18.02629,8.70235 50.34929,-3.72958 47.86291,-17.40469 53.45728,-14.29671 53.45728,31.07982 0,31.70138 2.48638,39.16058 18.02629,55.94368 9.94554,10.5671 23.62066,19.2695 29.83662,19.2695 11.18873,0 11.81033,3.7295 9.32394,33.5662 -2.48638,32.9446 7.45916,78.3211 17.4047,78.3211 2.48638,0 1.24319,-10.5672 -3.72958,-22.9991 -16.7831,-47.2413 -9.32395,-71.4835 39.16056,-131.1568 29.21502,-36.05257 44.13333,-42.26853 122.45445,-50.34928 37.29578,-4.35117 95.72582,-13.05352 129.29202,-19.89108 64.02441,-13.05352 98.83378,-11.81033 86.40188,2.48639 -4.35118,5.59436 -3.72958,13.05352 2.48638,24.86385 8.08072,15.5399 7.45912,18.02629 -6.21596,34.80939 l -14.91831,17.40473 15.53991,7.4591 c 15.53988,6.8376 16.16148,10.5672 4.35117,42.2686 -1.86479,4.3511 1.24319,9.9455 6.21596,11.8103 7.45915,2.4864 8.70235,6.8375 3.72955,19.2695 -8.70232,22.999 -6.83753,31.0798 8.7024,45.3765 13.0535,13.0535 13.0535,13.6751 1.8648,21.7559 -9.324,6.8375 -9.9456,11.1887 -4.9728,17.4047 5.5944,6.2159 4.9728,10.5671 -0.6216,16.1615 -5.5944,6.2159 -4.9728,9.3239 3.7296,15.5399 9.9455,8.0807 9.9455,8.7023 -1.8648,11.8103 -14.91832,3.7296 -16.16151,12.4319 -3.108,25.4854 13.0535,13.0536 12.4319,14.2968 -16.78309,19.2695 -21.75587,4.3512 -23.62066,5.5944 -11.18873,7.4592 26.10702,4.9727 28.59342,13.0535 9.94554,32.323 -11.81033,12.4319 -16.16151,21.7559 -13.67512,30.4582 3.10798,9.3239 0.6216,13.0535 -9.94554,15.5399 -13.67512,3.7296 -13.67512,4.3512 -3.10798,14.9183 10.56713,10.5672 9.94554,11.1887 -9.32395,18.0263 -17.40469,6.216 -20.51267,9.9455 -19.89108,26.7286 0.6216,13.0536 -1.86478,19.2695 -7.45915,19.2695 -4.97277,0 -8.70235,3.108 -8.70235,6.216 0,3.7296 -5.59436,6.216 -12.43192,6.216 -9.94554,0 -12.43193,4.3511 -12.43193,21.7558 0,34.8094 -15.5399,58.4301 -48.4845,72.1052 -16.16151,6.8375 -34.80939,18.0263 -41.64695,24.2422 -6.83756,6.216 -19.89108,14.2967 -29.21502,18.0263 -14.91831,5.5944 -17.4047,9.9456 -17.4047,31.0798 0,17.4047 -3.10798,24.8639 -10.56713,27.9719 -6.21597,1.8648 -16.16151,6.8375 -21.75587,11.1887 -9.32395,6.216 -13.67512,6.216 -24.24226,0 -9.32394,-5.5944 -14.91831,-6.216 -20.51267,-1.8648 -4.35118,3.7296 -16.78309,4.9728 -27.97183,3.108 -18.02629,-3.7296 -19.26948,-2.4864 -22.99906,15.5399 -3.72957,18.0263 -4.97277,18.6479 -14.91831,9.9455 -13.67511,-12.4319 -22.99906,-11.8103 -31.07981,3.108 -8.70235,16.1615 -16.1615,15.5399 -24.86385,-0.6216 z" />
  <path
     style="fill:#b597a8;stroke:none;stroke-width:0.62159622"
     inkscape:connector-curvature="0"
     id="path4038"
     d="m 578.9583,1036.6348 c -17.4047,-9.9455 -26.10704,-31.0798 -29.83662,-70.86193 -3.72958,-44.13333 -9.94554,-47.24132 -59.05164,-30.45822 -46.61972,15.53991 -52.83568,11.18874 -52.83568,-36.05258 0,-48.48451 -5.59437,-57.80845 -27.97183,-52.21408 l -17.4047,4.35117 19.26949,-22.37746 c 41.02535,-45.99812 44.75492,-60.29484 44.75492,-172.18216 0,-168.45259 9.94554,-298.36621 27.97184,-368.60658 8.70234,-34.18779 15.5399,-77.07793 15.5399,-96.34742 0,-18.64788 3.72958,-45.37652 7.45916,-59.05164 l 8.08075,-24.86385 1.86479,23.62066 c 1.86478,24.86385 7.45915,28.59342 19.89108,13.67511 4.97277,-5.59436 6.21596,-17.40469 3.72957,-31.07981 -4.97277,-26.107039 6.21596,-73.348352 16.7831,-69.618775 21.13427,6.837559 16.1615,100.076995 -8.70235,148.561505 -8.70234,17.40469 -15.5399,55.94366 -24.24225,142.96713 -14.91831,142.96713 -15.53991,187.10047 -3.10798,268.52957 11.18873,72.72678 11.81033,118.1033 2.48638,135.50799 -3.72957,6.83756 -5.59436,13.67512 -4.35117,14.91831 1.86479,1.2432 15.53991,-23.62065 31.70141,-55.32206 29.83662,-60.29484 83.91549,-131.77841 104.42817,-137.99438 6.83755,-2.48638 18.64788,1.2432 29.21501,8.08075 9.32395,6.83756 28.59343,18.02629 43.51174,25.48545 21.13427,10.56714 26.10704,16.7831 26.10704,30.45822 0,33.5662 -49.1061,93.23944 -98.2122,118.72489 -36.05258,19.26948 -39.78216,59.05164 -8.08075,93.23943 16.1615,17.4047 19.89108,18.02629 89.50985,22.37747 90.75305,5.59436 259.20563,-5.59437 342.49957,-22.99906 34.1878,-6.83756 72.1051,-11.18873 85.7802,-9.32395 22.9991,3.10799 91.3747,39.16057 123.0761,65.88921 l 15.5399,12.43192 -15.5399,-3.72958 c -15.5399,-3.72958 -15.5399,-3.72958 -3.7296,9.32395 16.1615,18.64788 4.9728,17.40469 -14.2967,-1.2432 -15.5399,-14.29671 -75.2131,-44.13333 -75.2131,-37.29577 0,1.86479 4.3511,11.81033 9.9455,21.75587 13.6751,27.35023 4.3512,31.07981 -15.5399,6.21596 -8.7024,-11.18873 -21.7559,-27.97183 -29.215,-36.67418 l -13.0536,-15.5399 -21.1342,13.05352 c -11.8104,6.83756 -43.5118,18.64788 -70.862,26.10704 -27.3502,6.83756 -54.7005,15.5399 -60.91643,19.26948 -14.9183,8.08075 -162.23661,34.80939 -232.47699,42.26855 -31.07981,3.10798 -65.2676,10.56713 -75.83474,15.5399 -18.02628,9.94554 -67.13239,62.78123 -64.646,70.86193 1.24319,6.8376 -31.07981,7.4592 -42.89014,0.6216 z" />
  <path
     style="fill:#b597a8;stroke:none;stroke-width:0.62159622"
     inkscape:connector-curvature="0"
     id="path4040"
     d="m 678.41369,846.42639 c -22.37746,-3.72958 -42.26854,-29.21502 -42.26854,-54.70047 0,-17.40469 5.59437,-24.24225 43.51173,-52.21408 24.24226,-18.02629 50.97089,-42.89014 59.67324,-55.32207 11.18873,-16.1615 14.91831,-18.64788 11.81033,-8.70234 -3.72958,13.67511 -3.10798,14.29671 18.02629,10.56713 22.37747,-4.35117 22.37747,-4.35117 22.37747,18.02629 v 22.37747 l 24.24225,-3.72958 24.86385,-3.72958 1.86479,32.9446 1.86479,33.5662 28.59342,0.6216 c 39.78216,0.62159 47.86291,4.97277 44.75493,22.37746 -2.48638,11.81033 1.24319,16.7831 14.91831,22.99906 16.1615,8.08075 16.7831,8.70235 4.97277,13.67512 -12.43192,4.97277 -227.50422,6.21596 -259.20563,1.24319 z" />
  <path
     style="fill:#b597a8;stroke:none;stroke-width:0.62159622"
     inkscape:connector-curvature="0"
     id="path4042"
     d="m 946.94326,829.0217 -14.29671,-15.53991 33.5662,-14.91831 c 42.26855,-19.26948 104.42815,-72.10516 115.61685,-98.2122 12.432,-28.59343 26.1071,-42.26855 56.5653,-55.32207 27.9718,-12.43194 40.4038,-9.94554 57.1869,9.32394 6.2159,8.08076 3.7295,16.16151 -18.6479,49.7277 -36.0526,55.94366 -70.2404,85.15869 -133.6432,114.99531 -63.40283,29.83662 -76.45636,31.07981 -96.34744,9.94554 z" />
  <path
     style="fill:#b597a8;stroke:none;stroke-width:0.62159622"
     inkscape:connector-curvature="0"
     id="path4044"
     d="m 567.76957,633.21887 c 3.10798,-11.81033 8.08075,-22.99906 10.56713,-24.86385 3.10798,-2.48638 17.4047,-15.53991 32.9446,-28.59343 l 27.97183,-24.24225 -34.18779,43.51174 c -45.37652,59.05165 -44.13333,57.80846 -37.29577,34.18779 z" />
  <path
     style="fill:#b597a8;stroke:none;stroke-width:0.62159622"
     inkscape:connector-curvature="0"
     id="path4046"
     d="m 725.03341,584.11277 c -17.4047,-9.94554 -39.16056,-22.99906 -47.24132,-29.83662 l -15.5399,-11.81033 18.02629,-6.83756 c 9.94554,-3.72958 16.7831,-4.35117 14.29671,-1.24319 -8.08075,13.67512 5.59437,18.02629 16.7831,4.97277 6.21596,-7.45916 11.81033,-10.56714 11.81033,-6.21596 0,4.35117 3.10798,5.59436 8.08075,3.10798 4.35117,-2.48639 5.59437,-1.86479 2.48639,1.24319 -3.10799,3.10798 -8.70235,5.59437 -11.81033,5.59437 -3.72958,0 -8.08075,3.72957 -9.94554,8.70234 -1.86479,6.21597 1.24319,8.08075 13.67511,5.59437 8.70235,-1.86479 16.16151,-0.6216 16.16151,1.86479 0,3.10798 4.97277,5.59436 11.18873,6.21596 6.83756,0 7.45915,1.24319 2.48638,3.72958 -6.21596,2.48638 -6.21596,4.97277 -0.62159,11.81033 14.91831,18.02629 0.62159,19.89108 -29.83662,3.10798 z" />
  <path
     style="fill:#e5c0d8;stroke:none;stroke-width:0.62159622"
     inkscape:connector-curvature="0"
     id="path4049"
     d="m 723.79022,2293.5024 c -21.75587,-60.2948 -26.10705,-79.5643 -22.99906,-101.3202 16.1615,-128.0488 16.78309,-138.6159 7.45915,-172.8037 -10.56714,-37.9174 -19.26948,-107.5362 -25.48545,-201.3972 -3.72957,-47.8629 -8.70234,-70.862 -22.99905,-104.4282 -9.94554,-24.2422 -16.7831,-44.7549 -15.53991,-45.9981 5.59437,-6.2159 67.75399,-3.7296 73.96995,2.4864 4.97277,4.9728 8.70235,3.7296 13.67512,-6.216 13.67511,-27.3502 21.13427,-18.6478 44.13333,52.2141 21.75587,67.1324 22.99906,73.3484 19.89108,135.508 -1.24319,36.0526 -10.56714,107.5362 -19.89108,159.7502 l -17.40469,94.4827 20.51267,54.7004 c 15.53991,41.647 22.37747,70.862 26.72864,121.8329 3.10798,36.6742 4.35117,70.862 1.86479,75.8347 -1.86479,6.216 -11.81033,9.324 -29.83662,9.324 h -26.72864 z" />
  <path
     style="fill:#e5c0d8;stroke:none;stroke-width:0.62159622"
     inkscape:connector-curvature="0"
     id="path4051"
     d="m 557.20243,1684.3381 c -4.35117,-17.4047 -20.51267,-21.7559 -31.07981,-8.7023 -6.21596,8.0807 -8.08075,8.7023 -6.21596,1.8648 6.83756,-24.8639 -22.99906,-41.647 -39.16057,-22.3775 -3.72957,4.9728 -10.56713,8.0807 -15.5399,6.216 -4.35118,-1.8648 -9.94554,-0.6216 -12.43193,3.1079 -6.21596,9.9456 -15.5399,8.0808 -15.5399,-3.1079 0,-6.216 -3.72958,-8.7024 -9.32395,-6.216 -6.83755,2.4864 -9.32394,-1.2432 -9.32394,-14.9183 0,-22.9991 -7.45915,-23.6207 -24.86385,-1.8648 -16.1615,21.1343 -23.62066,13.6751 -26.10704,-26.107 -1.86479,-27.3503 -3.10798,-30.4583 -14.29671,-28.5935 -6.83756,1.2432 -19.26949,3.108 -27.97183,3.108 -14.29672,0.6216 -15.53991,-1.2432 -13.05353,-21.1343 1.2432,-11.8103 3.10799,-31.7014 3.10799,-43.5117 0.62159,-20.5127 -0.6216,-21.7559 -22.37747,-23.6207 -24.86385,-1.8647 -27.97183,-6.8375 -17.40469,-26.107 9.32394,-17.4047 -7.45916,-31.7014 -32.32301,-26.7286 -17.40469,3.7295 -18.64789,3.1079 -11.81033,-9.324 11.81033,-21.7558 8.70235,-32.323 -9.32394,-32.323 -16.1615,0 -16.1615,-0.6216 -6.21596,-14.9183 11.81033,-19.2695 4.97277,-24.2422 -19.26949,-14.9183 -31.07981,11.8103 -40.40375,3.7296 -35.43098,-29.215 3.10798,-22.9991 1.86479,-30.4582 -6.21596,-36.0526 -9.32395,-6.8376 -9.32395,-9.324 1.86479,-29.8366 8.08075,-15.5399 9.94553,-24.8639 5.59436,-29.2151 -3.72958,-3.7295 -3.10798,-9.9455 1.86479,-18.6478 7.45915,-11.1888 6.21596,-14.9183 -6.21596,-28.5935 -13.67512,-14.9183 -13.67512,-14.9183 -1.86479,-18.6479 24.24225,-8.0807 27.97183,-19.2694 11.18873,-39.1605 l -15.5399,-18.6479 15.5399,-14.9183 c 13.05352,-12.4319 14.91831,-18.0263 11.81033,-37.2958 -3.72958,-21.7559 -3.10798,-22.999 16.1615,-26.7286 37.91737,-7.4592 51.59249,-31.7014 36.05258,-60.91646 -5.59436,-10.56713 -4.97277,-14.91831 1.86479,-19.89108 6.83756,-4.97277 7.45916,-9.32394 2.48639,-17.40469 -9.32395,-15.53991 -1.2432,-19.89108 21.75587,-11.81033 27.97183,9.32395 54.07887,9.32395 44.13333,-0.62159 -12.43193,-12.43193 -9.32395,-47.24132 4.35117,-51.59249 6.21596,-1.86479 13.05352,-9.32395 14.91831,-15.53991 1.86479,-6.83756 8.08075,-12.43192 13.67512,-12.43192 5.59436,0 8.70235,-2.48639 6.83756,-5.59437 -1.86479,-2.48638 2.48638,-15.5399 8.70234,-29.21502 6.83756,-13.05352 12.43193,-30.45822 12.43193,-37.91737 0,-12.43193 3.10798,-14.29672 27.35023,-14.29672 18.02629,0 32.32301,-4.35117 43.51174,-13.05352 8.70235,-6.83756 16.1615,-11.18873 16.1615,-8.70234 0,9.32394 -26.72864,52.83568 -49.1061,79.56431 -26.72864,32.32301 -47.24131,86.40188 -54.07887,143.58873 -4.97277,40.40377 8.70234,95.72587 37.91737,158.50707 28.59342,60.2948 29.21502,91.3746 1.86479,118.7249 -15.53991,15.5399 -16.7831,19.2694 -8.08075,18.0262 17.40469,-3.7295 40.40375,-41.0253 40.40375,-66.5108 0,-12.4319 -10.56714,-45.3765 -24.86385,-75.2131 -40.40375,-88.2667 -45.99812,-144.21032 -22.37746,-221.90985 8.08075,-25.48545 14.29671,-34.18779 30.45821,-41.64695 19.26949,-9.94554 19.89108,-9.32394 23.62066,3.72958 1.86479,7.45915 2.48638,26.10704 1.24319,41.64695 -2.48638,22.99906 -0.62159,29.83662 10.56714,40.40375 13.05352,11.81033 13.67511,11.81033 52.83568,-2.48638 22.37746,-7.45916 42.89014,-12.43193 46.61972,-9.94554 3.10798,1.86479 6.21596,20.51267 6.21596,41.02535 0,33.56619 1.86479,39.78219 18.02629,55.94369 9.94554,9.9455 24.24225,18.0263 31.07981,18.0263 11.18873,0 12.43192,2.4863 8.70235,17.4047 -6.21596,22.3774 -4.35118,54.7004 4.97277,76.4563 11.81033,29.8366 17.40469,19.8911 7.45915,-13.6751 -7.45915,-24.8639 -8.08075,-37.2958 -2.48638,-54.7005 8.70234,-29.8366 63.40281,-96.34741 85.78027,-105.04976 9.32395,-3.72958 47.86291,-9.94554 85.78028,-13.67512 37.29578,-3.72957 94.48263,-12.43192 127.42723,-19.26948 61.53803,-13.05352 93.86101,-11.81033 81.42911,2.48639 -4.35118,5.59436 -3.72958,13.05352 2.48638,24.86385 8.08072,15.5399 7.45912,18.02629 -6.21596,34.80939 l -14.91831,17.40473 15.53991,7.4591 c 15.53988,6.8376 16.16148,10.5672 4.35117,42.2686 -1.86479,4.3511 1.24319,9.9455 6.21596,11.8103 7.45915,2.4864 8.70235,6.8375 3.72955,19.2695 -8.70232,22.999 -6.83753,31.0798 8.0808,45.3765 l 14.2967,13.0535 -14.9183,11.1887 c -13.05354,9.9456 -13.67513,11.8104 -3.7296,15.54 8.7024,3.1079 9.324,5.5943 3.108,13.0535 -5.5944,6.8375 -6.216,11.1887 -0.6216,18.0263 5.5944,6.2159 4.9728,9.3239 -2.4864,12.4319 -11.81032,4.3512 -12.43192,21.7559 0,26.107 15.5399,6.216 10.5671,14.9183 -7.45915,14.9183 -9.94554,0 -21.75587,3.108 -26.72864,6.216 -7.45915,4.9728 -5.59436,6.216 6.83756,6.216 22.99903,0 26.10703,14.2967 8.08075,31.7014 -11.18873,10.5671 -14.29671,18.6479 -11.81032,28.5934 2.48638,11.1887 0.62159,14.2967 -9.32395,14.2967 -14.91831,0 -16.1615,8.0808 -2.48638,19.2695 8.08075,6.8376 6.83756,8.7023 -11.18874,14.9183 -18.02629,5.5944 -20.51267,9.324 -19.89108,26.7286 1.2432,16.1615 -1.24319,19.8911 -11.18873,19.8911 -6.21596,0 -9.94554,3.108 -8.08075,6.216 1.86479,3.7296 -1.86479,6.216 -8.70235,6.216 -10.56713,0 -13.05352,3.7295 -13.05352,18.6478 0,36.0526 -14.91831,59.0517 -47.24131,73.97 -16.7831,8.0807 -36.05258,19.2695 -42.89014,25.4854 -6.83756,6.216 -19.89108,14.2967 -29.21502,18.0263 -14.29672,4.9728 -17.4047,10.5672 -18.02629,26.7287 0,14.9183 -4.97277,24.2422 -18.64789,34.8094 -16.7831,13.6751 -19.26949,13.6751 -35.43099,5.5943 -15.5399,-7.4591 -18.64788,-7.4591 -24.24225,0.6216 -4.35117,7.4592 -9.32394,8.0808 -24.86384,2.4864 -21.13428,-6.8376 -26.72864,-1.8648 -26.72864,24.8639 0,12.4319 -0.6216,12.4319 -11.18873,3.1079 -14.91831,-13.6751 -24.24226,-13.0535 -32.32301,1.8648 -8.70235,15.5399 -18.64789,16.1615 -22.99906,0.6216 z" />
  <path
     style="fill:#e5c0d8;stroke:none;stroke-width:0.62159622"
     inkscape:connector-curvature="0"
     id="path4053"
     d="m 582.06628,1037.2564 c -19.89108,-8.0807 -32.9446,-37.91733 -32.9446,-74.59151 0,-37.29578 -8.08075,-42.89014 -45.99812,-31.70141 -14.29671,4.35117 -33.5662,8.70235 -44.13333,8.70235 l -18.64789,1.24319 -3.10798,-46.61972 -3.10798,-46.61972 -20.51268,0.6216 -19.89108,1.24319 17.4047,-19.89108 c 44.75492,-50.97089 43.51173,-44.75493 47.24131,-243.04414 3.10798,-179.01971 9.94554,-249.26009 31.70141,-322.60844 4.97277,-16.7831 9.32394,-47.86291 9.32394,-68.37559 0,-21.13427 3.72958,-49.1061 7.45916,-62.78122 l 8.08075,-24.86385 1.86479,22.99906 c 1.86478,25.48545 7.45915,29.21502 19.89108,14.29671 4.97277,-5.59436 6.21596,-17.40469 3.72957,-31.07981 -4.97277,-24.863846 7.45916,-72.726756 17.4047,-69.618775 19.89108,6.837559 13.05352,103.184975 -9.32395,148.561505 -8.08075,16.1615 -15.5399,58.43004 -24.24225,138.61596 -13.67512,127.42722 -14.91831,188.96525 -6.21596,254.85445 13.05352,90.75307 14.29671,126.18405 6.21596,146.07513 -4.35117,10.56714 -6.21596,20.51268 -4.35117,22.99906 1.86479,1.86479 14.91831,-20.51267 29.21502,-49.7277 26.72864,-56.56526 87.02347,-137.99437 106.29296,-144.21034 6.83755,-2.48638 19.26947,1.2432 29.21501,8.08075 9.32395,6.83756 28.59343,18.02629 43.51174,25.48545 21.13427,10.56714 26.10704,16.7831 26.10704,30.45822 0,34.1878 -41.64695,83.9155 -101.32018,121.83287 -34.80939,21.75587 -37.29577,55.32206 -5.59436,89.50986 16.78309,18.02629 19.89107,18.64788 90.13144,22.99906 91.37465,5.59436 267.90797,-6.21596 345.60747,-22.99906 32.323,-6.83756 68.9972,-11.18873 82.0507,-9.32395 13.0536,1.86479 47.2414,17.4047 76.4564,34.80939 55.9436,34.1878 68.9972,45.37653 45.9981,39.16057 -14.2967,-3.10799 -14.2967,-3.10799 -2.4864,9.94554 16.1615,18.64788 4.9728,17.40469 -14.2967,-1.2432 -15.5399,-14.29671 -75.2131,-44.13333 -75.2131,-37.29577 0,1.86479 4.3511,11.81033 9.9455,21.75587 4.9728,10.56713 8.0807,20.51267 6.216,22.37746 -5.5944,5.59437 -20.5127,-9.94554 -37.9174,-39.16056 -8.7024,-14.91831 -19.8911,-27.35024 -24.2423,-27.35024 -4.3511,0 -20.5126,6.83756 -35.4309,14.91831 -14.9184,8.08076 -46.6198,19.89108 -70.862,25.48545 -23.6207,5.59437 -48.48453,13.05352 -54.70049,16.1615 -13.67511,8.08075 -156.02065,35.43099 -205.74835,39.78216 -94.48263,8.70235 -89.50986,6.83756 -135.50797,53.45732 -44.75493,45.3765 -44.13334,45.3765 -65.26761,36.6741 z" />
  <path
     style="fill:#e5c0d8;stroke:none;stroke-width:0.62159622"
     inkscape:connector-curvature="0"
     id="path4055"
     d="m 684.00806,846.42639 c -18.64788,-1.86479 -26.10704,-6.83756 -35.43098,-22.37746 -21.75587,-35.43099 -17.4047,-49.7277 27.35023,-81.42911 22.37746,-15.53991 48.4845,-38.53897 59.05164,-51.59249 14.29671,-16.7831 18.02629,-19.26948 14.91831,-8.70235 -3.10798,12.43193 -1.86479,13.05353 13.05352,6.83756 25.48544,-9.32394 28.59343,-8.08075 28.59343,15.53991 v 21.75587 l 24.86385,-3.72958 24.86384,-4.35117 v 35.43098 34.80939 h 37.29578 37.29577 v 18.64789 c 0,14.91831 3.72958,20.51267 17.4047,26.10704 l 16.7831,6.83756 -18.64789,4.35117 c -19.26948,4.97277 -205.74836,6.21596 -247.3953,1.86479 z" />
  <path
     style="fill:#e5c0d8;stroke:none;stroke-width:0.62159622"
     inkscape:connector-curvature="0"
     id="path4057"
     d="m 947.56486,829.64329 -13.67512,-14.29671 32.9446,-15.53991 c 39.16056,-18.64788 108.77936,-75.83474 114.37376,-94.48262 12.4319,-39.16057 70.2403,-79.56433 95.1042,-66.5108 27.9718,14.91831 28.5934,23.62066 4.3511,59.67324 -41.6469,63.40281 -65.2676,83.91549 -130.5352,116.23849 -34.1878,16.16151 -67.75395,29.83662 -75.2131,29.83662 -7.45916,0 -19.26949,-6.83756 -27.35024,-14.91831 z" />
  <path
     style="fill:#e5c0d8;stroke:none;stroke-width:0.62159622"
     inkscape:connector-curvature="0"
     id="path4059"
     d="m 567.76957,641.29963 c 0,-15.53991 14.91831,-36.67419 42.89014,-60.91644 l 28.59342,-24.86385 -25.48544,31.07981 c -13.67512,17.4047 -29.83662,37.91737 -35.43099,46.61972 -5.59436,8.08076 -10.56713,11.81034 -10.56713,8.08076 z" />
  <path
     style="fill:#e5c0d8;stroke:none;stroke-width:0.62159622"
     inkscape:connector-curvature="0"
     id="path4061"
     d="m 723.16862,581.00479 c -19.26948,-10.56714 -41.02535,-23.62066 -48.48451,-29.21503 -13.67511,-9.94554 -13.67511,-10.56713 -1.86479,-13.67511 6.83756,-1.86479 15.53991,0.62159 19.89108,5.59436 3.72958,4.97277 9.32395,6.83756 12.43193,4.97277 3.10798,-1.86479 5.59436,-0.62159 5.59436,2.48639 0,3.10798 11.81033,8.08075 26.72864,10.56713 14.29672,2.48639 22.37747,5.59437 18.02629,7.45916 -6.21596,2.48638 -6.21596,4.97277 -0.62159,11.81033 14.91831,18.64788 0.62159,18.64788 -31.70141,0 z" />
  <path
     style="fill:#ffffff;stroke:none;stroke-width:0.62159622"
     inkscape:connector-curvature="0"
     id="path4064"
     d="m 749.27566,2356.9052 c -3.10798,-6.2159 -16.1615,-41.6469 -29.21502,-78.9427 -23.62066,-69.6188 -24.86385,-83.2939 -9.94554,-137.3727 8.08075,-31.0799 8.70235,-96.9691 0.62159,-118.1033 -9.94553,-25.4855 -18.64788,-89.5099 -24.24225,-178.3982 -5.59436,-82.6722 -6.21596,-85.1586 -42.26854,-172.1821 -3.10798,-6.8376 -0.62159,-8.0808 10.56714,-4.9728 8.08075,1.8648 19.89107,1.2432 26.10704,-2.4864 7.45915,-4.3511 11.18873,-3.7295 11.18873,0.6216 0,4.3512 3.72958,6.216 8.08075,4.3512 3.72958,-1.2432 12.43192,0 18.64789,3.108 8.08075,4.3512 11.81032,1.8648 16.78309,-10.5671 3.10799,-8.7024 8.70235,-15.54 11.81033,-15.54 3.10798,0 14.91831,28.5935 26.10704,64.0245 27.97184,84.537 28.59343,146.6967 3.10799,289.0422 l -18.64789,101.9418 22.99906,68.9972 c 17.40469,54.0788 22.99906,82.6723 25.48545,129.9136 3.10798,65.2676 1.86478,67.1324 -33.5662,67.1324 -11.18873,0 -20.51268,-4.3512 -23.62066,-10.5672 z" />
  <path
     style="fill:#ffffff;stroke:none;stroke-width:0.62159622"
     inkscape:connector-curvature="0"
     id="path4066"
     d="m 567.14797,1021.0949 c -11.18873,-11.8103 -14.29671,-21.75583 -13.67512,-41.64691 3.10798,-59.05165 -8.08075,-67.1324 -61.53802,-47.24132 -49.7277,18.64789 -54.07888,15.53991 -55.94366,-39.16056 l -1.86479,-45.37653 h -19.26949 -19.89108 l 21.75587,-24.24225 c 43.51174,-47.86291 45.37653,-56.56526 45.37653,-236.82818 0,-164.1014 7.45915,-246.7737 27.97183,-315.77089 4.97277,-17.40469 9.32394,-49.72769 9.94554,-72.10516 0,-22.37746 3.72957,-52.21408 8.70234,-65.8892 l 8.08076,-24.86385 0.62159,23.62066 c 0.6216,19.26948 2.48639,23.62065 11.81033,21.75587 8.70235,-1.86479 10.56714,-9.32395 11.18873,-42.26855 0,-22.377463 3.72958,-47.241311 8.70235,-55.322062 6.83756,-13.675118 8.08075,-14.296714 14.29671,-3.729578 9.94554,18.647887 1.2432,103.18497 -14.29671,133.64319 -26.10704,50.97089 -45.99812,321.98685 -31.07981,416.46948 13.67512,82.05071 14.29671,114.99531 3.72958,135.50799 -5.59437,11.18873 -7.45916,19.89108 -4.35118,19.89108 3.72958,0 20.51268,-27.35023 37.29578,-60.29484 35.43098,-68.37559 97.59061,-144.21033 113.13051,-136.12958 29.83661,14.91831 77.07793,45.99812 82.0507,54.70047 14.91831,23.62066 -45.99812,103.80658 -100.07699,131.77841 -33.5662,17.40469 -34.18779,55.94366 -2.48638,91.37465 l 17.40469,19.89108 99.45539,2.48638 c 109.40094,3.10798 259.82723,-8.70235 341.87793,-26.72864 47.8629,-10.56713 52.2141,-10.56713 77.6995,-0.62159 31.7014,12.43192 121.8329,69.61877 99.4554,63.40281 -12.4319,-3.72957 -14.2967,-3.10798 -10.5671,6.83756 3.7296,9.94554 2.4864,9.94554 -9.9455,-1.86479 -13.6752,-12.43192 -55.9437,-32.9446 -67.754,-32.9446 -3.108,0 0,11.18873 6.8375,24.86385 18.0263,36.05258 -0.6216,26.10704 -24.8638,-13.05352 -20.5127,-33.5662 -27.3503,-36.05258 -57.1869,-18.64789 -11.1887,6.83756 -39.7821,16.7831 -64.0244,22.99906 -23.6207,5.59437 -50.9709,14.29672 -59.67323,18.64789 -19.89108,9.94554 -165.9662,37.29578 -229.36901,42.89014 -68.99719,6.21596 -83.2939,12.43193 -119.96807,53.45732 -37.91737,41.6469 -55.32207,45.9981 -79.56432,20.5126 z" />
  <path
     style="fill:#ffffff;stroke:none;stroke-width:0.62159622"
     inkscape:connector-curvature="0"
     id="path4068"
     d="m 948.80805,829.0217 -14.29671,-13.67512 36.05258,-16.1615 c 46.61968,-22.37747 102.56338,-72.10517 119.96808,-107.53615 11.1887,-23.62066 19.2695,-31.07981 45.3765,-42.89014 28.5934,-12.43193 32.9446,-13.05352 45.3765,-4.97277 8.0808,5.59436 14.2968,14.29671 14.2968,19.89108 0,14.91831 -59.0517,97.59061 -82.6723,114.9953 -24.8639,18.64789 -106.9146,56.56526 -131.77844,60.91643 -13.67512,2.48639 -22.37747,-0.62159 -32.32301,-10.56713 z" />
  <text
     xml:space="preserve"
     style="font-style:normal;font-weight:normal;font-size:400px;line-height:1.25;font-family:sans-serif;letter-spacing:0px;word-spacing:0px;fill:#000000;fill-opacity:1;stroke:none;stroke-width:10"
     x="1188.911"
     y="1361.9801"
     id="text4081"><tspan
       sodipodi:role="line"
       id="tspan4079"
       x="1188.911"
       y="1361.9801"
       style="stroke-width:10">Belas Artes</tspan><tspan
       sodipodi:role="line"
       x="1188.911"
       y="1861.9802"
       style="stroke-width:10"
       id="tspan4083">Conservatrio de Dana</tspan></text>
</svg>
