<?xml version="1.0" encoding="UTF-8" standalone="no"?>
<!-- Created with Inkscape (http://www.inkscape.org/) -->

<svg
   xmlns:dc="http://purl.org/dc/elements/1.1/"
   xmlns:cc="http://creativecommons.org/ns#"
   xmlns:rdf="http://www.w3.org/1999/02/22-rdf-syntax-ns#"
   xmlns:svg="http://www.w3.org/2000/svg"
   xmlns="http://www.w3.org/2000/svg"
   xmlns:sodipodi="http://sodipodi.sourceforge.net/DTD/sodipodi-0.dtd"
   xmlns:inkscape="http://www.inkscape.org/namespaces/inkscape"
   width="87.397133mm"
   height="87.397133mm"
   viewBox="0 0 87.397133 87.397132"
   version="1.1"
   id="svg2123"
   inkscape:version="0.92.4 (5da689c313, 2019-01-14)"
   sodipodi:docname="wb-logo_o_.svg">
  <defs
     id="defs2117" />
  <sodipodi:namedview
     id="base"
     pagecolor="#ffffff"
     bordercolor="#666666"
     borderopacity="1.0"
     inkscape:pageopacity="0.0"
     inkscape:pageshadow="2"
     inkscape:zoom="0.7"
     inkscape:cx="-115.41794"
     inkscape:cy="144.60559"
     inkscape:document-units="mm"
     inkscape:current-layer="layer1"
     showgrid="false"
     showguides="true"
     inkscape:guide-bbox="true"
     inkscape:window-width="1920"
     inkscape:window-height="1001"
     inkscape:window-x="-9"
     inkscape:window-y="-9"
     inkscape:window-maximized="1">
    <sodipodi:guide
       position="-28.614537,-27.511501"
       orientation="0,1"
       id="guide2849"
       inkscape:locked="false" />
  </sodipodi:namedview>
  <metadata
     id="metadata2120">
    <rdf:RDF>
      <cc:Work
         rdf:about="">
        <dc:format>image/svg+xml</dc:format>
        <dc:type
           rdf:resource="http://purl.org/dc/dcmitype/StillImage" />
        <dc:title></dc:title>
      </cc:Work>
    </rdf:RDF>
  </metadata>
  <g
     inkscape:label="Layer 1"
     inkscape:groupmode="layer"
     id="layer1"
     transform="translate(-19.921086,-100.82647)">
    <path
       style="fill:none;stroke:#000000;stroke-width:0.76499999;stroke-linecap:butt;stroke-linejoin:miter;stroke-miterlimit:4;stroke-dasharray:none;stroke-opacity:1"
       d="m 14.834024,194.76156 1.7009,6.61459 1.41741,-3.02381"
       id="path2689-3"
       inkscape:connector-curvature="0" />
    <path
       style="fill:none;stroke:#000000;stroke-width:0.76499999;stroke-linecap:butt;stroke-linejoin:miter;stroke-miterlimit:4;stroke-dasharray:none;stroke-opacity:1"
       d="m 18.457874,197.05776 1.88988,4.34673 1.70089,-6.52009"
       id="path2691-7"
       inkscape:connector-curvature="0" />
    <path
       style="fill:none;stroke:#000000;stroke-width:0.66500002;stroke-linecap:butt;stroke-linejoin:miter;stroke-miterlimit:4;stroke-dasharray:none;stroke-opacity:1"
       d="m 27.065564,195.55153 -0.003,7.08769"
       id="path2693-3"
       inkscape:connector-curvature="0" />
    <path
       style="fill:none;stroke:#000000;stroke-width:0.66500002;stroke-linecap:butt;stroke-linejoin:miter;stroke-miterlimit:4;stroke-dasharray:none;stroke-opacity:1"
       d="m 31.424654,195.32701 c 2.66234,-0.27975 4.572675,0.41811 4.724697,3.40178 -0.331332,3.28655 -2.302897,3.70269 -4.630207,3.49628 z"
       id="path2695-8"
       inkscape:connector-curvature="0"
       sodipodi:nodetypes="cccc" />
    <path
       style="fill:none;stroke:#000000;stroke-width:0.76499999;stroke-linecap:butt;stroke-linejoin:miter;stroke-miterlimit:4;stroke-dasharray:none;stroke-opacity:1"
       d="m 42.979748,199.75896 2.220608,0.0473 -0.04725,2.26786"
       id="path2699-9"
       inkscape:connector-curvature="0" />
    <path
       style="fill:none;stroke:#000000;stroke-width:0.76499999;stroke-linecap:butt;stroke-linejoin:miter;stroke-miterlimit:4;stroke-dasharray:none;stroke-opacity:1"
       d="m 43.903102,201.36674 c -0.06888,0.28779 -0.355931,0.5363 -0.803201,0.75596 -0.611669,0.10041 -1.240798,0.16008 -1.984375,-0.0473 -0.612678,-0.21203 -0.971876,-0.76204 -1.322916,-1.32292 -0.133244,-1.10647 -0.261789,-2.22412 -0.04725,-4.15774 0.376624,-0.50434 0.795045,-0.99727 1.653646,-1.37016 0.884422,-0.0742 1.672926,-0.0894 1.984375,0.18899 0.491625,0.29526 0.953026,0.62578 1.181176,1.22842 l 0.04725,1.03944"
       id="path2701-7"
       inkscape:connector-curvature="0"
       sodipodi:nodetypes="ccccccccc" />
    <path
       style="fill:none;stroke:#000000;stroke-width:0.76499999;stroke-linecap:butt;stroke-linejoin:miter;stroke-miterlimit:4;stroke-dasharray:none;stroke-opacity:1"
       d="m 53.174983,202.24616 h -3.96875 l 0.0945,-3.87425 h 3.212796"
       id="path2703-1"
       inkscape:connector-curvature="0" />
    <path
       style="fill:none;stroke:#000000;stroke-width:0.76499999;stroke-linecap:butt;stroke-linejoin:miter;stroke-miterlimit:4;stroke-dasharray:none;stroke-opacity:1"
       d="m 49.333564,197.63901 -0.03341,-1.83747 4.276313,0.0668"
       id="path2705-6"
       inkscape:connector-curvature="0" />
    <path
       style="fill:none;stroke:#000000;stroke-width:0.76499999;stroke-linecap:butt;stroke-linejoin:miter;stroke-miterlimit:4;stroke-dasharray:none;stroke-opacity:1"
       d="m 56.439319,195.78182 4.820109,0.0117"
       id="path2707-8"
       inkscape:connector-curvature="0" />
    <path
       style="fill:none;stroke:#000000;stroke-width:0.76499999;stroke-linecap:butt;stroke-linejoin:miter;stroke-miterlimit:4;stroke-dasharray:none;stroke-opacity:1"
       d="m 58.750987,196.96847 0.0078,5.67043"
       id="path2709-3"
       inkscape:connector-curvature="0" />
    <path
       style="fill:none;stroke:#000000;stroke-width:0.76499999;stroke-linecap:butt;stroke-linejoin:miter;stroke-miterlimit:4;stroke-dasharray:none;stroke-opacity:1"
       d="m 68.811824,196.88794 c -0.08646,-0.86628 -0.84088,-1.62299 -1.913506,-1.77176 -1.161706,0.0982 -1.499566,1.18564 -1.630019,1.88988 0.3066,1.28635 0.900941,1.54441 1.441032,1.74814"
       id="path2711-4"
       inkscape:connector-curvature="0"
       sodipodi:nodetypes="cccc" />
    <path
       style="fill:none;stroke:#000000;stroke-width:0.76499999;stroke-linecap:butt;stroke-linejoin:miter;stroke-miterlimit:4;stroke-dasharray:none;stroke-opacity:1"
       d="m 67.205425,198.84869 c 0.433099,0.14021 0.866198,0.1107 1.299297,0.96857 0.110408,0.3174 0.256289,1.04411 -0.07087,1.65364 -0.25634,0.24237 -0.391283,0.50207 -1.06306,0.68509 -0.441187,0.14119 -0.944724,0.12649 -1.511903,-0.0473 -0.70013,-0.3037 -0.901298,-0.98161 -1.110305,-1.65365"
       id="path2713-1"
       inkscape:connector-curvature="0"
       sodipodi:nodetypes="cccccc" />
    <path
       style="fill:none;stroke:#000000;stroke-width:0.76499999;stroke-linecap:butt;stroke-linejoin:miter;stroke-miterlimit:4;stroke-dasharray:none;stroke-opacity:1"
       d="m 74.879086,198.68306 h -1.77177 l -0.0236,3.56715 3.59078,-0.0236 c 0.68326,-0.26955 0.93281,-0.97282 1.18117,-1.67727 -0.13296,-0.94411 -0.65879,-1.39711 -1.13392,-1.9135 l -1.03944,0.0236"
       id="path2717-5"
       inkscape:connector-curvature="0"
       sodipodi:nodetypes="ccccccc" />
    <path
       style="fill:none;stroke:#000000;stroke-width:0.76499999;stroke-linecap:butt;stroke-linejoin:miter;stroke-miterlimit:4;stroke-dasharray:none;stroke-opacity:1"
       d="m 73.107316,198.68306 -0.0709,-3.23642 3.75614,0.0709 c 0.55175,0.39617 0.73697,0.91452 0.75595,1.48828 -0.10587,0.82624 -0.45868,1.24093 -0.82683,1.63005"
       id="path2719-8"
       inkscape:connector-curvature="0"
       sodipodi:nodetypes="ccccc" />
    <path
       style="fill:none;stroke:#000000;stroke-width:0.76499999;stroke-linecap:butt;stroke-linejoin:miter;stroke-miterlimit:4;stroke-dasharray:none;stroke-opacity:1"
       d="m 81.571462,202.6389 v -2.38598 l 2.95294,0.0472 1.88988,2.22061"
       id="path2721-9"
       inkscape:connector-curvature="0" />
    <path
       style="fill:none;stroke:#000000;stroke-width:0.76499999;stroke-linecap:butt;stroke-linejoin:miter;stroke-miterlimit:4;stroke-dasharray:none;stroke-opacity:1"
       d="m 81.571462,200.25292 0.0473,-4.41759 3.04743,-0.0473 c 0.84274,0.37116 1.434,0.85008 1.65364,1.48828 v 1.58278 c -0.095,0.71561 -0.44693,0.91726 -0.80319,1.1103"
       id="path2723-1"
       inkscape:connector-curvature="0"
       sodipodi:nodetypes="cccccc" />
    <path
       style="fill:none;stroke:#000000;stroke-width:0.76499999;stroke-linecap:butt;stroke-linejoin:miter;stroke-miterlimit:4;stroke-dasharray:none;stroke-opacity:1"
       d="m 90.16416,202.47603 2.88207,-6.77995 2.88207,6.7327"
       id="path2725-5"
       inkscape:connector-curvature="0" />
    <path
       style="fill:none;stroke:#000000;stroke-width:0.76499999;stroke-linecap:butt;stroke-linejoin:miter;stroke-miterlimit:4;stroke-dasharray:none;stroke-opacity:1"
       d="m 92.03042,200.49166 h 2.17336"
       id="path2729-7"
       inkscape:connector-curvature="0" />
    <path
       style="fill:none;stroke:#000000;stroke-width:0.66500002;stroke-linecap:butt;stroke-linejoin:miter;stroke-miterlimit:4;stroke-dasharray:none;stroke-opacity:1"
       d="m 110.66077,195.52823 v 6.26023"
       id="path2731-9"
       inkscape:connector-curvature="0" />
    <path
       style="fill:none;stroke:#000000;stroke-width:0.61199999;stroke-linecap:butt;stroke-linejoin:miter;stroke-miterlimit:4;stroke-dasharray:none;stroke-opacity:1"
       d="m 110.31833,202.28124 h 1.1084 3.02096"
       id="path2733-9"
       inkscape:connector-curvature="0"
       sodipodi:nodetypes="ccc" />
    <path
       style="fill:none;stroke:#000000;stroke-width:0.66500002;stroke-linecap:butt;stroke-linejoin:miter;stroke-miterlimit:4;stroke-dasharray:none;stroke-opacity:1"
       d="m 106.64478,195.55185 0.0945,7.08705"
       id="path2693-7-7"
       inkscape:connector-curvature="0" />
    <path
       style="fill:none;stroke:#000000;stroke-width:0.76499999;stroke-linecap:butt;stroke-linejoin:miter;stroke-miterlimit:4;stroke-dasharray:none;stroke-opacity:1"
       d="m 102.91842,196.88849 c -0.0865,-0.86628 -0.84088,-1.62299 -1.91351,-1.77176 -1.1617,0.0982 -1.499559,1.18564 -1.630016,1.88988 0.306597,1.28635 0.900936,1.54441 1.441036,1.74814"
       id="path2711-2-3"
       inkscape:connector-curvature="0"
       sodipodi:nodetypes="cccc" />
    <path
       style="fill:none;stroke:#000000;stroke-width:0.76499999;stroke-linecap:butt;stroke-linejoin:miter;stroke-miterlimit:4;stroke-dasharray:none;stroke-opacity:1"
       d="m 101.31202,198.84924 c 0.4331,0.14021 0.86619,0.1107 1.2993,0.96857 0.1104,0.3174 0.25628,1.04411 -0.0709,1.65364 -0.25634,0.24237 -0.39129,0.50207 -1.06306,0.68509 -0.44119,0.14119 -0.94473,0.12649 -1.5119,-0.0473 -0.700136,-0.3037 -0.901296,-0.98161 -1.110304,-1.65365"
       id="path2713-0-7"
       inkscape:connector-curvature="0"
       sodipodi:nodetypes="cccccc" />
    <g
       id="g3451"
       transform="translate(-2.4054257,1.3363476)">
      <circle
         r="43.698566"
         cy="143.18869"
         cx="66.025078"
         id="path3445"
         style="fill:#000000;fill-opacity:1;stroke:none;stroke-width:4.46500015;stroke-linecap:round;stroke-linejoin:round;stroke-miterlimit:4;stroke-dasharray:none;stroke-opacity:1" />
      <path
         inkscape:connector-curvature="0"
         id="path3439"
         d="m 37.15996,129.29066 8.68626,25.79151 9.621704,-24.9897"
         style="fill:none;stroke:#ffffff;stroke-width:4.76499987;stroke-linecap:round;stroke-linejoin:round;stroke-miterlimit:4;stroke-dasharray:none;stroke-opacity:1" />
      <path
         sodipodi:nodetypes="ccc"
         inkscape:connector-curvature="0"
         id="path3441"
         d="m 63.619645,129.0234 c -3.216954,8.89359 -6.803054,19.42916 -9.354435,26.32604 l -3.875408,-11.09169"
         style="fill:none;stroke:#ffffff;stroke-width:4.46500015;stroke-linecap:round;stroke-linejoin:round;stroke-miterlimit:4;stroke-dasharray:none;stroke-opacity:1" />
      <path
         sodipodi:nodetypes="ccccccccc"
         inkscape:connector-curvature="0"
         id="path3443"
         d="m 81.393066,146.12864 -9.220797,-9.48806 0.133635,-7.75082 13.49711,0.13363 c 3.02078,1.38917 4.997281,3.82262 5.879931,7.34992 -0.794735,3.51694 -2.598478,4.72161 -3.741775,6.14719 2.666528,2.20688 4.320433,4.38998 2.271792,9.88898 -3.160868,3.39279 -5.444281,2.71135 -8.953529,2.93996 l -8.953529,-8.68626"
         style="fill:none;stroke:#ffffff;stroke-width:4.46500015;stroke-linecap:round;stroke-linejoin:round;stroke-miterlimit:4;stroke-dasharray:none;stroke-opacity:1" />
    </g>
  </g>
</svg>
