<?xml version="1.0" encoding="UTF-8" standalone="no"?>
<!-- Created with Inkscape (http://www.inkscape.org/) -->

<svg
   xmlns:dc="http://purl.org/dc/elements/1.1/"
   xmlns:cc="http://creativecommons.org/ns#"
   xmlns:rdf="http://www.w3.org/1999/02/22-rdf-syntax-ns#"
   xmlns:svg="http://www.w3.org/2000/svg"
   xmlns="http://www.w3.org/2000/svg"
   xmlns:sodipodi="http://sodipodi.sourceforge.net/DTD/sodipodi-0.dtd"
   xmlns:inkscape="http://www.inkscape.org/namespaces/inkscape"
   width="109.16359mm"
   height="65.217567mm"
   viewBox="0 0 109.16359 65.217567"
   version="1.1"
   id="svg2123"
   inkscape:version="0.92.4 (5da689c313, 2019-01-14)"
   sodipodi:docname="wb-logo.svg">
  <defs
     id="defs2117" />
  <sodipodi:namedview
     id="base"
     pagecolor="#ffffff"
     bordercolor="#666666"
     borderopacity="1.0"
     inkscape:pageopacity="0.0"
     inkscape:pageshadow="2"
     inkscape:zoom="0.98994949"
     inkscape:cx="512.23218"
     inkscape:cy="279.19709"
     inkscape:document-units="mm"
     inkscape:current-layer="layer1"
     showgrid="false"
     showguides="true"
     inkscape:guide-bbox="true"
     inkscape:window-width="1920"
     inkscape:window-height="1001"
     inkscape:window-x="-9"
     inkscape:window-y="-9"
     inkscape:window-maximized="1">
    <sodipodi:guide
       position="-18.191017,-2.3881735"
       orientation="0,1"
       id="guide2849"
       inkscape:locked="false" />
  </sodipodi:namedview>
  <metadata
     id="metadata2120">
    <rdf:RDF>
      <cc:Work
         rdf:about="">
        <dc:format>image/svg+xml</dc:format>
        <dc:type
           rdf:resource="http://purl.org/dc/dcmitype/StillImage" />
        <dc:title></dc:title>
      </cc:Work>
    </rdf:RDF>
  </metadata>
  <g
     inkscape:label="Layer 1"
     inkscape:groupmode="layer"
     id="layer1"
     transform="translate(-9.4975643,-148.12937)">
    <rect
       style="fill:#000000;stroke:none;stroke-width:0.25966024"
       id="rect2679"
       width="109.16359"
       height="64.642197"
       x="9.4975643"
       y="148.70474"
       ry="2.0518956"
       rx="2.0788691" />
    <ellipse
       style="fill:none;stroke:#ffffff;stroke-width:7.76100016;stroke-miterlimit:4;stroke-dasharray:none;stroke-opacity:1"
       id="path2681"
       cx="96.995636"
       cy="175.98894"
       rx="12.498437"
       ry="12.961964" />
    <rect
       style="fill:none;stroke:#ffffff;stroke-width:6.80000162;stroke-miterlimit:4;stroke-dasharray:none;stroke-opacity:1"
       id="rect2683"
       width="0.66505146"
       height="22.015957"
       x="84.041885"
       y="151.52937" />
    <path
       style="fill:#ffffff;fill-opacity:1;stroke:#ffffff;stroke-width:0.26458332px;stroke-linecap:butt;stroke-linejoin:miter;stroke-opacity:1"
       d="m 16.007292,155.8259 h 8.220982 l -0.283482,18.70982 c 1.190025,4.30376 4.480747,7.15938 8.504465,7.37053 4.069362,-0.28738 7.631647,-1.70161 9.449405,-6.99256 l 0.09449,-19.18229 h 8.031993 v 18.52083 c 1.031343,4.72945 4.417941,7.61763 9.165923,7.37054 4.959822,0.22396 7.694017,-3.08284 8.882441,-6.70908 l -0.0945,-19.18229 8.121248,0.0444 c 0.125993,6.3626 0.146522,13.03112 0.0052,19.32689 -1.154801,5.59766 -4.693556,13.00551 -16.347463,14.74107 -6.114209,0.39003 -10.088504,-2.53041 -13.701637,-6.14211 -3.241714,3.58648 -6.72695,6.12876 -13.890625,5.95313 -7.9759,-1.11941 -15.725227,-5.79124 -16.34747,-16.15849 z"
       id="path2687"
       inkscape:connector-curvature="0"
       sodipodi:nodetypes="cccccccccccccccccc" />
    <path
       style="fill:none;stroke:#ffffff;stroke-width:0.76499999;stroke-linecap:butt;stroke-linejoin:miter;stroke-miterlimit:4;stroke-dasharray:none;stroke-opacity:1"
       d="m 15.8681,196.69567 1.700892,6.61459 1.417411,-3.02381"
       id="path2689-3"
       inkscape:connector-curvature="0" />
    <path
       style="fill:none;stroke:#ffffff;stroke-width:0.76499999;stroke-linecap:butt;stroke-linejoin:miter;stroke-miterlimit:4;stroke-dasharray:none;stroke-opacity:1"
       d="m 19.491946,198.99187 1.88988,4.34673 1.700895,-6.52009"
       id="path2691-7"
       inkscape:connector-curvature="0" />
    <path
       style="fill:none;stroke:#ffffff;stroke-width:0.66500002;stroke-linecap:butt;stroke-linejoin:miter;stroke-miterlimit:4;stroke-dasharray:none;stroke-opacity:1"
       d="m 28.09964,197.48564 -0.003,7.08769"
       id="path2693-3"
       inkscape:connector-curvature="0" />
    <path
       style="fill:none;stroke:#ffffff;stroke-width:0.66500002;stroke-linecap:butt;stroke-linejoin:miter;stroke-miterlimit:4;stroke-dasharray:none;stroke-opacity:1"
       d="m 32.458725,197.26112 c 2.662341,-0.27975 4.57268,0.41811 4.724702,3.40178 -0.331332,3.28655 -2.302899,3.70269 -4.630209,3.49628 z"
       id="path2695-8"
       inkscape:connector-curvature="0"
       sodipodi:nodetypes="cccc" />
    <path
       style="fill:none;stroke:#ffffff;stroke-width:0.76499999;stroke-linecap:butt;stroke-linejoin:miter;stroke-miterlimit:4;stroke-dasharray:none;stroke-opacity:1"
       d="m 44.013824,201.69307 2.220608,0.0473 -0.04725,2.26786"
       id="path2699-9"
       inkscape:connector-curvature="0" />
    <path
       style="fill:none;stroke:#ffffff;stroke-width:0.76499999;stroke-linecap:butt;stroke-linejoin:miter;stroke-miterlimit:4;stroke-dasharray:none;stroke-opacity:1"
       d="m 44.937178,203.30085 c -0.06888,0.28779 -0.355931,0.5363 -0.803201,0.75596 -0.611669,0.10041 -1.240798,0.16008 -1.984375,-0.0473 -0.612678,-0.21203 -0.971876,-0.76204 -1.322916,-1.32292 -0.133244,-1.10647 -0.261789,-2.22412 -0.04725,-4.15774 0.376624,-0.50434 0.795045,-0.99727 1.653646,-1.37016 0.884422,-0.0742 1.672926,-0.0894 1.984375,0.18899 0.491625,0.29526 0.953026,0.62578 1.181176,1.22842 l 0.04725,1.03944"
       id="path2701-7"
       inkscape:connector-curvature="0"
       sodipodi:nodetypes="ccccccccc" />
    <path
       style="fill:none;stroke:#ffffff;stroke-width:0.76499999;stroke-linecap:butt;stroke-linejoin:miter;stroke-miterlimit:4;stroke-dasharray:none;stroke-opacity:1"
       d="m 54.209059,204.18027 h -3.96875 l 0.0945,-3.87425 h 3.212796"
       id="path2703-1"
       inkscape:connector-curvature="0" />
    <path
       style="fill:none;stroke:#ffffff;stroke-width:0.76499999;stroke-linecap:butt;stroke-linejoin:miter;stroke-miterlimit:4;stroke-dasharray:none;stroke-opacity:1"
       d="m 50.36764,199.57312 -0.03341,-1.83747 4.276313,0.0668"
       id="path2705-6"
       inkscape:connector-curvature="0" />
    <path
       style="fill:none;stroke:#ffffff;stroke-width:0.76499999;stroke-linecap:butt;stroke-linejoin:miter;stroke-miterlimit:4;stroke-dasharray:none;stroke-opacity:1"
       d="m 57.473395,197.71593 4.820109,0.0117"
       id="path2707-8"
       inkscape:connector-curvature="0" />
    <path
       style="fill:none;stroke:#ffffff;stroke-width:0.76499999;stroke-linecap:butt;stroke-linejoin:miter;stroke-miterlimit:4;stroke-dasharray:none;stroke-opacity:1"
       d="m 59.785063,198.90258 0.0078,5.67043"
       id="path2709-3"
       inkscape:connector-curvature="0" />
    <path
       style="fill:none;stroke:#ffffff;stroke-width:0.76499999;stroke-linecap:butt;stroke-linejoin:miter;stroke-miterlimit:4;stroke-dasharray:none;stroke-opacity:1"
       d="m 69.8459,198.82205 c -0.08646,-0.86628 -0.84088,-1.62299 -1.913506,-1.77176 -1.161706,0.0982 -1.499566,1.18564 -1.630019,1.88988 0.3066,1.28635 0.900941,1.54441 1.441032,1.74814"
       id="path2711-4"
       inkscape:connector-curvature="0"
       sodipodi:nodetypes="cccc" />
    <path
       style="fill:none;stroke:#ffffff;stroke-width:0.76499999;stroke-linecap:butt;stroke-linejoin:miter;stroke-miterlimit:4;stroke-dasharray:none;stroke-opacity:1"
       d="m 68.239501,200.7828 c 0.433099,0.14021 0.866198,0.1107 1.299297,0.96857 0.110408,0.3174 0.256289,1.04411 -0.07087,1.65364 -0.25634,0.24237 -0.391283,0.50207 -1.06306,0.68509 -0.441187,0.14119 -0.944724,0.12649 -1.511903,-0.0473 -0.70013,-0.3037 -0.901298,-0.98161 -1.110305,-1.65365"
       id="path2713-1"
       inkscape:connector-curvature="0"
       sodipodi:nodetypes="cccccc" />
    <path
       style="fill:none;stroke:#ffffff;stroke-width:0.76499999;stroke-linecap:butt;stroke-linejoin:miter;stroke-miterlimit:4;stroke-dasharray:none;stroke-opacity:1"
       d="m 75.913162,200.61717 h -1.77177 l -0.0236,3.56715 3.59078,-0.0236 c 0.68326,-0.26955 0.93281,-0.97282 1.18117,-1.67727 -0.13296,-0.94411 -0.65879,-1.39711 -1.13392,-1.9135 l -1.03944,0.0236"
       id="path2717-5"
       inkscape:connector-curvature="0"
       sodipodi:nodetypes="ccccccc" />
    <path
       style="fill:none;stroke:#ffffff;stroke-width:0.76499999;stroke-linecap:butt;stroke-linejoin:miter;stroke-miterlimit:4;stroke-dasharray:none;stroke-opacity:1"
       d="m 74.141392,200.61717 -0.0709,-3.23642 3.75614,0.0709 c 0.55175,0.39617 0.73697,0.91452 0.75595,1.48828 -0.10587,0.82624 -0.45868,1.24093 -0.82683,1.63005"
       id="path2719-8"
       inkscape:connector-curvature="0"
       sodipodi:nodetypes="ccccc" />
    <path
       style="fill:none;stroke:#ffffff;stroke-width:0.76499999;stroke-linecap:butt;stroke-linejoin:miter;stroke-miterlimit:4;stroke-dasharray:none;stroke-opacity:1"
       d="m 82.605538,204.57301 v -2.38598 l 2.95294,0.0472 1.88988,2.22061"
       id="path2721-9"
       inkscape:connector-curvature="0" />
    <path
       style="fill:none;stroke:#ffffff;stroke-width:0.76499999;stroke-linecap:butt;stroke-linejoin:miter;stroke-miterlimit:4;stroke-dasharray:none;stroke-opacity:1"
       d="m 82.605538,202.18703 0.0473,-4.41759 3.04743,-0.0473 c 0.84274,0.37116 1.434,0.85008 1.65364,1.48828 v 1.58278 c -0.095,0.71561 -0.44693,0.91726 -0.80319,1.1103"
       id="path2723-1"
       inkscape:connector-curvature="0"
       sodipodi:nodetypes="cccccc" />
    <path
       style="fill:none;stroke:#ffffff;stroke-width:0.76499999;stroke-linecap:butt;stroke-linejoin:miter;stroke-miterlimit:4;stroke-dasharray:none;stroke-opacity:1"
       d="m 91.198236,204.41014 2.88207,-6.77995 2.88207,6.7327"
       id="path2725-5"
       inkscape:connector-curvature="0" />
    <path
       style="fill:none;stroke:#ffffff;stroke-width:0.76499999;stroke-linecap:butt;stroke-linejoin:miter;stroke-miterlimit:4;stroke-dasharray:none;stroke-opacity:1"
       d="m 93.064496,202.42577 h 2.17336"
       id="path2729-7"
       inkscape:connector-curvature="0" />
    <path
       style="fill:none;stroke:#ffffff;stroke-width:0.66500002;stroke-linecap:butt;stroke-linejoin:miter;stroke-miterlimit:4;stroke-dasharray:none;stroke-opacity:1"
       d="m 111.69485,197.46234 v 6.26023"
       id="path2731-9"
       inkscape:connector-curvature="0" />
    <path
       style="fill:none;stroke:#ffffff;stroke-width:0.61199999;stroke-linecap:butt;stroke-linejoin:miter;stroke-miterlimit:4;stroke-dasharray:none;stroke-opacity:1"
       d="m 111.35241,204.21535 h 1.1084 3.02096"
       id="path2733-9"
       inkscape:connector-curvature="0"
       sodipodi:nodetypes="ccc" />
    <path
       style="fill:none;stroke:#ffffff;stroke-width:0.66500002;stroke-linecap:butt;stroke-linejoin:miter;stroke-miterlimit:4;stroke-dasharray:none;stroke-opacity:1"
       d="m 107.67886,197.48596 0.0945,7.08705"
       id="path2693-7-7"
       inkscape:connector-curvature="0" />
    <path
       style="fill:none;stroke:#ffffff;stroke-width:0.76499999;stroke-linecap:butt;stroke-linejoin:miter;stroke-miterlimit:4;stroke-dasharray:none;stroke-opacity:1"
       d="m 103.9525,198.8226 c -0.0865,-0.86628 -0.84088,-1.62299 -1.91351,-1.77176 -1.1617,0.0982 -1.49956,1.18564 -1.63002,1.88988 0.3066,1.28635 0.90094,1.54441 1.44104,1.74814"
       id="path2711-2-3"
       inkscape:connector-curvature="0"
       sodipodi:nodetypes="cccc" />
    <path
       style="fill:none;stroke:#ffffff;stroke-width:0.76499999;stroke-linecap:butt;stroke-linejoin:miter;stroke-miterlimit:4;stroke-dasharray:none;stroke-opacity:1"
       d="m 102.3461,200.78335 c 0.4331,0.14021 0.86619,0.1107 1.2993,0.96857 0.1104,0.3174 0.25628,1.04411 -0.0709,1.65364 -0.25634,0.24237 -0.39129,0.50207 -1.06306,0.68509 -0.44119,0.14119 -0.94473,0.12649 -1.5119,-0.0473 -0.70014,-0.3037 -0.9013,-0.98161 -1.110308,-1.65365"
       id="path2713-0-7"
       inkscape:connector-curvature="0"
       sodipodi:nodetypes="cccccc" />
  </g>
</svg>
