<?xml version="1.0" encoding="UTF-8" standalone="no"?>
<!-- Created with Inkscape (http://www.inkscape.org/) -->

<svg
   xmlns:dc="http://purl.org/dc/elements/1.1/"
   xmlns:cc="http://creativecommons.org/ns#"
   xmlns:rdf="http://www.w3.org/1999/02/22-rdf-syntax-ns#"
   xmlns:svg="http://www.w3.org/2000/svg"
   xmlns="http://www.w3.org/2000/svg"
   xmlns:sodipodi="http://sodipodi.sourceforge.net/DTD/sodipodi-0.dtd"
   xmlns:inkscape="http://www.inkscape.org/namespaces/inkscape"
   width="31.396391mm"
   height="62.103996mm"
   viewBox="0 0 31.396391 62.103996"
   version="1.1"
   id="svg945"
   inkscape:version="0.92.4 (5da689c313, 2019-01-14)"
   sodipodi:docname="wp-icon.svg">
  <defs
     id="defs939" />
  <sodipodi:namedview
     id="base"
     pagecolor="#ffffff"
     bordercolor="#666666"
     borderopacity="1.0"
     inkscape:pageopacity="0.0"
     inkscape:pageshadow="2"
     inkscape:zoom="0.98994949"
     inkscape:cx="367.1075"
     inkscape:cy="51.438326"
     inkscape:document-units="mm"
     inkscape:current-layer="layer1"
     showgrid="false"
     inkscape:window-width="1920"
     inkscape:window-height="1001"
     inkscape:window-x="-9"
     inkscape:window-y="-9"
     inkscape:window-maximized="1" />
  <metadata
     id="metadata942">
    <rdf:RDF>
      <cc:Work
         rdf:about="">
        <dc:format>image/svg+xml</dc:format>
        <dc:type
           rdf:resource="http://purl.org/dc/dcmitype/StillImage" />
        <dc:title></dc:title>
      </cc:Work>
    </rdf:RDF>
  </metadata>
  <g
     inkscape:label="Layer 1"
     inkscape:groupmode="layer"
     id="layer1"
     transform="translate(-15.869984,-19.507525)">
    <path
       style="fill:#211915;stroke:none;stroke-width:0.0164464"
       inkscape:connector-curvature="0"
       id="path3958"
       d="m 31.337595,79.753081 c -0.88811,-2.41762 -0.97034,-3.009691 -0.60852,-4.144492 0.31248,-1.036124 0.27959,-2.368283 -0.13157,-4.489868 -0.14802,-0.756534 -0.32893,-2.302497 -0.37827,-3.453744 -0.0822,-1.661086 -0.19735,-2.302497 -0.50984,-3.10837 -0.41116,-1.019678 -0.70719,-1.332158 -0.70719,-0.740087 -0.0164,0.213802 -0.0987,0.164462 -0.44405,-0.213805 l -0.42761,-0.476945 -0.2467,0.361823 c -0.26314,0.394713 -0.82232,0.493389 -0.95389,0.148015 -0.0822,-0.230248 -0.62496,-0.263141 -0.82232,-0.06579 -0.27959,0.279591 -0.4276,0.06579 -0.34537,-0.460499 0.11512,-0.723641 -0.11513,-0.740087 -0.82232,-0.04934 -0.4605,0.44405 -0.54273,0.476943 -0.54273,0.213802 0,-0.246695 -0.0493,-0.263141 -0.19736,-0.115125 -0.27959,0.27959 -0.62496,0.246697 -0.62496,-0.04934 0,-0.148016 -0.0987,-0.197355 -0.2467,-0.148016 -0.18091,0.08223 -0.2467,-0.01646 -0.2467,-0.345374 0,-0.444052 -0.0164,-0.444052 -0.29603,-0.197358 -0.16446,0.164465 -0.39471,0.279588 -0.49339,0.279588 -0.27959,0 -0.52629,-0.575622 -0.52629,-1.233479 0,-0.575625 -0.0329,-0.608516 -0.4276,-0.509839 -0.23025,0.06579 -0.57563,0.06579 -0.75654,0 -0.31248,-0.09868 -0.32893,-0.180909 -0.23025,-1.23348 l 0.11513,-1.1348 h -0.69075 c -0.65786,0 -0.6743,-0.01646 -0.60852,-0.444053 0.0493,-0.263144 0.11513,-0.575625 0.14802,-0.707197 0.0493,-0.197355 -0.0822,-0.230248 -0.65786,-0.197355 -0.75653,0.06579 -0.78942,0.03289 -0.4276,-0.82232 0.0987,-0.230251 0.0329,-0.296037 -0.2467,-0.296037 -0.2138,0 -0.39471,-0.131569 -0.44405,-0.328927 -0.0658,-0.230249 -0.23025,-0.328928 -0.54273,-0.328928 -0.65786,0 -0.83877,-0.312481 -0.72365,-1.217033 0.0987,-0.657857 0.0658,-0.756536 -0.18091,-0.756536 -0.23025,0 -0.26314,-0.09868 -0.18091,-0.526283 0.0493,-0.27959 0.21381,-0.641411 0.34538,-0.789429 0.18091,-0.197356 0.19736,-0.312481 0.0658,-0.444053 -0.13157,-0.131562 -0.13157,-0.279581 -0.0164,-0.493383 0.13157,-0.230251 0.0987,-0.378269 -0.14802,-0.641411 -0.39471,-0.427606 -0.26314,-0.822319 0.29604,-0.970338 l 0.4276,-0.09868 -0.36182,-0.378268 c -0.44405,-0.460499 -0.44405,-0.888105 0,-1.348605 0.32893,-0.345374 0.32893,-0.427606 0.14802,-0.888105 -0.11513,-0.279588 -0.18091,-0.526283 -0.14802,-0.54273 0.0329,-0.01646 0.39471,-0.148018 0.78943,-0.27959 0.97034,-0.328928 1.16769,-0.674301 0.80587,-1.332158 -0.36182,-0.608517 -0.37827,-0.805873 -0.0493,-0.805873 0.16447,0 0.2467,-0.164464 0.2467,-0.542732 0,-0.690748 0.14802,-0.838766 0.47694,-0.542731 0.14802,0.115125 0.42761,0.279589 0.64141,0.328928 0.34538,0.115125 0.36182,0.06579 0.36182,-0.624963 0,-0.64141 0.0493,-0.756534 0.32893,-0.756534 0.18091,0 0.32893,-0.115125 0.32893,-0.246696 0,-0.115125 0.0987,-0.296036 0.23025,-0.361821 0.29604,-0.180911 0.921,-1.365051 0.921,-1.776211 0,-0.542732 0.2138,-0.690749 0.95389,-0.690749 0.55918,0 0.82232,-0.09868 1.15125,-0.444053 l 0.44405,-0.427606 0.11513,-4.736564 c 0.0822,-4.045814 0.14801,-4.950366 0.46049,-6.282524 0.19736,-0.855213 0.42761,-2.187372 0.4934,-2.960353 0.16446,-1.924228 0.32892,-2.499852 0.6743,-2.582084 0.18091,-0.04934 0.34537,-0.296036 0.39471,-0.608517 0.14802,-0.723642 0.60852,-1.299266 0.95389,-1.167695 0.62497,0.246696 0.55918,2.69721 -0.0987,4.308957 -0.32892,0.756535 -0.47694,1.661087 -0.74008,4.489868 -0.36182,3.634654 -0.34538,4.358295 0.14801,7.302201 0.19736,1.167694 0.47695,1.23348 0.47695,0.09868 0,-0.838767 0.78943,-1.809105 2.17092,-2.697211 0.62497,-0.394713 2.23672,-0.789427 2.36829,-0.575624 0.0493,0.09868 0.19735,0.08223 0.36182,-0.04934 0.2138,-0.18091 0.24669,-0.164464 0.14801,0.164464 -0.0658,0.312482 -0.0329,0.361821 0.16447,0.296035 0.34537,-0.131571 0.90455,0.04934 0.78943,0.246696 -0.0658,0.08223 0.0165,0.197357 0.14801,0.246697 0.34538,0.131571 0.32893,0.36182 0,0.427606 -0.18091,0.03289 -0.29603,0.246696 -0.32892,0.624963 -0.0329,0.312482 -0.0987,0.920998 -0.14802,1.348605 l -0.0987,0.789428 0.50984,-0.09868 c 0.47694,-0.09868 0.49339,-0.08223 0.49339,0.476946 0,0.460499 0.0493,0.575624 0.24669,0.509838 0.13158,-0.06578 0.44406,-0.04934 0.67431,0 0.32892,0.08223 0.41116,0.197357 0.39471,0.559178 -0.0822,1.151248 -0.0493,1.184141 0.75653,1.184141 0.83877,0 1.44729,0.246696 1.33216,0.559177 -0.14801,0.361821 1.5953,-0.59207 2.53275,-1.397944 0.50984,-0.444053 1.10191,-1.151248 1.31571,-1.578854 0.32893,-0.657856 0.55918,-0.87166 1.34861,-1.249927 l 0.95389,-0.460499 0.55918,0.345374 c 0.78942,0.493392 0.74008,0.937445 -0.2467,2.384729 -1.03612,1.480176 -1.1677,1.5953 -2.66432,2.41762 -0.65786,0.361821 -1.08546,0.624964 -0.95389,0.575624 0.13157,-0.03289 0.85521,-0.197356 1.61175,-0.361821 1.69398,-0.36182 2.13803,-0.263142 4.25962,1.036124 1.39794,0.855213 1.87489,1.348605 1.29926,1.348605 -0.14802,0 -0.19735,0.131571 -0.13157,0.41116 0.0987,0.559177 -0.11512,0.509838 -1.1348,-0.246696 -1.01968,-0.772981 -1.20059,-0.805874 -1.06902,-0.246696 0.0658,0.279588 0.0329,0.444053 -0.13157,0.509838 -0.39471,0.148018 -0.85521,-0.213803 -1.31571,-1.00323 -0.2467,-0.41116 -0.4605,-0.740088 -0.49339,-0.740088 -0.0329,0 -0.4605,0.18091 -0.93745,0.394713 -0.49339,0.23025 -1.3815,0.526285 -1.99001,0.690749 -0.62496,0.148018 -1.11836,0.328928 -1.11836,0.41116 0,0.08223 0.0822,0.148018 0.18091,0.148018 0.0987,0 0.14802,0.115125 0.0822,0.246696 -0.0493,0.131571 -0.0164,0.427606 0.0822,0.641409 0.14802,0.296035 0.11513,0.509839 -0.0987,0.920999 -0.27959,0.542732 -0.23025,0.674301 0.31248,0.871659 0.0987,0.03289 0.0329,0.230248 -0.11512,0.444053 -0.34538,0.493392 -0.34538,0.657854 -0.0164,0.657854 0.19735,0 0.24669,0.09868 0.16446,0.37827 -0.31248,1.069015 -0.29603,1.23348 0.0493,1.414388 0.32893,0.180912 0.4605,0.674305 0.23025,0.888107 -0.18091,0.197358 -0.16446,1.003231 0.0164,1.15125 0.11513,0.08223 0.0493,0.230248 -0.19736,0.427606 l -0.36182,0.328928 0.36182,0.263141 0.37827,0.263144 -0.37827,0.279588 c -0.27958,0.213804 -0.32892,0.328927 -0.18091,0.476946 0.14802,0.148018 0.0822,0.296034 -0.29603,0.608517 -0.37827,0.312481 -0.47695,0.526283 -0.41116,0.838767 0.0329,0.246695 0,0.41116 -0.13157,0.41116 -0.13157,0 -0.14802,0.164462 -0.0822,0.493392 0.0987,0.460499 0.0822,0.493392 -0.41116,0.493392 -0.62497,0 -0.80588,0.378267 -0.39472,0.838766 0.27959,0.312481 0.27959,0.328928 -0.0493,0.41116 -0.2138,0.06579 -0.32892,0.180909 -0.26314,0.328928 0.0658,0.164465 -0.0493,0.197355 -0.50984,0.115125 l -0.59207,-0.09868 v 0.657855 c 0,0.871659 -0.44405,1.414391 -1.57885,1.957123 -0.72364,0.345374 -0.88811,0.493392 -0.80588,0.72364 0.0822,0.263144 0,0.312484 -0.52628,0.361821 -0.62496,0.04934 -0.62496,0.04934 -0.57562,0.707197 0.0329,0.36182 0.27958,1.365051 0.57562,2.220264 0.47695,1.430835 0.52628,1.726872 0.49339,3.453744 -0.0164,1.217033 -0.18091,2.713656 -0.44405,4.177384 -0.23025,1.266373 -0.42761,2.466962 -0.42761,2.680764 0,0.230251 0.23025,0.970338 0.4934,1.644639 0.41115,1.019678 0.52628,1.611749 0.6414,3.239942 0.0658,1.101908 0.0987,2.072246 0.0658,2.187372 -0.0822,0.230248 -0.60851,0.378266 -1.38149,0.378266 h -0.59207 z"
       inkscape:export-xdpi="23"
       inkscape:export-ydpi="23" />
    <path
       style="fill:#434141;stroke:none;stroke-width:0.0164464"
       inkscape:connector-curvature="0"
       id="path4023"
       d="m 31.962555,81.118132 c -0.0987,-0.180909 -0.13157,-0.328927 -0.0822,-0.328927 0.0493,0 -0.0493,-0.197358 -0.19736,-0.444053 -0.16446,-0.246695 -0.27958,-0.460499 -0.24669,-0.493392 0.0164,-0.03289 0.0329,-0.06579 0.0164,-0.08223 0,-0.03289 -0.0329,-0.213802 -0.0822,-0.427606 -0.0329,-0.213802 -0.19736,-0.657855 -0.36182,-0.986782 -0.36182,-0.756537 -0.4605,-2.022909 -0.18091,-2.516302 0.19735,-0.394713 0.34537,-3.223492 0.18091,-3.519529 -0.29604,-0.493393 -0.65786,-3.23994 -0.75654,-5.838471 -0.0329,-0.789429 -0.16446,-1.496623 -0.37826,-1.973569 -0.50984,-1.134801 -0.59207,-1.381498 -0.55918,-1.562407 0.0165,-0.08223 -0.0822,-0.03289 -0.2138,0.131569 -0.13158,0.180912 -0.19736,0.427606 -0.14802,0.575625 0.0329,0.164465 -0.0822,0.08223 -0.27959,-0.164462 -0.44405,-0.575625 -0.7072,-0.575625 -0.98678,-0.04934 l -0.21381,0.41116 -0.36182,-0.32893 c -0.19736,-0.180909 -0.37827,-0.312481 -0.42761,-0.263141 -0.0329,0.03289 -0.24669,0.09868 -0.47694,0.148018 -0.41116,0.09868 -0.42761,0.06579 -0.36182,-0.460499 0.0493,-0.444053 0.0164,-0.575625 -0.19736,-0.575625 -0.29603,0 -0.921,0.559178 -0.921,0.82232 0,0.09868 -0.0658,0.164465 -0.16446,0.164465 -0.0822,0 -0.16447,-0.131572 -0.16447,-0.279591 0,-0.213802 -0.0493,-0.230248 -0.19735,-0.08223 -0.26314,0.263142 -0.4605,0.246695 -0.4605,-0.04934 0,-0.148019 -0.0987,-0.197358 -0.2467,-0.148019 -0.18091,0.08223 -0.24669,-0.01646 -0.24669,-0.41116 0,-0.624964 -0.19736,-0.657854 -0.57563,-0.08223 l -0.27959,0.427602 -0.31249,-0.526285 c -0.18091,-0.279588 -0.27958,-0.575622 -0.23025,-0.674301 0.0658,-0.08223 0.0493,-0.296035 0,-0.476946 -0.0822,-0.246695 -0.19735,-0.296035 -0.59207,-0.213802 -0.62496,0.115123 -0.95389,-0.164465 -0.85521,-0.74009 0.0329,-0.246695 0.11513,-0.723641 0.16447,-1.069014 l 0.0822,-0.641411 -0.57563,0.08223 c -0.82232,0.115128 -1.05257,-0.13157 -0.69075,-0.707192 0.36183,-0.575625 0.2467,-0.707197 -0.52628,-0.608518 -0.77298,0.08223 -0.78943,0.04934 -0.4605,-0.740087 0.0822,-0.197358 0.0164,-0.279591 -0.27959,-0.32893 -0.37827,-0.04934 -0.44405,-0.279588 -0.2138,-0.855213 0.13157,-0.296034 0.11512,-0.296034 -0.31248,-0.01646 -0.37827,0.246698 -0.49339,0.263144 -0.83877,0.08223 -0.36182,-0.197356 -0.39471,-0.296035 -0.32893,-1.019675 0.0658,-0.608518 0.0329,-0.78943 -0.14801,-0.78943 -0.36183,0 -0.4934,-0.312481 -0.26315,-0.575622 0.11513,-0.131572 0.14802,-0.246697 0.0658,-0.246697 -0.0658,0 0.0329,-0.164463 0.23025,-0.378267 0.26314,-0.279588 0.31248,-0.427607 0.18091,-0.559179 -0.13157,-0.131569 -0.11513,-0.279588 0.0329,-0.526282 0.19736,-0.296037 0.18091,-0.378267 -0.14802,-0.674304 -0.4605,-0.427607 -0.4605,-0.624962 0,-0.690748 0.50984,-0.06579 0.59207,-0.608519 0.14802,-0.937446 l -0.34537,-0.263142 0.44405,-0.624964 c 0.37827,-0.526285 0.41116,-0.657857 0.2467,-1.019678 -0.26315,-0.592068 -0.2467,-0.657854 0.19735,-0.674301 0.21381,-0.01646 0.59207,-0.131572 0.85522,-0.246697 0.62496,-0.296035 0.72364,-1.052569 0.23024,-1.5953 -0.31248,-0.328928 -0.26314,-0.444053 0.18092,-0.394714 0.0658,0.01645 0.0987,-0.06579 0.0987,-0.18091 0,-0.115125 0.0165,-0.41116 0.0165,-0.657856 l 0.0329,-0.460499 0.41116,0.312481 c 0.55918,0.444053 1.10191,0.296035 1.06902,-0.279589 -0.0658,-0.904552 -0.0165,-1.052569 0.34537,-0.953891 0.2467,0.06579 0.31249,0.03289 0.2467,-0.148017 -0.0493,-0.115125 0.0493,-0.296036 0.2138,-0.378268 0.31248,-0.164464 1.00323,-1.611747 1.05257,-2.170924 0.0164,-0.263143 0.14802,-0.312482 0.77298,-0.312482 0.75654,0 1.46373,-0.427606 1.64464,-0.986784 0.0493,-0.131571 0.0987,-1.710426 0.0987,-3.486637 0.0329,-5.11483 0.2467,-7.318648 0.78943,-8.601467 0.11512,-0.263143 0.23025,-0.904552 0.24669,-1.397944 0.0329,-1.365052 0.36183,-2.960352 0.62497,-2.960352 0.13157,0 0.2138,0.197356 0.2138,0.493392 0,0.279589 0.0658,0.493392 0.14802,0.493392 0.29603,0 0.34537,-0.296036 0.11512,-0.740088 -0.24669,-0.4605 -0.23025,-0.608517 0.18091,-1.529516 0.27959,-0.641409 0.7072,-0.657856 0.83877,-0.03289 0.23025,1.036123 0.0329,2.46696 -0.42761,3.404405 -0.36182,0.690748 -0.4276,1.052569 -0.77298,4.572099 -0.0329,0.279589 -0.11512,1.019677 -0.18091,1.644639 -0.18091,1.578855 -0.16446,2.384728 0.0822,4.111601 0.11513,0.82232 0.2467,1.907782 0.29604,2.417621 0.13157,1.381497 0.37827,1.249926 0.59207,-0.279589 0.14802,-1.036124 0.34537,-1.315712 1.99001,-2.631425 0.87166,-0.690748 1.03613,-0.756534 1.5953,-0.674302 0.41116,0.06579 0.64141,0.03289 0.69075,-0.115125 0.0493,-0.09868 0.0987,-0.04934 0.11513,0.131571 l 0.0165,0.328929 0.26314,-0.328929 c 0.2467,-0.328927 0.2467,-0.328927 0.18091,0.01645 -0.0658,0.279589 -0.0164,0.328928 0.39471,0.263142 0.27959,-0.04934 0.4605,0 0.42761,0.09868 -0.0329,0.09868 0.0987,0.296035 0.27959,0.427606 0.31248,0.246696 0.31248,0.246696 -0.13157,0.263143 -0.32893,0 -0.42761,0.06578 -0.32893,0.213803 0.18091,0.296035 0.18091,1.282819 -0.0164,1.891336 -0.19736,0.608517 0.0164,0.871659 0.57562,0.740088 0.26315,-0.06579 0.31249,0 0.31249,0.427607 0,0.460499 0.0493,0.509838 0.47694,0.509838 0.75654,0 1.01968,0.148018 0.83877,0.476945 -0.0822,0.164465 -0.0987,0.509839 -0.0165,0.772981 0.11512,0.41116 0.19736,0.476946 0.77298,0.493392 0.97034,0.03289 1.41439,0.23025 1.33216,0.575624 -0.0987,0.345375 0.0987,0.296035 1.36505,-0.41116 1.3486,-0.740088 2.28605,-1.578854 2.64787,-2.351835 0.34537,-0.756534 0.85521,-1.315712 1.3815,-1.529515 0.921,-0.345375 1.01967,-0.345375 1.54596,0.148017 l 0.54273,0.493393 -0.87166,1.249926 c -0.97034,1.41439 -1.90778,2.28605 -2.71365,2.549192 -0.31249,0.115125 -0.55918,0.263142 -0.55918,0.345374 0,0.08223 -0.0987,0.148018 -0.19736,0.148018 -0.11512,0 -0.36182,0.131571 -0.54273,0.263143 -0.31248,0.246695 -0.29603,0.263142 0.24669,0.164463 0.31249,-0.04934 0.82232,-0.131571 1.13481,-0.18091 0.29603,-0.04934 0.6743,-0.164464 0.83876,-0.246696 0.16447,-0.09868 0.64141,-0.164464 1.06902,-0.164464 0.62496,0 1.00323,0.148018 2.2696,0.920998 0.82232,0.509839 1.69398,1.036124 1.92423,1.151248 0.41116,0.23025 0.41116,0.23025 0.0493,0.23025 -0.39471,0 -0.52628,0.41116 -0.16446,0.542731 0.0987,0.03289 0.14802,0.131571 0.0658,0.197357 -0.0658,0.08223 -0.39471,-0.08223 -0.74009,-0.361821 -1.24993,-1.00323 -1.77621,-1.118355 -1.61175,-0.378267 0.0658,0.378267 0.0329,0.493392 -0.16446,0.493392 -0.32893,0 -0.57562,-0.263142 -1.05257,-1.101909 -0.44405,-0.789427 -0.65786,-0.855213 -1.31571,-0.378267 -0.2467,0.18091 -0.4934,0.279589 -0.55918,0.213803 -0.0493,-0.04934 -0.0987,-0.01645 -0.0987,0.06579 0,0.09868 -0.31249,0.23025 -0.69075,0.296035 -1.08546,0.164464 -1.92423,0.444053 -2.12159,0.690749 -0.14802,0.164464 -0.13157,0.213803 0.0658,0.213803 0.18091,0 0.2467,0.148018 0.2138,0.575624 -0.0329,0.312482 0.0329,0.592071 0.13158,0.624963 0.11512,0.04934 0.0329,0.263143 -0.19736,0.575624 l -0.36182,0.509839 0.41116,0.279588 c 0.31248,0.197358 0.37827,0.32893 0.24669,0.476946 -0.0987,0.115125 -0.2138,0.378267 -0.24669,0.575625 -0.0493,0.279587 -0.0165,0.328927 0.26314,0.246694 0.32893,-0.115122 0.32893,-0.09868 0.0822,0.378267 -0.36182,0.690751 -0.27959,1.282819 0.18091,1.496624 0.41116,0.180911 0.49339,0.444054 0.19736,0.542733 -0.26315,0.08223 -0.34538,1.118354 -0.11513,1.397944 0.14802,0.180909 0.11513,0.246695 -0.16446,0.328928 -0.4605,0.115125 -0.47695,0.542731 -0.0329,0.657854 0.18091,0.04934 0.32892,0.164465 0.32892,0.246698 0,0.08223 -0.14801,0.197355 -0.32892,0.246695 -0.32893,0.08223 -0.47695,0.542732 -0.16447,0.542732 0.29604,0 0.18091,0.296034 -0.16446,0.411159 -0.41116,0.131572 -0.78943,0.772981 -0.50984,0.87166 0.31248,0.09868 0.19736,0.526285 -0.14802,0.526285 -0.27959,0 -0.31248,0.04934 -0.16446,0.312481 0.2138,0.41116 0.2138,0.72364 -0.0164,0.592071 -0.0822,-0.06579 -0.34538,-0.06579 -0.57563,-0.01646 -0.27958,0.08223 -0.39471,0.213802 -0.39471,0.526285 0,0.213802 0.11513,0.444053 0.2467,0.49339 0.13157,0.06579 0.19735,0.164465 0.14801,0.263144 -0.0493,0.08223 -0.19735,0.115126 -0.32892,0.06579 -0.13157,-0.04934 -0.23025,0.01646 -0.23025,0.148016 0,0.148018 -0.16447,0.213804 -0.44406,0.197358 -0.4276,-0.03289 -0.4605,0.01646 -0.49339,0.657855 -0.0329,0.822319 -0.49339,1.414391 -1.39794,1.776211 -0.80588,0.312484 -1.15125,0.641411 -1.01968,0.953892 0.0658,0.180911 -0.0658,0.230251 -0.54273,0.213804 -0.57562,-0.01646 -0.62496,0.01646 -0.57562,0.394714 0.0165,0.230248 0.0658,0.641408 0.0987,0.904552 0.0165,0.279588 0.0658,0.542729 0.0987,0.624962 0.0164,0.06579 0.0658,0.197358 0.0822,0.27959 0.0164,0.09868 0.0658,0.197355 0.0822,0.246695 0.0165,0.04934 0.0493,0.131572 0.0822,0.213804 0.0164,0.06578 0.0658,0.230249 0.11512,0.361821 0.57563,1.661086 0.64141,2.121585 0.55918,3.782671 -0.0822,1.710425 -0.16446,2.499852 -0.36182,3.289281 -0.0493,0.230249 -0.11513,0.608516 -0.16447,0.87166 -0.0329,0.246695 -0.0987,0.641408 -0.16446,0.904549 -0.23025,1.019678 -0.13157,2.269604 0.2138,2.911015 0.2467,0.460499 0.59207,1.693979 0.65786,2.384726 0.11512,1.381499 0.16446,3.042584 0.11512,3.207049 -0.0493,0.09868 -0.44405,0.197358 -0.8881,0.230249 -0.65786,0.03289 -0.83877,-0.03289 -0.98679,-0.312481 z"
       inkscape:export-xdpi="23"
       inkscape:export-ydpi="23" />
    <path
       style="fill:#6e5f63;stroke:none;stroke-width:0.0164464"
       inkscape:connector-curvature="0"
       id="path4026"
       d="m 32.275035,81.249704 c -0.29603,-0.230251 -1.23348,-2.730103 -1.48017,-3.914243 -0.11513,-0.542732 -0.0822,-0.920999 0.0987,-1.480177 0.29603,-0.904552 0.24669,-3.10837 -0.13157,-5.016151 -0.2467,-1.299265 -0.50984,-4.193834 -0.4605,-5.0326 0.0164,-0.41116 -0.83877,-2.680763 -1.13481,-2.993244 -0.0658,-0.08223 -0.16446,0.04934 -0.23024,0.296034 l -0.11513,0.427606 -0.31248,-0.378266 -0.32893,-0.378267 -0.39471,0.460499 c -0.31248,0.394713 -0.41116,0.427606 -0.60852,0.246698 -0.29603,-0.296037 -0.97034,-0.32893 -1.29926,-0.08223 -0.21381,0.164462 -0.21381,0.164462 -0.0658,-0.04934 0.27959,-0.361821 0.19736,-1.036125 -0.13157,-1.085464 -0.14802,-0.01646 -0.44405,0.148018 -0.64141,0.36182 -0.42761,0.4605 -0.72364,0.526286 -0.57563,0.115126 0.0987,-0.263142 0.0987,-0.263142 -0.19735,0 -0.37827,0.345374 -0.52629,0.345374 -0.52629,0.01646 0,-0.180909 -0.0822,-0.230249 -0.26314,-0.164463 -0.21381,0.08223 -0.23025,0.01645 -0.14802,-0.394721 0.13157,-0.624961 -0.14802,-0.657854 -0.60852,-0.06578 -0.41116,0.509836 -0.59207,0.36182 -0.75653,-0.608518 -0.11513,-0.707194 -0.13157,-0.72364 -0.83877,-0.77298 l -0.72364,-0.04934 0.11513,-0.690751 c 0.0493,-0.378267 0.13157,-0.838766 0.16446,-1.019675 0.0822,-0.509839 -0.18091,-0.707197 -0.83877,-0.624964 -0.55917,0.08223 -0.57562,0.06579 -0.47694,-0.296035 0.31248,-0.986784 0,-1.348605 -0.77298,-0.937445 -0.27959,0.148019 -0.31248,0.115126 -0.2467,-0.213802 0.0493,-0.213804 0.14802,-0.542731 0.2138,-0.707196 0.11513,-0.263142 0.0822,-0.296035 -0.2138,-0.230249 -0.47694,0.13157 -0.62496,-0.131572 -0.34537,-0.624964 0.27959,-0.542732 0.0987,-0.657855 -0.4605,-0.263142 -0.6743,0.476946 -1.06902,0.230249 -1.03613,-0.674303 0.0493,-0.986782 0.0164,-1.134801 -0.14801,-1.019675 -0.32893,0.197355 -0.32893,-0.246698 -0.0164,-0.838767 0.19736,-0.32893 0.31248,-0.707197 0.26314,-0.838769 -0.0493,-0.131569 -0.0329,-0.378266 0.0658,-0.526282 0.11512,-0.230251 0.0658,-0.378267 -0.16447,-0.592072 -0.4276,-0.394713 -0.41116,-0.542731 0.0822,-0.77298 0.49339,-0.230251 0.52628,-0.476946 0.0822,-0.87166 -0.42761,-0.378267 -0.41116,-0.674304 0.0164,-0.920999 0.29604,-0.148018 0.34538,-0.296034 0.26315,-0.904552 -0.0658,-0.707194 -0.0658,-0.723641 0.47694,-0.82232 1.00323,-0.180911 1.21704,-0.707196 0.80588,-2.006461 -0.0987,-0.279589 -0.0658,-0.345374 0.11512,-0.279589 0.19736,0.08223 0.23025,-0.01645 0.16447,-0.427606 -0.0658,-0.460499 -0.0493,-0.509839 0.23024,-0.394714 0.18092,0.06579 0.57563,0.180911 0.90456,0.246696 0.59207,0.115125 0.59207,0.115125 0.4276,-0.328928 -0.2138,-0.575624 -0.0329,-1.332158 0.29604,-1.217033 0.16446,0.06578 0.24669,0 0.24669,-0.180911 0,-0.148017 0.14802,-0.312482 0.32893,-0.36182 0.18091,-0.04934 0.32893,-0.197357 0.32893,-0.328929 0,-0.115124 0.0987,-0.394713 0.23025,-0.59207 0.13157,-0.197357 0.27959,-0.624963 0.32893,-0.953891 0.0987,-0.526285 0.14802,-0.575624 0.55918,-0.509839 0.55917,0.08223 1.67753,-0.361821 1.69398,-0.657856 0,-0.115124 0.0658,-0.06578 0.13157,0.115125 0.0822,0.18091 0.14801,-1.480176 0.16446,-3.70044 0.0164,-2.220264 0.0658,-4.473421 0.0987,-5.016152 0.0822,-1.151248 0.47694,-3.256387 0.72364,-3.914243 0.0987,-0.263143 0.18091,-0.953891 0.19736,-1.562408 0,-0.608517 0.0987,-1.430837 0.19735,-1.825551 0.2467,-0.888105 0.60852,-1.101909 0.60852,-0.345374 0,0.345374 0.0658,0.493392 0.2138,0.444053 0.11513,-0.03289 0.18091,-0.279589 0.14802,-0.542732 -0.0987,-1.217033 -0.0822,-1.480176 0.13157,-1.841996 0.29604,-0.444053 0.65786,-0.476946 0.65786,-0.04934 0,0.180911 0.0658,0.361821 0.14802,0.41116 0.2138,0.131572 -0.23025,2.565639 -0.60852,3.305727 -0.2467,0.509838 -0.41116,1.496622 -0.69075,4.34185 -0.2138,2.105138 -0.31248,3.930689 -0.2467,4.276063 0.0658,0.328928 0.14802,0.986784 0.16447,1.46373 0.0493,1.101909 0.44405,3.486637 0.55918,3.486637 0.16446,0 0.50983,-0.855213 0.41116,-1.00323 -0.0493,-0.08223 -0.0164,-0.148018 0.0658,-0.148018 0.0822,0 0.37826,-0.328928 0.6743,-0.740088 0.29603,-0.41116 0.49339,-0.740088 0.44405,-0.740088 -0.0493,0 -0.32893,0.312481 -0.60852,0.707195 l -0.52628,0.690749 0.11512,-0.575624 c 0.0658,-0.41116 0.34538,-0.82232 1.00323,-1.430837 0.82232,-0.772981 1.43084,-1.151248 1.15125,-0.707195 -0.0493,0.09868 0.0165,0.115125 0.16447,0.04934 0.19735,-0.06579 0.2138,-0.131571 0.0822,-0.213803 -0.2467,-0.148018 -0.0493,-0.296035 0.64141,-0.493392 0.31248,-0.08223 0.54273,-0.06579 0.65785,0.04934 0.14802,0.148018 0.23025,0.131571 0.34538,-0.04934 0.13157,-0.197357 0.16446,-0.197357 0.16446,-0.01645 0,0.18091 0.0493,0.18091 0.2467,0.01645 0.29603,-0.246696 0.31248,-0.115125 0.0493,0.378267 -0.16447,0.328928 -0.16447,0.345374 0.0822,0.148017 0.19735,-0.18091 0.32893,-0.18091 0.62496,-0.01645 0.34538,0.18091 0.34538,0.197357 0.0822,0.394714 -0.18091,0.148017 -0.2138,0.246695 -0.0987,0.328927 0.0822,0.04934 0.13157,0.164464 0.0822,0.246696 -0.0493,0.08223 -0.0165,0.345375 0.0822,0.608517 l 0.16447,0.460499 -0.34538,-0.460499 c -0.19736,-0.246696 -0.70719,-0.641409 -1.1348,-0.855213 -0.44405,-0.230249 -0.83877,-0.476945 -0.90455,-0.575624 -0.0493,-0.08223 -0.18091,-0.164464 -0.27959,-0.164464 -0.2467,0 0.49339,0.559178 1.29926,0.970338 0.77299,0.378267 1.08547,0.82232 0.93745,1.28282 -0.0822,0.246696 -0.0658,0.246696 0.0822,0.04934 0.23025,-0.312482 0.23025,-0.148018 0.0164,0.427606 -0.19736,0.509839 -0.0164,0.723642 0.64141,0.723642 0.26314,0 0.34537,0.06579 0.29603,0.230249 -0.13157,0.312482 0.26315,0.82232 0.55918,0.723642 0.31248,-0.115125 0.83877,0.164464 0.7072,0.378267 -0.0493,0.08223 -0.0493,0.444053 0.0164,0.805874 0.0987,0.608517 0.13157,0.624963 0.65785,0.542731 0.31248,-0.04934 0.75654,-0.03289 0.98679,0.01645 0.39471,0.09868 0.4276,0.164464 0.32892,0.641409 -0.0493,0.296036 -0.0493,0.444053 0.0329,0.345375 0.0658,-0.09868 0.60852,-0.394714 1.20059,-0.674303 1.20059,-0.575624 2.68076,-1.809104 3.07548,-2.582085 0.62496,-1.249926 1.842,-1.990014 2.61498,-1.578854 0.65785,0.361821 0.62496,0.723642 -0.13157,1.825551 -1.00323,1.480176 -1.64464,2.0558 -3.02614,2.730102 -1.89134,0.920998 -1.5953,1.101909 0.8881,0.542731 1.80911,-0.394713 2.15448,-0.312481 4.17739,0.937445 1.18414,0.740088 1.43084,0.953891 1.20059,1.069016 -0.21381,0.131571 -0.23025,0.213803 -0.0658,0.394714 0.32892,0.394713 -0.0987,0.246696 -0.4934,-0.164464 -0.39471,-0.41116 -1.29926,-0.920999 -1.64464,-0.920999 -0.13157,0 -0.16446,0.197357 -0.0822,0.592071 0.0987,0.559177 0.0822,0.575624 -0.2138,0.394713 -0.18091,-0.115124 -0.52629,-0.526285 -0.77298,-0.920998 -0.2467,-0.394714 -0.52629,-0.756535 -0.60852,-0.805874 -0.0822,-0.06578 -0.4605,0.08223 -0.83877,0.312482 -0.39471,0.213803 -1.29926,0.559178 -2.02291,0.756534 -1.62819,0.427607 -1.92422,0.592071 -1.51306,0.838767 0.16446,0.09868 0.27958,0.361821 0.27958,0.641409 0,0.279589 0.0822,0.493392 0.16447,0.493392 0.2467,0 -0.29604,0.986784 -0.54273,0.986784 -0.0987,0.01645 0,0.180911 0.24669,0.378267 0.32893,0.263144 0.41116,0.427606 0.29604,0.608517 -0.2467,0.378267 -0.19736,0.82232 0.0822,0.82232 0.18091,0 0.19736,0.08223 0.0822,0.427606 -0.26315,0.674304 -0.19736,1.151247 0.2138,1.447284 0.34538,0.246695 0.34538,0.263142 0.0658,0.476947 -0.16446,0.148016 -0.2467,0.345374 -0.18091,0.509839 0.0493,0.148016 0.0164,0.378267 -0.0822,0.49339 -0.16446,0.180911 -0.11513,0.263144 0.18091,0.361823 l 0.37827,0.115123 -0.37827,0.131572 c -0.4605,0.180911 -0.4605,0.559178 0,0.871659 l 0.36182,0.263141 h -0.34537 c -0.42761,0 -0.64141,0.296037 -0.41116,0.526286 0.13157,0.131572 0.0329,0.328927 -0.31249,0.674304 -0.34537,0.345373 -0.44405,0.542729 -0.32892,0.657854 0.24669,0.246698 0.23025,0.444053 -0.0658,0.444053 -0.29604,0 -0.31249,0.230251 -0.0822,0.674304 0.14801,0.279588 0.11512,0.312481 -0.29604,0.312481 -0.62496,0 -0.93744,0.36182 -0.70719,0.805873 0.24669,0.427606 0.23025,0.509839 -0.0822,0.509839 -0.16447,0 -0.23025,0.09868 -0.16447,0.246695 0.0987,0.296037 -0.0822,0.32893 -0.34537,0.06579 -0.29604,-0.296035 -0.54273,0 -0.54273,0.641411 0,0.822319 -0.34538,1.266372 -1.36505,1.776211 -1.20059,0.608515 -1.29927,0.690748 -1.08547,1.069015 0.18091,0.36182 0.0987,0.394713 -0.32893,0.115125 -0.16446,-0.09868 -0.4276,-0.131572 -0.59207,-0.06579 -0.23025,0.08223 -0.26314,0.213805 -0.16446,0.723641 0.0658,0.32893 0.11513,0.756536 0.0987,0.920998 0,0.345377 0.77298,2.861676 0.95389,3.141263 0.23025,0.328928 0.0493,3.486637 -0.31248,5.345081 -0.65786,3.51953 -0.65786,3.355065 -0.0493,5.081937 0.42761,1.217033 0.57562,1.957123 0.6743,3.355067 0.0658,0.970336 0.0822,1.858442 0.0165,1.940674 -0.16446,0.279588 -1.20058,0.361821 -1.48017,0.115126 z M 31.567845,62.66527 c 0.0658,-0.115123 0.0658,-0.164462 0,-0.09868 -0.0822,0.06578 -0.31248,0.04934 -0.52629,-0.03289 -0.24669,-0.09868 -0.64141,-0.09868 -1.01967,0 l -0.60852,0.164462 0.65786,-0.06579 c 0.36182,-0.03289 0.80587,0 0.98678,0.06579 0.18091,0.08223 0.34537,0.148019 0.36182,0.148019 0.0165,0.01646 0.0822,-0.08223 0.14802,-0.180911 z m -8.81527,-14.061671 c -0.59207,-1.10191 -0.59207,-0.986785 0,0.312481 0.23025,0.50984 0.4276,0.87166 0.4605,0.789428 0.0329,-0.08223 -0.18091,-0.575626 -0.4605,-1.101909 z m 4.5721,-2.828782 c -0.21381,-0.246695 -0.41116,-0.444053 -0.44406,-0.41116 -0.0658,0.06579 0.64141,0.888106 0.77298,0.888106 0.0329,0 -0.11512,-0.213805 -0.32892,-0.476946 z m 2.36828,-0.624962 c 0.0329,-0.08223 0.29603,-0.328929 0.59207,-0.575625 0.31248,-0.263143 0.49339,-0.460499 0.41116,-0.460499 -0.21381,0.01645 -1.46373,1.151247 -1.24993,1.151247 0.0987,0 0.2138,-0.04934 0.2467,-0.115123 z m -2.89457,-1.792659 c -0.0493,-0.131571 -0.27959,-0.213803 -0.54273,-0.213803 l -0.4605,0.03289 0.4605,0.06579 c 0.36182,0.06578 0.44405,0.164463 0.4605,0.59207 0.0164,0.41116 0.0493,0.444053 0.0987,0.148018 0.0493,-0.213804 0.0329,-0.493393 -0.0164,-0.624964 z m 6.28253,0.476946 c -0.16447,-0.03289 -0.42761,-0.03289 -0.57563,0 -0.16446,0.04934 -0.0329,0.08223 0.27959,0.08223 0.31248,0 0.44405,-0.03289 0.29604,-0.08223 z m -9.24288,-2.450514 c -0.0658,-0.23025 -0.23025,-0.394713 -0.39471,-0.394713 -0.26315,0.01645 -0.26315,0.01645 0.0164,0.18091 0.18091,0.09868 0.27959,0.378267 0.29604,0.772981 0.0164,0.41116 0.0493,0.476945 0.0987,0.213803 0.0493,-0.197357 0.0329,-0.559178 -0.0164,-0.772981 z m -0.93745,-0.246696 c -0.24669,-0.148017 -0.52628,-0.03289 -0.39471,0.180911 0.0493,0.08223 0.2138,0.09868 0.34538,0.04934 0.19735,-0.06579 0.2138,-0.131571 0.0493,-0.23025 z m 13.55184,0.06579 c -0.2138,-0.03289 -0.54273,-0.03289 -0.74009,0 -0.2138,0.03289 -0.0493,0.06579 0.36182,0.06579 0.41116,0 0.57562,-0.03289 0.37827,-0.06579 z m 1.67753,-0.164464 c -0.18091,-0.04934 -0.44405,-0.180911 -0.57562,-0.296035 -0.50984,-0.41116 -0.72364,-0.444053 -0.32893,-0.04934 0.23025,0.23025 0.59207,0.427607 0.82232,0.427607 0.32893,0 0.34537,-0.01645 0.0822,-0.08223 z m -14.12746,-1.562412 c 0.36182,-0.690749 0.27959,-0.772981 -0.11512,-0.131571 -0.19736,0.312481 -0.54273,0.805873 -0.78943,1.069015 l -0.42761,0.493393 0.54274,-0.493393 c 0.31248,-0.263142 0.65785,-0.690748 0.78942,-0.937444 z m 5.36153,0.871659 c -0.14802,-0.263142 -0.29604,-0.460499 -0.34537,-0.427606 -0.0658,0.08223 0.44405,0.904552 0.55917,0.904552 0.0329,0 -0.0658,-0.213804 -0.2138,-0.476946 z m 1.89134,-3.075477 c 0.57562,-0.559178 1.03612,-1.101909 1.03612,-1.217034 0,-0.09868 -0.2467,0.131572 -0.54273,0.509839 -0.47695,0.64141 -1.00323,1.101909 -2.25316,2.006461 -0.39471,0.279589 -0.39471,0.279589 0.16446,0.01645 0.31249,-0.164464 1.03613,-0.740088 1.59531,-1.315712 z m -4.73657,0.509839 c 0,-0.08223 -0.0987,0.01645 -0.23025,0.246696 -0.13157,0.230249 -0.23025,0.493392 -0.23025,0.575624 0,0.09868 0.0987,-0.01645 0.23025,-0.246697 0.13157,-0.230249 0.23025,-0.476945 0.23025,-0.575623 z"
       inkscape:export-xdpi="23"
       inkscape:export-ydpi="23" />
    <path
       style="fill:#89777e;stroke:none;stroke-width:0.0164464"
       inkscape:connector-curvature="0"
       id="path4029"
       d="m 32.340825,81.31549 c -0.0987,-0.06579 -0.49339,-0.937445 -0.87166,-1.92423 -0.64141,-1.677532 -0.6743,-1.891337 -0.57563,-2.878119 0.19736,-1.87489 0.14802,-4.308956 -0.13157,-5.904259 -0.14801,-0.838766 -0.31248,-2.401173 -0.37826,-3.453744 -0.0987,-1.644639 -0.19736,-2.088692 -0.67431,-3.223493 -0.29603,-0.723643 -0.54273,-1.315712 -0.54273,-1.315712 0,-0.06579 1.842,0.06578 2.10514,0.148016 0.2467,0.08223 0.36182,0.01646 0.44405,-0.230248 0.0493,-0.180912 0.23025,-0.32893 0.37827,-0.32893 0.21381,0 0.41116,0.444053 0.82232,1.776211 0.7072,2.318944 0.72364,3.947136 0.0329,7.598238 -0.52628,2.861673 -0.52628,2.812336 0.31248,4.901028 0.2467,0.608515 0.37827,1.414391 0.44406,2.74655 l 0.11512,1.874888 -0.44405,0.180911 c -0.52629,0.197355 -0.77298,0.197355 -1.03612,0.03289 z"
       inkscape:export-xdpi="23"
       inkscape:export-ydpi="23" />
    <path
       style="fill:#89777e;stroke:none;stroke-width:0.0164464"
       inkscape:connector-curvature="0"
       id="path4031"
       d="m 27.077975,63.306681 c -0.19736,-0.328927 -0.64141,-0.444053 -0.85521,-0.230251 -0.13157,0.131572 -0.18091,0.06579 -0.18091,-0.263141 0,-0.608518 -0.41116,-0.740087 -0.98679,-0.296035 -0.54273,0.394714 -0.74009,0.444053 -0.55918,0.148016 0.0658,-0.115123 -0.0329,-0.08223 -0.2138,0.08223 -0.32893,0.296037 -0.6743,0.148018 -0.47694,-0.197356 0.0658,-0.08223 -0.0329,-0.115125 -0.21381,-0.06579 -0.24669,0.06579 -0.29603,0 -0.23025,-0.345373 0.11513,-0.542732 -0.29603,-0.575625 -0.6743,-0.04934 -0.2467,0.36182 -0.26314,0.36182 -0.50984,0.04934 -0.13157,-0.180905 -0.24669,-0.493386 -0.24669,-0.690744 0,-0.707194 -0.14802,-0.871659 -0.74009,-0.77298 -0.7072,0.115125 -0.82232,-0.09868 -0.57563,-1.118354 0.2467,-1.003231 0.0493,-1.332159 -0.72364,-1.266375 -0.39471,0.03289 -0.49339,-0.01646 -0.44405,-0.197356 0.0329,-0.131572 0.0822,-0.427606 0.0822,-0.657857 0.0165,-0.378267 -0.0493,-0.41116 -0.60851,-0.394713 -0.67431,0.03289 -0.65786,0.08223 -0.34538,-0.937446 0.0822,-0.213801 0,-0.263141 -0.32893,-0.197355 -0.47694,0.09868 -0.54273,-0.09868 -0.23025,-0.608518 0.27959,-0.444053 0.0658,-0.575622 -0.4276,-0.246695 -0.2467,0.164463 -0.54273,0.230249 -0.77298,0.164463 -0.31249,-0.09868 -0.34538,-0.197356 -0.2467,-0.920996 0.0987,-0.707197 0.0658,-0.822323 -0.2138,-0.937446 -0.31248,-0.115125 -0.31248,-0.115125 0,-0.772982 0.18091,-0.361821 0.27959,-0.740088 0.23025,-0.87166 -0.0329,-0.115122 0.0164,-0.36182 0.13157,-0.542729 0.16446,-0.296037 0.14802,-0.378267 -0.16447,-0.592071 -0.49339,-0.328928 -0.47694,-0.509839 0.0329,-0.707194 0.50983,-0.197358 0.52628,-0.542732 0.0493,-0.986786 l -0.36183,-0.328927 0.39472,-0.41116 c 0.29603,-0.32893 0.36182,-0.526286 0.27959,-1.052571 -0.0822,-0.624964 -0.0658,-0.641408 0.49339,-0.756534 0.77298,-0.148018 1.20059,-0.608518 1.10191,-1.18414 -0.0493,-0.246697 -0.14802,-0.526286 -0.2467,-0.624964 -0.2138,-0.23025 -0.18091,-0.41116 0.0987,-0.41116 0.18091,0 0.2138,-0.131571 0.13157,-0.526285 -0.0822,-0.460499 -0.0658,-0.509839 0.2138,-0.394714 0.44406,0.197357 1.44729,0.427607 1.51307,0.345375 0.0329,-0.01645 -0.0329,-0.197357 -0.14801,-0.378267 -0.27959,-0.4605 -0.0658,-1.184141 0.36182,-1.184141 0.24669,0 0.31248,-0.06579 0.24669,-0.263143 -0.0658,-0.164464 0,-0.296035 0.19736,-0.328928 0.27959,-0.08223 1.01968,-1.611747 1.01968,-2.121585 0,-0.180911 0.18091,-0.246697 0.62496,-0.246697 0.32893,0 0.85521,-0.148017 1.15125,-0.328927 0.27959,-0.180911 0.52628,-0.279589 0.52628,-0.246696 0,0.328928 -0.55918,1.282819 -1.1348,1.957121 -0.37827,0.444053 -0.65786,0.838767 -0.60852,0.871659 0.0493,0.04934 -0.0164,0.197357 -0.14801,0.328928 -0.27959,0.279589 -0.55918,1.184141 -0.65786,2.187372 -0.0658,0.641409 -0.0493,0.624963 0.14802,-0.246696 0.36182,-1.513069 0.54273,-1.858444 1.08546,-2.138032 0.65786,-0.345375 0.82232,-0.213804 0.85521,0.707195 0.0164,0.641409 0.0329,0.674302 0.0822,0.213803 0.0493,-0.312482 0.0329,-0.740088 -0.0329,-0.953891 -0.0822,-0.345375 -0.16446,-0.394714 -0.60851,-0.296035 l -0.50984,0.115124 0.57562,-0.707195 c 1.08546,-1.332158 1.08546,-1.348605 1.10191,-5.410866 0.0329,-5.098384 0.19736,-6.874595 0.90455,-9.555358 0.13157,-0.526285 0.19736,-1.217034 0.16447,-1.562408 -0.0822,-0.740088 0.29603,-2.318943 0.52628,-2.203818 0.0822,0.04934 0.13157,0.279589 0.13157,0.526285 -0.0329,0.41116 0,0.427607 0.29604,0.279589 0.26314,-0.148018 0.31248,-0.279589 0.2138,-0.690749 -0.2138,-0.937445 0.0329,-2.088693 0.44405,-2.088693 0.55918,0 0.52629,2.318943 -0.0658,3.618208 -0.34537,0.772981 -0.62496,2.565639 -0.97033,6.249632 -0.18092,1.990014 -0.16447,2.483406 0.0987,4.52276 0.41116,3.10837 0.41116,3.371512 0.14801,3.897797 -0.13157,0.246696 -0.23025,0.509839 -0.23025,0.575624 0.0164,0.06579 0.27959,-0.378267 0.59207,-0.986784 0.31249,-0.608516 0.52629,-1.200587 0.4605,-1.315712 -0.0658,-0.115125 -0.0658,-0.148017 0.0165,-0.08223 0.0822,0.08223 0.37827,-0.246696 0.69075,-0.690749 0.88811,-1.332158 1.97357,-2.384728 2.22027,-2.170925 0.4276,0.345375 2.2696,1.332159 2.2696,1.200587 0,-0.06578 -0.31248,-0.279588 -0.69075,-0.444052 -0.37827,-0.164464 -0.90455,-0.476946 -1.1348,-0.690749 -0.62496,-0.509839 -1.03612,-0.296035 -2.20382,1.217034 -0.52628,0.674302 -0.98678,1.184141 -1.01968,1.151248 -0.16446,-0.164464 0.39472,-1.069016 1.05257,-1.710426 0.75654,-0.690749 1.26638,-1.036123 2.12159,-1.348605 0.36182,-0.148017 0.41116,-0.131571 0.34537,0.06579 -0.0658,0.148017 -0.0164,0.296035 0.0822,0.36182 0.11513,0.06579 0.13158,0.04934 0.0658,-0.06578 -0.0658,-0.115125 -0.0164,-0.197357 0.13157,-0.197357 0.13158,0 0.27959,-0.09868 0.31249,-0.197357 0.0658,-0.164464 0.0987,-0.148017 0.0987,0.01645 0.0164,0.18091 0.0658,0.18091 0.31248,0 0.24669,-0.197357 0.26314,-0.197357 0.0822,0.03289 -0.11513,0.148017 -0.14802,0.328927 -0.0822,0.411159 0.0658,0.06579 0,0.04934 -0.16447,-0.06578 -0.14801,-0.131571 -0.31248,-0.148018 -0.36182,-0.06579 -0.13157,0.213804 0.44406,0.345375 0.75654,0.180911 0.11512,-0.06579 0.32893,-0.04934 0.4605,0.03289 0.2138,0.131571 0.19735,0.18091 -0.0493,0.378267 -0.26315,0.197356 -0.26315,0.230249 -0.0329,0.328928 0.14801,0.04934 0.23025,0.164464 0.16446,0.263142 -0.0493,0.08223 -0.13157,0.41116 -0.16446,0.723642 -0.16447,1.249926 -0.83877,2.170925 -2.38473,3.223494 -0.52629,0.361821 -0.98678,0.805874 -1.03612,1.003231 -0.0822,0.312482 -0.0329,0.296035 0.34537,-0.131571 0.2467,-0.279589 0.83877,-0.789428 1.31571,-1.134802 0.47695,-0.345374 1.10191,-0.970338 1.36505,-1.365051 0.50984,-0.772981 0.57563,-0.789427 0.31249,-0.115125 -0.14802,0.427606 -0.14802,0.427606 0.47694,0.328928 0.49339,-0.08223 0.64141,-0.04934 0.64141,0.115125 -0.0493,0.82232 0.0164,0.904552 0.60852,0.838766 l 0.57562,-0.06578 v 0.707195 c 0,0.920998 0.18091,1.200587 0.65786,1.05257 0.19735,-0.06579 0.60851,-0.06579 0.921,-0.01645 0.49339,0.09868 0.54273,0.164464 0.46049,0.559178 -0.0658,0.345374 -0.0165,0.476945 0.29604,0.608517 0.2138,0.09868 0.36182,0.246696 0.34537,0.345374 -0.0164,0.09868 0.31249,0.180911 0.74009,0.180911 0.60852,0.01645 0.6743,0 0.27959,-0.09868 -0.52628,-0.115125 -1.23348,-0.509838 -1.23348,-0.707195 0,-0.06579 0.41116,-0.328928 0.90455,-0.575624 1.24993,-0.64141 2.63143,-1.825551 2.9768,-2.565639 0.34538,-0.756534 1.00323,-1.332158 1.80911,-1.595301 0.52628,-0.18091 0.62496,-0.164464 0.98678,0.180911 0.21381,0.197357 0.39471,0.444053 0.39471,0.509838 0,0.263143 -1.41439,2.154479 -2.08869,2.795888 -0.34537,0.328928 -1.11835,0.82232 -1.72687,1.118356 -1.74332,0.805873 -1.36505,1.069016 0.80587,0.559177 1.97357,-0.460499 2.45052,-0.36182 4.68723,1.085463 1.24993,0.82232 1.33215,0.904552 0.70719,0.756534 -0.4605,-0.115125 -0.47694,-0.115125 -0.19735,0.197357 0.46049,0.509838 0.31248,0.624963 -0.18091,0.148017 -0.62497,-0.608516 -1.72688,-1.118355 -1.87489,-0.888105 -0.0658,0.09868 -0.0329,0.312481 0.0658,0.493392 0.0822,0.164464 0.11512,0.361821 0.0493,0.41116 -0.0987,0.09868 -0.4934,-0.296035 -1.31572,-1.365051 l -0.32893,-0.427607 -0.98678,0.493392 c -0.54273,0.279589 -1.1348,0.509839 -1.31571,0.509839 -0.18091,0 -0.74009,0.164464 -1.23348,0.345374 -0.90455,0.328928 -4.47342,1.118355 -5.26285,1.151248 -0.37827,0.03289 -0.39471,0.03289 -0.0493,0.09868 0.2138,0.03289 1.1348,-0.08223 2.03935,-0.263142 0.921,-0.197357 1.87489,-0.345374 2.13803,-0.345374 0.4934,0 0.75654,0.230249 0.47695,0.41116 -0.13157,0.08223 -0.11512,0.18091 0.0164,0.345374 0.0987,0.131571 0.13157,0.23025 0.0658,0.23025 -0.0658,0 -0.0329,0.115124 0.0822,0.246696 0.18091,0.213803 0.14802,0.328928 -0.23025,0.723641 l -0.44405,0.476947 0.49339,0.164462 c 0.47695,0.164465 0.49339,0.213805 0.31248,0.608518 -0.14802,0.345374 -0.14802,0.509839 0,0.756534 0.11513,0.180911 0.18091,0.378267 0.13157,0.460499 -0.0493,0.06579 -0.11512,0.328928 -0.16446,0.559179 -0.0658,0.345374 0.0164,0.509839 0.32893,0.72364 l 0.41116,0.263142 -0.34538,0.345377 c -0.26314,0.296035 -0.27959,0.41116 -0.13157,0.559176 0.16446,0.164465 0.16446,0.246697 -0.0329,0.378269 -0.2138,0.13157 -0.2138,0.180909 0.0493,0.378267 0.29604,0.230249 0.27959,0.230249 -0.0329,0.345374 -0.41116,0.131572 -0.44405,0.296035 -0.0987,0.575625 0.34537,0.279588 0.31248,0.49339 -0.0658,0.49339 -0.18091,0 -0.37827,0.08223 -0.44405,0.197358 -0.0658,0.09868 -0.0493,0.131572 0.0658,0.06579 0.0987,-0.04934 0.2138,0.03289 0.27959,0.213802 0.0658,0.213804 -0.0493,0.460499 -0.32893,0.740089 -0.34538,0.345374 -0.39471,0.476946 -0.2467,0.756534 0.14802,0.279588 0.13157,0.328928 -0.14801,0.328928 -0.18091,0 -0.37827,0.08223 -0.42761,0.164465 -0.0493,0.09868 -0.0329,0.164462 0.0329,0.164462 0.0822,0 0.2138,0.131572 0.32893,0.312483 0.16446,0.263142 0.14801,0.312481 -0.23025,0.312481 -0.21381,0 -0.52629,0.115126 -0.6743,0.263142 -0.23025,0.213804 -0.23025,0.32893 -0.0658,0.592071 0.27958,0.444053 0.24669,0.542732 -0.13158,0.444053 -0.18091,-0.04934 -0.32892,-0.03289 -0.32892,0.04934 0,0.06579 -0.13158,0.164465 -0.31249,0.213802 -0.2138,0.04934 -0.31248,0.279591 -0.37826,0.838766 -0.11513,0.937446 -0.29604,1.167697 -1.44729,1.743319 -0.50983,0.263144 -1.03612,0.592071 -1.16769,0.756536 -0.14802,0.180909 -0.14802,0.246695 -0.0165,0.164462 0.0987,-0.06578 0.19736,-0.04934 0.19736,0.03289 0,0.09868 -0.2467,0.148019 -0.52629,0.131572 -0.52628,-0.01646 -0.54273,0.01646 -0.55918,0.608518 0,0.624962 -0.0987,0.740088 -1.03612,1.200587 -0.11512,0.06579 -0.37827,0.03289 -0.55918,-0.08223 -0.24669,-0.164465 -0.34537,-0.164465 -0.44405,-0.01646 -0.0822,0.131572 -0.32893,0.164465 -0.70719,0.09868 -0.54274,-0.09868 -0.57563,-0.08223 -0.67431,0.41116 -0.0987,0.493393 -0.11512,0.509839 -0.39471,0.263142 -0.39471,-0.361821 -0.55918,-0.345374 -0.82232,0.04934 -0.23025,0.378267 -0.4605,0.427606 -0.64141,0.115126 z m -3.88135,-12.071657 c 0.31248,-0.756536 0.19736,-1.315712 -0.52629,-2.911015 -0.32892,-0.674302 -0.69074,-1.661086 -0.80587,-2.187372 -0.13157,-0.526285 -0.2467,-0.805873 -0.2467,-0.608515 -0.0164,0.509836 0.4605,2.00646 0.97034,3.026138 0.78943,1.578854 0.77298,2.368281 -0.0493,3.272833 l -0.36182,0.394713 0.37827,-0.197355 c 0.2138,-0.115126 0.49339,-0.476946 0.64141,-0.789427 z m 5.32863,-2.532749 c -0.2138,-0.624961 -0.23025,-1.299265 -0.0329,-1.825548 0.23025,-0.608518 0.19736,-0.707197 -0.24669,-0.657857 -0.26314,0.03289 -0.55918,-0.09868 -0.88811,-0.444053 -0.44405,-0.427606 -0.49339,-0.592071 -0.49339,-1.496622 0,-1.217034 -0.14802,-1.315712 -1.49662,-0.888106 -0.52629,0.164464 -0.90455,0.328928 -0.80588,0.361821 0.0822,0.03289 0.4934,-0.06579 0.90456,-0.213803 1.01967,-0.394714 1.23348,-0.279589 1.23348,0.756534 0,1.233481 0.65785,2.121587 1.57885,2.121587 0.18091,0 0.19736,0.06578 0.0658,0.312481 -0.0822,0.180908 -0.16446,0.608515 -0.16446,0.970338 0,0.657855 0.29603,1.759766 0.44405,1.611747 0.0493,-0.04934 0,-0.312482 -0.0987,-0.608519 z m 2.56564,-4.555652 c 0.4605,-0.115124 0.52629,-0.164463 0.23025,-0.18091 -0.52628,-0.01645 -1.3815,0.526285 -1.99001,1.299265 -0.78943,0.986785 -0.57563,0.970338 0.32892,-0.03289 0.57563,-0.641409 1.00324,-0.970337 1.43084,-1.085462 z m 1.99002,-0.312481 c -0.26315,-0.03289 -0.65786,-0.03289 -0.90456,0 -0.26314,0.03289 -0.0493,0.06579 0.44406,0.06579 0.49339,0 0.70719,-0.03289 0.4605,-0.06579 z m -9.12776,-0.444053 c -0.16446,-0.213803 -0.31248,-0.378267 -0.34537,-0.345374 -0.11513,0.09868 0.31248,0.740088 0.47695,0.740088 0.0822,0 0.0329,-0.180911 -0.13158,-0.394714 z m 7.72981,-2.187371 c -0.2138,-0.03289 -0.57562,-0.03289 -0.82232,0 -0.26314,0.03289 -0.0822,0.06579 0.36182,0.06579 0.4605,0 0.65786,-0.03289 0.4605,-0.06579 z m 5.01615,0 c -0.26314,-0.03289 -0.65785,-0.03289 -0.90455,0 -0.26314,0.03289 -0.0493,0.06579 0.44406,0.06579 0.49339,0 0.70719,-0.03289 0.46049,-0.06579 z m -6.85814,-0.312482 c -0.21381,-0.148017 -0.47695,-0.509838 -0.60852,-0.789427 -0.11513,-0.279589 -0.2138,-0.41116 -0.23025,-0.279589 0,0.378267 0.6743,1.332158 0.95389,1.332158 0.19736,0 0.18091,-0.06579 -0.11512,-0.263142 z"
       inkscape:export-xdpi="23"
       inkscape:export-ydpi="23" />
    <path
       style="fill:#b597a8;stroke:none;stroke-width:0.0164464"
       inkscape:connector-curvature="0"
       id="path4034"
       d="m 31.469165,79.325474 c -0.54273,-1.562407 -0.6743,-2.121585 -0.60852,-2.680763 0.0493,-0.394714 0.16447,-1.365049 0.27959,-2.187372 0.14802,-1.217033 0.13157,-1.628193 -0.0658,-2.302494 -0.26314,-0.888106 -0.52628,-2.861675 -0.69075,-5.345081 -0.0822,-1.200586 -0.2138,-1.841997 -0.59207,-2.762996 -0.27959,-0.657854 -0.4605,-1.233479 -0.41116,-1.282819 0.16447,-0.164462 1.77621,-0.115125 1.95712,0.06579 0.14802,0.148019 0.23025,0.09868 0.37827,-0.180911 0.32893,-0.674301 0.62496,-0.41116 1.11836,1.036124 0.44405,1.266373 0.49339,1.5953 0.50983,3.618209 0,1.809104 -0.0822,2.664317 -0.4605,4.572098 l -0.46049,2.351836 0.57562,1.677532 c 0.52628,1.463731 0.60852,1.907784 0.64141,3.486637 l 0.0493,1.809105 -0.75654,0.04934 -0.75653,0.04934 z"
       inkscape:export-xdpi="23"
       inkscape:export-ydpi="23" />
    <path
       style="fill:#b597a8;stroke:none;stroke-width:0.0164464"
       inkscape:connector-curvature="0"
       id="path4036"
       d="m 27.028635,63.175109 c -0.16446,-0.279588 -0.23025,-0.296034 -0.44405,-0.115123 -0.37827,0.296035 -0.44405,0.263142 -0.54273,-0.27959 -0.11513,-0.624962 -0.55918,-0.723641 -1.08547,-0.230249 -0.26314,0.246695 -0.39471,0.296035 -0.39471,0.148016 0,-0.180909 -0.0493,-0.180909 -0.19736,-0.03289 -0.27958,0.279591 -0.4605,0.246698 -0.4605,-0.06578 0,-0.164465 -0.0987,-0.230251 -0.24669,-0.164465 -0.18091,0.06579 -0.2467,-0.03289 -0.2467,-0.394713 0,-0.608518 -0.19735,-0.624965 -0.64141,-0.06579 -0.44405,0.559178 -0.64141,0.394713 -0.77298,-0.592072 l -0.11512,-0.82232 -0.67431,0.03289 -0.6743,0.04934 0.0658,-0.575625 c 0.0329,-0.312481 0.0822,-0.838766 0.0822,-1.151247 0.0164,-0.559178 0,-0.575625 -0.64141,-0.575625 -0.49339,0 -0.64141,-0.06579 -0.59207,-0.246695 0.0329,-0.131572 0.0987,-0.460499 0.14802,-0.72364 0.0822,-0.4605 0.0658,-0.4605 -0.60852,-0.394716 -0.55918,0.04934 -0.65786,0.01646 -0.57562,-0.197356 0.0658,-0.131572 0.14801,-0.41116 0.19735,-0.624964 0.0658,-0.345374 0.0329,-0.36182 -0.37826,-0.263141 -0.41116,0.09868 -0.44406,0.08223 -0.34538,-0.197357 0.39472,-0.937443 0.29604,-1.085461 -0.36182,-0.624962 -0.2138,0.148016 -0.50984,0.213802 -0.70719,0.148016 -0.31249,-0.09868 -0.34538,-0.197356 -0.2467,-0.920996 0.0822,-0.641411 0.0658,-0.838769 -0.14802,-0.904553 -0.27959,-0.115125 -0.16446,-0.822319 0.19736,-1.184142 0.16446,-0.164463 0.18091,-0.296035 0.0493,-0.444053 -0.13157,-0.164462 -0.13157,-0.312481 0.0329,-0.575622 0.18091,-0.312484 0.16447,-0.394714 -0.18091,-0.674304 -0.42761,-0.345374 -0.42761,-0.345374 0.11513,-0.624962 0.44405,-0.246697 0.46049,-0.690751 0.0329,-1.085465 -0.32893,-0.296034 -0.32893,-0.296034 0.11512,-0.77298 0.39472,-0.41116 0.41116,-0.509839 0.26315,-1.036124 -0.16447,-0.526285 -0.14802,-0.575622 0.13157,-0.575622 0.50984,0 1.26637,-0.4605 1.38149,-0.838766 0.0658,-0.180912 0.0164,-0.559179 -0.0987,-0.838768 -0.14802,-0.378267 -0.14802,-0.526285 0,-0.608517 0.0987,-0.06579 0.14801,-0.246696 0.0822,-0.394714 -0.13157,-0.36182 0.0658,-0.674302 0.32893,-0.460499 0.11512,0.09868 0.50983,0.213803 0.90455,0.279589 l 0.70719,0.115125 -0.27959,-0.444053 c -0.23025,-0.361821 -0.26314,-0.526285 -0.11512,-0.838766 0.11512,-0.23025 0.29603,-0.41116 0.44405,-0.41116 0.13157,0 0.2467,-0.115125 0.2467,-0.246696 0,-0.115125 0.0987,-0.296036 0.2138,-0.361821 0.29604,-0.180911 0.93745,-1.545962 0.93745,-1.973568 0,-0.279589 0.13157,-0.345375 0.82232,-0.41116 0.4605,-0.04934 0.97033,-0.213803 1.15124,-0.378267 0.18092,-0.164464 0.32893,-0.246697 0.32893,-0.180911 0,0.279589 -0.70719,1.46373 -1.29926,2.138032 -0.69075,0.805874 -1.20059,2.105139 -1.39795,3.651101 -0.14801,1.052569 0.21381,2.647872 0.95389,4.259618 0.80588,1.726873 0.82232,2.401174 0.14802,3.223497 -0.24669,0.296034 -0.34537,0.493389 -0.2138,0.444052 0.13157,-0.03289 0.42761,-0.32893 0.62496,-0.64141 0.50984,-0.723641 0.41116,-1.693979 -0.27959,-3.059032 -1.08546,-2.170925 -1.26637,-4.177386 -0.54273,-6.085168 0.18091,-0.476946 0.27959,-0.904552 0.2138,-0.970338 -0.0493,-0.06578 0,-0.06578 0.0987,0 0.11513,0.06579 0.36182,0.03289 0.55918,-0.08223 0.50984,-0.263142 0.6743,0.08223 0.55918,1.200588 -0.0822,0.855212 -0.0658,0.953891 0.29603,1.200587 0.37827,0.230249 0.47695,0.230249 1.33216,-0.09868 1.26638,-0.460499 1.41439,-0.378267 1.41439,0.82232 0,0.838766 0.0658,1.036124 0.47695,1.480177 0.26314,0.279588 0.62496,0.509839 0.78943,0.509839 0.29603,0 0.31248,0.09868 0.24669,0.888106 -0.0658,0.871659 0.19736,2.072246 0.4605,2.072246 0.0658,0 0.0329,-0.279591 -0.0987,-0.608519 -0.44405,-1.249926 -0.24669,-1.891334 1.03612,-3.47019 0.77299,-0.953891 1.1677,-1.118355 3.23995,-1.332158 0.98678,-0.115125 2.53274,-0.345374 3.42085,-0.526285 1.69398,-0.345374 2.61497,-0.312481 2.28605,0.06579 -0.11513,0.148017 -0.0987,0.345374 0.0658,0.657856 0.2138,0.41116 0.19735,0.476946 -0.16447,0.920998 l -0.39471,0.460501 0.41116,0.197355 c 0.41116,0.180911 0.42761,0.27959 0.11512,1.118357 -0.0493,0.115123 0.0329,0.263141 0.16447,0.312481 0.19735,0.06579 0.23025,0.180908 0.0987,0.509838 -0.23025,0.608516 -0.18091,0.82232 0.23025,1.200587 0.34537,0.345374 0.34537,0.36182 0.0493,0.575626 -0.2467,0.180909 -0.26314,0.296034 -0.13157,0.460499 0.14802,0.164462 0.13157,0.279588 -0.0164,0.427606 -0.14802,0.164463 -0.13157,0.246695 0.0987,0.41116 0.26314,0.213802 0.26314,0.230249 -0.0493,0.312481 -0.39472,0.09868 -0.42761,0.328928 -0.0822,0.674301 0.34537,0.345377 0.32893,0.37827 -0.44405,0.509839 -0.57563,0.115126 -0.62497,0.148019 -0.29604,0.197358 0.69075,0.13157 0.75653,0.345374 0.26314,0.855213 -0.31248,0.328927 -0.4276,0.575625 -0.36182,0.805873 0.0822,0.246695 0.0165,0.345374 -0.26314,0.41116 -0.36182,0.09868 -0.36182,0.115126 -0.0822,0.394713 0.27959,0.279591 0.26314,0.296035 -0.2467,0.476946 -0.4605,0.164465 -0.54273,0.263142 -0.52628,0.707194 0.0164,0.345377 -0.0493,0.509839 -0.19736,0.509839 -0.13157,0 -0.23025,0.08223 -0.23025,0.164465 0,0.09868 -0.14802,0.164465 -0.32893,0.164465 -0.26314,0 -0.32892,0.115123 -0.32892,0.575623 0,0.920998 -0.41116,1.545963 -1.28282,1.907783 -0.42761,0.180909 -0.921,0.476946 -1.10191,0.641408 -0.18091,0.164465 -0.52629,0.378267 -0.77298,0.476946 -0.39472,0.148018 -0.4605,0.263144 -0.4605,0.82232 0,0.460499 -0.0822,0.657857 -0.27959,0.74009 -0.16447,0.04934 -0.42761,0.180908 -0.57562,0.296034 -0.2467,0.164465 -0.36183,0.164465 -0.64141,0 -0.2467,-0.148019 -0.39472,-0.164465 -0.54274,-0.04934 -0.11512,0.09868 -0.44405,0.131572 -0.74008,0.08223 -0.47695,-0.09868 -0.50984,-0.06579 -0.60852,0.41116 -0.0987,0.476946 -0.13157,0.493392 -0.39471,0.263141 -0.36182,-0.328927 -0.60852,-0.312481 -0.82232,0.08223 -0.23025,0.427606 -0.42761,0.411159 -0.65786,-0.01646 z"
       inkscape:export-xdpi="23"
       inkscape:export-ydpi="23" />
    <path
       style="fill:#b597a8;stroke:none;stroke-width:0.0164464"
       inkscape:connector-curvature="0"
       id="path4038"
       d="m 27.653595,46.070851 c -0.4605,-0.263141 -0.69074,-0.822319 -0.78942,-1.874888 -0.0987,-1.167695 -0.26315,-1.249927 -1.56241,-0.805874 -1.23348,0.41116 -1.39795,0.296035 -1.39795,-0.953891 0,-1.28282 -0.14801,-1.529515 -0.74008,-1.381498 l -0.4605,0.115125 0.50984,-0.59207 c 1.08546,-1.217034 1.18414,-1.595301 1.18414,-4.555653 0,-4.456975 0.26314,-7.894272 0.74008,-9.752716 0.23025,-0.904551 0.41116,-2.039353 0.41116,-2.549192 0,-0.493391 0.0987,-1.200587 0.19736,-1.562408 l 0.2138,-0.657856 0.0493,0.624964 c 0.0493,0.657856 0.19736,0.756534 0.52629,0.36182 0.13157,-0.148017 0.16446,-0.460499 0.0987,-0.82232 -0.13157,-0.690749 0.16446,-1.940675 0.44405,-1.841997 0.55918,0.180911 0.42761,2.647871 -0.23025,3.93069 -0.23025,0.460499 -0.41116,1.480176 -0.64141,3.782672 -0.39471,3.782672 -0.41116,4.950366 -0.0822,7.104845 0.29604,1.924229 0.31248,3.124816 0.0658,3.585315 -0.0987,0.180911 -0.14802,0.361821 -0.11512,0.394714 0.0493,0.03289 0.41116,-0.624963 0.83876,-1.46373 0.78943,-1.595301 2.22027,-3.486637 2.763,-3.651101 0.18091,-0.06578 0.49339,0.03289 0.77298,0.213803 0.2467,0.180911 0.75653,0.476946 1.15125,0.674303 0.55918,0.279589 0.69075,0.444053 0.69075,0.805873 0,0.888106 -1.29927,2.466961 -2.59853,3.141263 -0.9539,0.509839 -1.05257,1.562408 -0.21381,2.46696 0.42761,0.460499 0.52629,0.476946 2.36828,0.592071 2.40118,0.148017 6.85815,-0.148018 9.06197,-0.608517 0.90455,-0.180911 1.90778,-0.296035 2.2696,-0.246696 0.60852,0.08223 2.41763,1.036123 3.25639,1.743318 l 0.41116,0.328928 -0.41116,-0.09868 c -0.41116,-0.09868 -0.41116,-0.09868 -0.0987,0.246696 0.42761,0.493392 0.13157,0.460499 -0.37826,-0.03289 -0.41116,-0.378267 -1.99002,-1.167694 -1.99002,-0.986784 0,0.04934 0.11513,0.312482 0.26314,0.575624 0.36182,0.723642 0.11513,0.82232 -0.41116,0.164464 -0.23025,-0.296035 -0.57562,-0.740088 -0.77298,-0.970338 l -0.34537,-0.411159 -0.55918,0.345374 c -0.31248,0.18091 -1.15125,0.493392 -1.87489,0.690749 -0.72364,0.18091 -1.44728,0.41116 -1.61175,0.509838 -0.39471,0.213803 -4.29251,0.920998 -6.15095,1.118355 -0.82232,0.08223 -1.72687,0.279589 -2.00646,0.41116 -0.47695,0.263143 -1.77621,1.661087 -1.71043,1.874889 0.0329,0.180911 -0.82232,0.197358 -1.1348,0.01646 z"
       inkscape:export-xdpi="23"
       inkscape:export-ydpi="23" />
    <path
       style="fill:#b597a8;stroke:none;stroke-width:0.0164464"
       inkscape:connector-curvature="0"
       id="path4040"
       d="m 30.285025,41.038254 c -0.59207,-0.09868 -1.11836,-0.772981 -1.11836,-1.447283 0,-0.4605 0.14802,-0.64141 1.15125,-1.381498 0.64141,-0.476946 1.34861,-1.134802 1.57886,-1.46373 0.29603,-0.427606 0.39471,-0.493392 0.31248,-0.230249 -0.0987,0.36182 -0.0822,0.378267 0.47694,0.279588 0.59207,-0.115124 0.59207,-0.115124 0.59207,0.476946 v 0.592071 l 0.64141,-0.09868 0.65786,-0.09868 0.0493,0.871659 0.0493,0.888106 0.75653,0.01645 c 1.05257,0.01645 1.26638,0.131571 1.18414,0.59207 -0.0658,0.312482 0.0329,0.444053 0.39472,0.608517 0.4276,0.213803 0.44405,0.23025 0.13157,0.361821 -0.32893,0.131571 -6.01938,0.164464 -6.85815,0.03289 z"
       inkscape:export-xdpi="23"
       inkscape:export-ydpi="23" />
    <path
       style="fill:#b597a8;stroke:none;stroke-width:0.0164464"
       inkscape:connector-curvature="0"
       id="path4042"
       d="m 37.389865,40.577755 -0.37826,-0.41116 0.8881,-0.394714 c 1.11836,-0.509838 2.763,-1.907782 3.05903,-2.598531 0.32893,-0.756535 0.69075,-1.118356 1.49663,-1.46373 0.74008,-0.328928 1.06901,-0.263142 1.51307,0.246696 0.16446,0.213803 0.0987,0.427607 -0.4934,1.315712 -0.95389,1.480176 -1.85844,2.253157 -3.53597,3.042584 -1.67754,0.789428 -2.02291,0.82232 -2.5492,0.263143 z"
       inkscape:export-xdpi="23"
       inkscape:export-ydpi="23" />
    <path
       style="fill:#b597a8;stroke:none;stroke-width:0.0164464"
       inkscape:connector-curvature="0"
       id="path4044"
       d="m 27.357565,35.397138 c 0.0822,-0.312482 0.2138,-0.608517 0.27959,-0.657856 0.0822,-0.06578 0.4605,-0.41116 0.87166,-0.756534 l 0.74008,-0.64141 -0.90455,1.151248 c -1.20058,1.562408 -1.16769,1.529516 -0.98678,0.904552 z"
       inkscape:export-xdpi="23"
       inkscape:export-ydpi="23" />
    <path
       style="fill:#b597a8;stroke:none;stroke-width:0.0164464"
       inkscape:connector-curvature="0"
       id="path4046"
       d="m 31.518505,34.097873 c -0.4605,-0.263143 -1.03613,-0.608517 -1.24993,-0.789428 l -0.41116,-0.312481 0.47695,-0.180911 c 0.26314,-0.09868 0.44405,-0.115124 0.37826,-0.03289 -0.2138,0.36182 0.14802,0.476945 0.44406,0.131571 0.16446,-0.197357 0.31248,-0.279589 0.31248,-0.164464 0,0.115124 0.0822,0.148017 0.2138,0.08223 0.11513,-0.06579 0.14802,-0.04934 0.0658,0.03289 -0.0822,0.08223 -0.23025,0.148018 -0.31248,0.148018 -0.0987,0 -0.2138,0.09868 -0.26314,0.23025 -0.0493,0.164464 0.0329,0.213803 0.36182,0.148017 0.23025,-0.04934 0.42761,-0.01645 0.42761,0.04934 0,0.08223 0.13157,0.148017 0.29603,0.164463 0.18091,0 0.19736,0.03289 0.0658,0.09868 -0.16446,0.06578 -0.16446,0.131571 -0.0164,0.312482 0.39471,0.476945 0.0164,0.526284 -0.78943,0.08223 z"
       inkscape:export-xdpi="23"
       inkscape:export-ydpi="23" />
    <path
       style="fill:#e5c0d8;stroke:none;stroke-width:0.0164464"
       inkscape:connector-curvature="0"
       id="path4049"
       d="m 31.485615,79.325474 c -0.57563,-1.5953 -0.69075,-2.105139 -0.60852,-2.680763 0.4276,-3.387958 0.44405,-3.667546 0.19736,-4.572098 -0.27959,-1.003232 -0.50984,-2.845229 -0.67431,-5.328635 -0.0987,-1.266372 -0.23025,-1.87489 -0.60851,-2.762996 -0.26315,-0.641408 -0.44406,-1.18414 -0.41116,-1.217033 0.14801,-0.164462 1.79265,-0.09868 1.95712,0.06579 0.13157,0.131572 0.23025,0.09868 0.36182,-0.164465 0.36182,-0.72364 0.55918,-0.493389 1.16769,1.381498 0.57563,1.776212 0.60852,1.940677 0.52629,3.585316 -0.0329,0.953892 -0.27959,2.845229 -0.52629,4.226724 l -0.4605,2.499855 0.54273,1.447281 c 0.41116,1.101911 0.59208,1.874891 0.7072,3.223496 0.0822,0.970338 0.11512,1.87489 0.0493,2.00646 -0.0493,0.164465 -0.31248,0.246697 -0.78943,0.246697 h -0.70719 z"
       inkscape:export-xdpi="23"
       inkscape:export-ydpi="23" />
    <path
       style="fill:#e5c0d8;stroke:none;stroke-width:0.0164464"
       inkscape:connector-curvature="0"
       id="path4051"
       d="m 27.077975,63.208002 c -0.11512,-0.460499 -0.54273,-0.575625 -0.82232,-0.230248 -0.16446,0.213802 -0.2138,0.230248 -0.16446,0.04934 0.18091,-0.657857 -0.60852,-1.10191 -1.03613,-0.592071 -0.0987,0.131572 -0.27959,0.213802 -0.41116,0.164465 -0.11512,-0.04934 -0.26314,-0.01646 -0.32893,0.08223 -0.16446,0.263144 -0.41116,0.213804 -0.41116,-0.08223 0,-0.164465 -0.0987,-0.230251 -0.24669,-0.164465 -0.18091,0.06579 -0.2467,-0.03289 -0.2467,-0.394713 0,-0.608518 -0.19735,-0.624965 -0.65785,-0.04934 -0.42761,0.559178 -0.62497,0.36182 -0.69075,-0.690748 -0.0493,-0.723643 -0.0822,-0.805876 -0.37827,-0.756536 -0.18091,0.03289 -0.50984,0.08223 -0.74009,0.08223 -0.37826,0.01646 -0.41116,-0.03289 -0.34537,-0.559178 0.0329,-0.312481 0.0822,-0.838766 0.0822,-1.151247 0.0164,-0.542732 -0.0164,-0.575625 -0.59207,-0.624964 -0.65786,-0.04934 -0.74009,-0.180909 -0.4605,-0.690748 0.2467,-0.460499 -0.19736,-0.838766 -0.85521,-0.707194 -0.4605,0.09868 -0.49339,0.08223 -0.31248,-0.246698 0.31248,-0.575622 0.23025,-0.855212 -0.2467,-0.855212 -0.42761,0 -0.42761,-0.01646 -0.16446,-0.394714 0.31248,-0.509839 0.13157,-0.641408 -0.50984,-0.394713 -0.82232,0.312481 -1.06902,0.09868 -0.93745,-0.77298 0.0822,-0.608518 0.0493,-0.805874 -0.16446,-0.953892 -0.2467,-0.180912 -0.2467,-0.246698 0.0493,-0.789427 0.2138,-0.41116 0.26314,-0.657857 0.14802,-0.772983 -0.0987,-0.09868 -0.0822,-0.263141 0.0493,-0.493389 0.19736,-0.296036 0.16447,-0.394713 -0.16446,-0.756536 -0.36182,-0.394713 -0.36182,-0.394713 -0.0493,-0.493392 0.64141,-0.213802 0.74009,-0.509836 0.29604,-1.036123 l -0.41116,-0.493392 0.41116,-0.394713 c 0.34537,-0.328928 0.39471,-0.476946 0.31248,-0.986785 -0.0987,-0.575625 -0.0822,-0.608515 0.4276,-0.707194 1.00324,-0.197358 1.36506,-0.838766 0.9539,-1.611748 -0.14802,-0.279589 -0.13158,-0.394714 0.0493,-0.526285 0.18091,-0.131571 0.19735,-0.246696 0.0658,-0.460499 -0.24669,-0.41116 -0.0329,-0.526285 0.57563,-0.312482 0.74008,0.246696 1.43083,0.246696 1.16769,-0.01645 -0.32893,-0.328928 -0.2467,-1.249927 0.11512,-1.365052 0.16447,-0.04934 0.34538,-0.246696 0.39472,-0.41116 0.0493,-0.18091 0.2138,-0.328928 0.36182,-0.328928 0.14802,0 0.23025,-0.06579 0.18091,-0.148017 -0.0493,-0.06579 0.0658,-0.41116 0.23025,-0.772981 0.18091,-0.345374 0.32893,-0.805874 0.32893,-1.00323 0,-0.328929 0.0822,-0.378268 0.72364,-0.378268 0.47694,0 0.85521,-0.115125 1.15125,-0.345374 0.23025,-0.180911 0.4276,-0.296035 0.4276,-0.23025 0,0.246696 -0.70719,1.397944 -1.29926,2.105139 -0.7072,0.855213 -1.24993,2.28605 -1.43084,3.799119 -0.13157,1.069016 0.23025,2.532747 1.00323,4.193833 0.75654,1.595301 0.77298,2.417621 0.0493,3.141264 -0.41116,0.41116 -0.44405,0.509836 -0.2138,0.476943 0.4605,-0.09868 1.06901,-1.085461 1.06901,-1.759765 0,-0.328927 -0.27959,-1.200587 -0.65785,-1.990014 -1.06902,-2.335386 -1.21704,-3.815561 -0.59207,-5.871361 0.2138,-0.674303 0.37826,-0.904552 0.80587,-1.101909 0.50984,-0.263142 0.52628,-0.246696 0.62496,0.09868 0.0493,0.197356 0.0658,0.690748 0.0329,1.101908 -0.0658,0.608517 -0.0164,0.789428 0.27958,1.069016 0.34538,0.312482 0.36183,0.312482 1.39795,-0.06578 0.59207,-0.197357 1.1348,-0.328928 1.23348,-0.263143 0.0822,0.04934 0.16446,0.542732 0.16446,1.085463 0,0.888105 0.0493,1.05257 0.47695,1.480177 0.26314,0.263141 0.64141,0.476946 0.82232,0.476946 0.29603,0 0.32893,0.06578 0.23025,0.460499 -0.16447,0.592069 -0.11513,1.447282 0.13157,2.022906 0.31248,0.789428 0.4605,0.526287 0.19736,-0.36182 -0.19736,-0.657857 -0.21381,-0.986785 -0.0658,-1.447284 0.23025,-0.789427 1.67753,-2.549192 2.2696,-2.779442 0.2467,-0.09868 1.26637,-0.263142 2.2696,-0.361821 0.98679,-0.09868 2.49986,-0.328928 3.37151,-0.509838 1.6282,-0.345374 2.48341,-0.312482 2.15448,0.06579 -0.11512,0.148017 -0.0987,0.345374 0.0658,0.657856 0.21381,0.41116 0.19736,0.476945 -0.16446,0.920998 l -0.39471,0.4605 0.41116,0.197356 c 0.41116,0.180911 0.4276,0.27959 0.11512,1.118357 -0.0493,0.115123 0.0329,0.263141 0.16447,0.312481 0.19735,0.06579 0.23024,0.180908 0.0987,0.509838 -0.23025,0.608516 -0.18091,0.82232 0.2138,1.200587 l 0.37827,0.345374 -0.39472,0.296035 c -0.34537,0.263144 -0.36182,0.312484 -0.0987,0.411163 0.23025,0.08223 0.2467,0.148015 0.0822,0.345373 -0.14802,0.180909 -0.16446,0.296035 -0.0165,0.476946 0.14802,0.164463 0.13158,0.246695 -0.0658,0.328928 -0.31248,0.115125 -0.32892,0.575625 0,0.690747 0.41116,0.164465 0.27959,0.394714 -0.19735,0.394714 -0.26315,0 -0.57563,0.08223 -0.7072,0.164465 -0.19735,0.131572 -0.14802,0.164465 0.18091,0.164465 0.60852,0 0.69075,0.378267 0.21381,0.838766 -0.29604,0.279588 -0.37827,0.493392 -0.31249,0.756534 0.0658,0.296034 0.0164,0.378267 -0.24669,0.378267 -0.39472,0 -0.42761,0.213804 -0.0658,0.509838 0.2138,0.180912 0.18091,0.230249 -0.29604,0.394714 -0.47694,0.148018 -0.54273,0.246697 -0.52628,0.707194 0.0329,0.427606 -0.0329,0.526285 -0.29604,0.526285 -0.16446,0 -0.26314,0.08223 -0.2138,0.164465 0.0493,0.09868 -0.0493,0.164465 -0.23025,0.164465 -0.27959,0 -0.34538,0.09868 -0.34538,0.49339 0,0.953892 -0.39471,1.56241 -1.24992,1.957123 -0.44405,0.213802 -0.95389,0.509839 -1.1348,0.674301 -0.18091,0.164465 -0.52629,0.378267 -0.77298,0.476946 -0.37827,0.131572 -0.4605,0.27959 -0.47695,0.707197 0,0.394713 -0.13157,0.641408 -0.49339,0.920999 -0.44405,0.36182 -0.50984,0.36182 -0.93745,0.148015 -0.41116,-0.197355 -0.49339,-0.197355 -0.64141,0.01646 -0.11512,0.197358 -0.24669,0.213805 -0.65785,0.06579 -0.55918,-0.180911 -0.7072,-0.04934 -0.7072,0.657858 0,0.328927 -0.0164,0.328927 -0.29603,0.08223 -0.39472,-0.361821 -0.64141,-0.345374 -0.85522,0.04934 -0.23024,0.41116 -0.49339,0.427607 -0.60851,0.01646 z"
       inkscape:export-xdpi="23"
       inkscape:export-ydpi="23" />
    <path
       style="fill:#e5c0d8;stroke:none;stroke-width:0.0164464"
       inkscape:connector-curvature="0"
       id="path4053"
       d="m 27.735835,46.087298 c -0.52629,-0.213802 -0.87166,-1.00323 -0.87166,-1.973567 0,-0.986784 -0.21381,-1.134802 -1.21704,-0.838767 -0.37826,0.115125 -0.8881,0.23025 -1.16769,0.23025 l -0.49339,0.03289 -0.0822,-1.23348 -0.0822,-1.23348 -0.54273,0.01645 -0.52628,0.03289 0.4605,-0.526285 c 1.18414,-1.348603 1.15124,-1.184139 1.24992,-6.430541 0.0822,-4.736563 0.26314,-6.595006 0.83877,-8.535681 0.13157,-0.444053 0.24669,-1.266373 0.24669,-1.809104 0,-0.559178 0.0987,-1.299266 0.19736,-1.661087 l 0.2138,-0.657856 0.0493,0.608517 c 0.0493,0.674303 0.19736,0.772981 0.52629,0.378267 0.13157,-0.148017 0.16446,-0.460499 0.0987,-0.82232 -0.13157,-0.657856 0.19736,-1.924229 0.4605,-1.841997 0.52628,0.180911 0.34537,2.730103 -0.2467,3.93069 -0.2138,0.427607 -0.41116,1.545962 -0.64141,3.667548 -0.36182,3.371511 -0.39471,4.999705 -0.16446,6.743023 0.34537,2.401175 0.37827,3.33862 0.16446,3.864905 -0.11512,0.279588 -0.16446,0.542731 -0.11512,0.608516 0.0493,0.04934 0.39471,-0.542731 0.77298,-1.315712 0.70719,-1.496622 2.30249,-3.651101 2.81233,-3.815565 0.18091,-0.06578 0.50984,0.03289 0.77298,0.213803 0.2467,0.180911 0.75654,0.476946 1.15125,0.674303 0.55918,0.279589 0.69075,0.444053 0.69075,0.805873 0,0.904553 -1.10191,2.220265 -2.68076,3.223495 -0.921,0.575624 -0.98679,1.46373 -0.14802,2.368282 0.44405,0.476945 0.52628,0.493392 2.38473,0.608517 2.41762,0.148017 7.0884,-0.164464 9.1442,-0.608517 0.85521,-0.180911 1.82555,-0.296035 2.17092,-0.246696 0.34538,0.04934 1.24993,0.460499 2.02291,0.920998 1.48018,0.904552 1.82555,1.200587 1.21703,1.036124 -0.37826,-0.08223 -0.37826,-0.08223 -0.0658,0.263142 0.42761,0.493392 0.13158,0.460499 -0.37826,-0.03289 -0.41116,-0.378267 -1.99002,-1.167694 -1.99002,-0.986784 0,0.04934 0.11513,0.312482 0.26314,0.575624 0.13158,0.279589 0.21381,0.542731 0.16447,0.59207 -0.14802,0.148018 -0.54273,-0.263142 -1.00323,-1.036123 -0.23025,-0.394713 -0.52629,-0.723642 -0.64141,-0.723642 -0.11512,0 -0.54273,0.180911 -0.93745,0.394714 -0.39471,0.213804 -1.23348,0.526285 -1.87489,0.674303 -0.62496,0.148017 -1.28282,0.345374 -1.44728,0.427606 -0.36182,0.213803 -4.12805,0.937445 -5.44376,1.05257 -2.49985,0.230249 -2.36828,0.18091 -3.58531,1.414391 -1.18414,1.200587 -1.1677,1.200587 -1.72688,0.970336 z"
       inkscape:export-xdpi="23"
       inkscape:export-ydpi="23" />
    <path
       style="fill:#e5c0d8;stroke:none;stroke-width:0.0164464"
       inkscape:connector-curvature="0"
       id="path4055"
       d="m 30.433045,41.038254 c -0.4934,-0.04934 -0.69075,-0.180911 -0.93745,-0.592071 -0.57562,-0.937444 -0.4605,-1.315712 0.72364,-2.154478 0.59207,-0.41116 1.28282,-1.019677 1.56241,-1.365051 0.37827,-0.444053 0.47695,-0.509839 0.39471,-0.23025 -0.0822,0.328928 -0.0493,0.345375 0.34538,0.18091 0.6743,-0.246696 0.75653,-0.213803 0.75653,0.411161 v 0.575624 l 0.65786,-0.09868 0.65785,-0.115125 v 0.937445 0.920999 h 0.98679 0.98678 v 0.493392 c 0,0.394713 0.0987,0.542731 0.4605,0.690748 l 0.44406,0.180911 -0.4934,0.115125 c -0.50984,0.131571 -5.44376,0.164463 -6.54566,0.04934 z"
       inkscape:export-xdpi="23"
       inkscape:export-ydpi="23" />
    <path
       style="fill:#e5c0d8;stroke:none;stroke-width:0.0164464"
       inkscape:connector-curvature="0"
       id="path4057"
       d="m 37.406315,40.594201 -0.36182,-0.378267 0.87166,-0.41116 c 1.03612,-0.493392 2.87812,-2.006461 3.02614,-2.499853 0.32892,-1.036123 1.85844,-2.10514 2.5163,-1.759765 0.74008,0.394714 0.75653,0.624963 0.11512,1.578855 -1.10191,1.677532 -1.72687,2.220264 -3.45375,3.075476 -0.90455,0.427607 -1.79265,0.789428 -1.99001,0.789428 -0.19736,0 -0.50984,-0.180911 -0.72364,-0.394714 z"
       inkscape:export-xdpi="23"
       inkscape:export-ydpi="23" />
    <path
       style="fill:#e5c0d8;stroke:none;stroke-width:0.0164464"
       inkscape:connector-curvature="0"
       id="path4059"
       d="m 27.357565,35.610942 c 0,-0.411161 0.39471,-0.970338 1.1348,-1.611748 l 0.75653,-0.657856 -0.6743,0.82232 c -0.36182,0.460499 -0.78942,1.00323 -0.93744,1.23348 -0.14802,0.213804 -0.27959,0.312482 -0.27959,0.213804 z"
       inkscape:export-xdpi="23"
       inkscape:export-ydpi="23" />
    <path
       style="fill:#e5c0d8;stroke:none;stroke-width:0.0164464"
       inkscape:connector-curvature="0"
       id="path4061"
       d="m 31.469165,34.015641 c -0.50984,-0.279589 -1.08546,-0.624964 -1.28282,-0.772981 -0.36182,-0.263143 -0.36182,-0.279589 -0.0493,-0.361821 0.18091,-0.04934 0.41116,0.01645 0.52628,0.148017 0.0987,0.131572 0.2467,0.180911 0.32893,0.131572 0.0822,-0.04934 0.14802,-0.01645 0.14802,0.06578 0,0.08223 0.31248,0.213804 0.70719,0.279589 0.37827,0.06579 0.59208,0.148018 0.47695,0.197357 -0.16446,0.06578 -0.16446,0.131571 -0.0164,0.312482 0.39471,0.493391 0.0164,0.493391 -0.83877,0 z"
       inkscape:export-xdpi="23"
       inkscape:export-ydpi="23" />
    <path
       style="fill:#ffffff;stroke:none;stroke-width:0.0164464"
       inkscape:connector-curvature="0"
       id="path4064"
       d="m 32.159915,81.003007 c -0.0822,-0.164463 -0.42761,-1.101908 -0.77298,-2.088693 -0.62497,-1.841997 -0.65786,-2.203817 -0.26315,-3.634652 0.21381,-0.822323 0.23025,-2.565641 0.0164,-3.124817 -0.26314,-0.674304 -0.49339,-2.368283 -0.6414,-4.720119 -0.14802,-2.187368 -0.16447,-2.253154 -1.11836,-4.555651 -0.0822,-0.180912 -0.0164,-0.213805 0.27959,-0.131572 0.2138,0.04934 0.52628,0.03289 0.69075,-0.06579 0.19735,-0.115123 0.29603,-0.09868 0.29603,0.01646 0,0.115125 0.0987,0.164465 0.21381,0.115125 0.0987,-0.03289 0.32892,0 0.49339,0.08223 0.2138,0.115125 0.31248,0.04934 0.44405,-0.279588 0.0822,-0.230251 0.23025,-0.411163 0.31248,-0.411163 0.0822,0 0.39472,0.756537 0.69075,1.693982 0.74009,2.236708 0.75654,3.88135 0.0822,7.647575 l -0.49339,2.69721 0.60852,1.825551 c 0.4605,1.430835 0.60851,2.187371 0.6743,3.437297 0.0822,1.726872 0.0493,1.776212 -0.88811,1.776212 -0.29603,0 -0.54273,-0.115126 -0.62496,-0.279591 z"
       inkscape:export-xdpi="23"
       inkscape:export-ydpi="23" />
    <path
       style="fill:#ffffff;stroke:none;stroke-width:0.0164464"
       inkscape:connector-curvature="0"
       id="path4066"
       d="m 27.341115,45.659691 c -0.29603,-0.31248 -0.37826,-0.575623 -0.36182,-1.101907 0.0822,-1.562409 -0.2138,-1.776212 -1.62819,-1.249927 -1.31571,0.493392 -1.43084,0.41116 -1.48018,-1.036123 l -0.0493,-1.200587 h -0.50984 -0.52628 l 0.57562,-0.64141 c 1.15125,-1.266373 1.20059,-1.496623 1.20059,-6.266079 0,-4.341849 0.19736,-6.52922 0.74009,-8.354771 0.13157,-0.460499 0.24669,-1.315712 0.26314,-1.907782 0,-0.592071 0.0987,-1.381498 0.23025,-1.743319 l 0.2138,-0.657856 0.0164,0.624964 c 0.0165,0.509838 0.0658,0.624963 0.31249,0.575624 0.23025,-0.04934 0.27959,-0.246696 0.29603,-1.118356 0,-0.59207 0.0987,-1.249926 0.23025,-1.463729 0.18091,-0.361821 0.2138,-0.378268 0.37827,-0.09868 0.26314,0.493392 0.0329,2.730103 -0.37827,3.535976 -0.69075,1.348605 -1.21703,8.519235 -0.82232,11.019088 0.36182,2.170925 0.37827,3.042584 0.0987,3.585316 -0.14802,0.296035 -0.19736,0.526285 -0.11512,0.526285 0.0987,0 0.54273,-0.723642 0.98678,-1.595301 0.93745,-1.809105 2.58209,-3.815565 2.99325,-3.601762 0.78942,0.394713 2.03935,1.217033 2.17092,1.447283 0.39471,0.624963 -1.21703,2.746549 -2.64787,3.486637 -0.88811,0.460499 -0.90455,1.480176 -0.0658,2.417621 l 0.4605,0.526285 2.63142,0.06578 c 2.89457,0.08223 6.8746,-0.230249 9.04552,-0.707195 1.26638,-0.279589 1.3815,-0.279589 2.0558,-0.01645 0.83877,0.328928 3.2235,1.841996 2.63143,1.677532 -0.32893,-0.09868 -0.37827,-0.08223 -0.27959,0.180911 0.0987,0.263142 0.0658,0.263142 -0.26314,-0.04934 -0.36182,-0.328928 -1.48018,-0.87166 -1.79266,-0.87166 -0.0822,0 0,0.296035 0.18091,0.657856 0.47695,0.953892 -0.0165,0.690749 -0.65785,-0.345374 -0.54274,-0.888106 -0.72365,-0.953891 -1.51308,-0.493392 -0.29603,0.18091 -1.05256,0.444053 -1.69397,0.608517 -0.62497,0.148017 -1.34861,0.378267 -1.57886,0.493392 -0.52628,0.263142 -4.39119,0.986784 -6.06872,1.134801 -1.82555,0.164464 -2.20382,0.328929 -3.17416,1.414392 -1.00323,1.101908 -1.46373,1.217033 -2.10514,0.542729 z"
       inkscape:export-xdpi="23"
       inkscape:export-ydpi="23" />
    <path
       style="fill:#ffffff;stroke:none;stroke-width:0.0164464"
       inkscape:connector-curvature="0"
       id="path4068"
       d="m 37.439205,40.577755 -0.37826,-0.361821 0.95389,-0.427607 c 1.23348,-0.59207 2.71365,-1.907782 3.17415,-2.845227 0.29604,-0.624963 0.50984,-0.82232 1.20059,-1.134801 0.75653,-0.328929 0.87166,-0.345375 1.20059,-0.131572 0.2138,0.148018 0.37827,0.378267 0.37827,0.526285 0,0.394714 -1.56241,2.582085 -2.18738,3.042584 -0.65785,0.493392 -2.82878,1.496623 -3.48663,1.611747 -0.36183,0.06579 -0.59208,-0.01645 -0.85522,-0.279588 z"
       inkscape:export-xdpi="23"
       inkscape:export-ydpi="23" />
  </g>
</svg>
